<svg width="218" height="32" viewBox="0 0 218 32" fill="none" xmlns="http://www.w3.org/2000/svg">
<path d="M0.76 30.72V0.4H14.04C18.92 0.4 22.36 3.8 22.36 8.64C22.36 10.6 21.32 12.88 19.76 14.4C20 14.52 20.24 14.68 20.44 14.84C22.64 16.28 24.2 19.16 24.2 21.84C24.2 27.04 20.76 30.72 15.88 30.72H0.76ZM6.84 25.52H14.76C16.84 25.52 18.12 24.12 18.12 21.84C18.12 19.36 16.84 17.8 14.76 17.8H6.84V25.52ZM6.84 12.6H13.28C15.16 12.56 16.32 11.28 16.32 9.24C16.32 7 15.12 5.6 13.16 5.6H6.84V12.6ZM42.0722 25.76C47.7922 25.76 51.3522 21.84 51.3522 15.56C51.3522 9.28 47.7922 5.36 42.0722 5.36C36.3522 5.36 32.7922 9.28 32.7922 15.56C32.7922 21.84 36.3522 25.76 42.0722 25.76ZM26.7122 15.56C26.7122 6.48 33.0722 0.079999 42.0722 0.079999C51.0722 0.079999 57.4322 6.48 57.4322 15.56C57.4322 24.64 51.0722 31.04 42.0722 31.04C33.0722 31.04 26.7122 24.64 26.7122 15.56ZM75.4128 25.76C81.1328 25.76 84.6928 21.84 84.6928 15.56C84.6928 9.28 81.1328 5.36 75.4128 5.36C69.6928 5.36 66.1328 9.28 66.1328 15.56C66.1328 21.84 69.6928 25.76 75.4128 25.76ZM60.0528 15.56C60.0528 6.48 66.4128 0.079999 75.4128 0.079999C84.4128 0.079999 90.7728 6.48 90.7728 15.56C90.7728 24.64 84.4128 31.04 75.4128 31.04C66.4128 31.04 60.0528 24.64 60.0528 15.56ZM121.974 0.359998L110.054 13.52L122.134 30.72H114.694L105.894 18.16L100.534 24.24V30.72H94.4537V0.439999H100.534V15L113.774 0.359998H121.974ZM145.316 21.04C145.316 26.88 140.996 31 134.876 31C130.796 31 126.836 28.6 125.236 25.16L130.636 22.48C131.516 24.4 133.316 25.72 134.996 25.72C137.476 25.72 139.236 23.76 139.236 20.96V0.4H145.316V21.04ZM168.253 0.4L179.973 30.72H173.453L170.493 23.12H158.413L155.413 30.72H148.893L160.893 0.4H168.253ZM160.453 17.92H168.493L164.573 7.68L160.453 17.92ZM200.186 25.2L189.306 10.12V30.72H183.226V0.4H190.106L200.186 15.36L210.266 0.4H217.146V30.72H211.066V10.12L200.186 25.2Z" fill="white"/>
</svg>
