<svg width="20" height="20" viewBox="0 0 20 20" fill="none" xmlns="http://www.w3.org/2000/svg">
<path d="M2.01509 8.69397C2.01509 7.78879 2.18481 6.94019 2.52425 6.14817C2.86907 5.35075 3.34321 4.65032 3.94666 4.04688C4.55011 3.43804 5.24784 2.9639 6.03987 2.62446C6.83728 2.28502 7.68858 2.1153 8.59375 2.1153C9.50431 2.1153 10.3556 2.28502 11.1476 2.62446C11.945 2.9639 12.6455 3.43804 13.2489 4.04688C13.8524 4.65032 14.3238 5.35075 14.6633 6.14817C15.0081 6.94019 15.1805 7.78879 15.1805 8.69397C15.1805 9.40517 15.07 10.0814 14.8491 10.7225C14.6336 11.3637 14.3346 11.9483 13.952 12.4763L17.6374 16.1778C17.7505 16.2856 17.8341 16.4122 17.8879 16.5577C17.9472 16.7031 17.9768 16.8567 17.9768 17.0183C17.9768 17.2446 17.9256 17.4494 17.8233 17.6325C17.7209 17.8157 17.5808 17.9585 17.403 18.0609C17.2252 18.1686 17.0205 18.2225 16.7888 18.2225C16.6272 18.2225 16.4709 18.1929 16.32 18.1336C16.1746 18.0797 16.0426 17.9935 15.924 17.875L12.2144 14.1654C11.6972 14.5102 11.1315 14.7823 10.5172 14.9817C9.9084 15.1756 9.26724 15.2726 8.59375 15.2726C7.68858 15.2726 6.83728 15.1029 6.03987 14.7635C5.24784 14.424 4.55011 13.9526 3.94666 13.3491C3.34321 12.7457 2.86907 12.048 2.52425 11.2559C2.18481 10.4585 2.01509 9.60453 2.01509 8.69397ZM3.73653 8.69397C3.73653 9.36746 3.86045 9.99785 4.1083 10.5851C4.36153 11.1724 4.71175 11.6897 5.15894 12.1369C5.60614 12.5787 6.12338 12.9262 6.71067 13.1794C7.29795 13.4327 7.92565 13.5593 8.59375 13.5593C9.26724 13.5593 9.89763 13.4327 10.4849 13.1794C11.0722 12.9262 11.5867 12.5787 12.0286 12.1369C12.4758 11.6897 12.826 11.1724 13.0792 10.5851C13.3324 9.99785 13.4591 9.36746 13.4591 8.69397C13.4591 8.02586 13.3324 7.39817 13.0792 6.81088C12.826 6.2236 12.4758 5.70636 12.0286 5.25916C11.5867 4.81196 11.0722 4.46444 10.4849 4.2166C9.89763 3.96336 9.26724 3.83675 8.59375 3.83675C7.92565 3.83675 7.29795 3.96336 6.71067 4.2166C6.12338 4.46444 5.60614 4.81196 5.15894 5.25916C4.71175 5.70636 4.36153 6.2236 4.1083 6.81088C3.86045 7.39817 3.73653 8.02586 3.73653 8.69397Z" fill="#EE7505"/>
</svg>
