<svg width="44" height="52" viewBox="0 0 44 52" fill="none" xmlns="http://www.w3.org/2000/svg">
<g filter="url(#filter0_d_2055_9051)">
<path d="M37.4 22.4016C37.4 28.7352 33.8869 34.4961 30.1153 38.7127C28.2363 40.8133 26.312 42.5092 24.7706 43.6764C23.9993 44.2604 23.3308 44.7068 22.8175 45.004C22.5601 45.153 22.3506 45.2594 22.1923 45.3266C22.0905 45.3699 22.0308 45.3877 22.0044 45.395C21.9797 45.3873 21.9226 45.3684 21.8249 45.3233C21.6674 45.2505 21.4581 45.1351 21.2002 44.9737C20.6862 44.6519 20.0167 44.1707 19.244 43.5472C17.7 42.3012 15.7725 40.51 13.8904 38.3441C10.1065 33.9898 6.6 28.2299 6.6 22.4016C6.6 13.6605 13.5087 6.6 22 6.6C30.4913 6.6 37.4 13.6605 37.4 22.4016Z" fill="#F5980B" stroke="#EE7505" stroke-width="1.2"/>
<path d="M21.6733 26.1378C20.6551 26.1378 19.7267 25.9663 18.8881 25.6232C18.0496 25.2802 17.3281 24.7956 16.7237 24.1694C16.1193 23.5432 15.6538 22.8027 15.3271 21.9478C15.0004 21.0929 14.837 20.1482 14.837 19.1136V17.4556C14.837 16.8077 15.1392 16.2386 15.7436 15.7486C16.348 15.2585 17.1893 14.8774 18.2674 14.6051C19.351 14.3274 20.6088 14.1886 22.0408 14.1886C23.4729 14.1886 24.728 14.3274 25.8061 14.6051C26.8897 14.8774 27.7337 15.2585 28.3381 15.7486C28.9425 16.2386 29.2447 16.8077 29.2447 17.4556V19.1136C29.2447 20.1809 29.0813 21.1474 28.7546 22.0131C28.4279 22.8735 27.9624 23.6113 27.358 24.2266C26.7535 24.8419 26.0321 25.3156 25.1935 25.6477C24.3604 25.9744 23.4321 26.1378 22.4084 26.1378H21.6733ZM22.0408 19.4485C23.1843 19.4485 24.2025 19.3614 25.0955 19.1872C25.9885 19.0075 26.6909 18.7679 27.2028 18.4684C27.72 18.1689 27.9787 17.8313 27.9787 17.4556C27.9787 17.0799 27.72 16.7423 27.2028 16.4428C26.6909 16.1434 25.9885 15.9065 25.0955 15.7323C24.2025 15.5526 23.1843 15.4627 22.0408 15.4627C20.9028 15.4627 19.8873 15.5526 18.9943 15.7323C18.1013 15.9065 17.3962 16.1434 16.8789 16.4428C16.3671 16.7423 16.1112 17.0799 16.1112 17.4556C16.1112 17.8313 16.3671 18.1689 16.8789 18.4684C17.3962 18.7679 18.1013 19.0075 18.9943 19.1872C19.8873 19.3614 20.9028 19.4485 22.0408 19.4485ZM28.3626 22.5277V21.2617H29.0078C29.5251 21.2617 29.928 21.1501 30.2166 20.9269C30.5052 20.6982 30.6495 20.3851 30.6495 19.9876C30.6495 19.5901 30.5052 19.2797 30.2166 19.0565C29.928 18.8278 29.5251 18.7134 29.0078 18.7134H28.4851V17.4475H29.0078C29.9117 17.4475 30.6223 17.6734 31.1396 18.1254C31.6623 18.5773 31.9236 19.198 31.9236 19.9876C31.9236 20.7771 31.665 21.3979 31.1477 21.8498C30.6304 22.3017 29.9171 22.5277 29.0078 22.5277H28.3626ZM22 30.0501C20.4482 30.0501 19.0243 29.9466 17.7283 29.7397C16.4379 29.5328 15.3189 29.236 14.3715 28.8494C13.424 28.4628 12.6889 28.0054 12.1662 27.4773C11.6489 26.9491 11.3903 26.3638 11.3903 25.7212C11.3903 25.0624 11.6653 24.4634 12.2152 23.9244C12.7652 23.3799 13.5356 22.9143 14.5266 22.5277C14.9187 23.4588 15.4605 24.2647 16.152 24.9453C16.8435 25.6259 17.6576 26.1541 18.5941 26.5298C19.5307 26.9055 20.5571 27.0934 21.6733 27.0934H22.4084C23.9167 27.0934 25.2453 26.7749 26.3942 26.1378C27.5485 25.5007 28.4497 24.6159 29.0977 23.4833C29.408 23.4724 29.6966 23.4398 29.9634 23.3853C30.2357 23.3309 30.4943 23.2519 30.7393 23.1484C31.3329 23.4969 31.793 23.889 32.1197 24.3246C32.4464 24.7602 32.6097 25.2257 32.6097 25.7212C32.6097 26.3638 32.3511 26.9491 31.8338 27.4773C31.3165 28.0054 30.5842 28.4628 29.6367 28.8494C28.6893 29.236 27.5676 29.5328 26.2717 29.7397C24.9757 29.9466 23.5518 30.0501 22 30.0501Z" fill="white"/>
</g>
<defs>
<filter id="filter0_d_2055_9051" x="-4" y="0" width="52" height="52" filterUnits="userSpaceOnUse" color-interpolation-filters="sRGB">
<feFlood flood-opacity="0" result="BackgroundImageFix"/>
<feColorMatrix in="SourceAlpha" type="matrix" values="0 0 0 0 0 0 0 0 0 0 0 0 0 0 0 0 0 0 127 0" result="hardAlpha"/>
<feOffset/>
<feGaussianBlur stdDeviation="3"/>
<feComposite in2="hardAlpha" operator="out"/>
<feColorMatrix type="matrix" values="0 0 0 0 0 0 0 0 0 0 0 0 0 0 0 0 0 0 0.25 0"/>
<feBlend mode="normal" in2="BackgroundImageFix" result="effect1_dropShadow_2055_9051"/>
<feBlend mode="normal" in="SourceGraphic" in2="effect1_dropShadow_2055_9051" result="shape"/>
</filter>
</defs>
</svg>
