<svg width="36" height="36" viewBox="0 0 36 36" fill="none" xmlns="http://www.w3.org/2000/svg">
<rect width="36" height="36" rx="18" fill="#00C950"/>
<path d="M11.2355 18.1649C11.2355 17.917 11.3244 17.7042 11.5022 17.5264C11.68 17.3432 11.8928 17.2516 12.1406 17.2516H17.0948V12.3055C17.0948 12.0577 17.1837 11.8448 17.3615 11.667C17.5393 11.4892 17.7522 11.4003 18 11.4003C18.2532 11.4003 18.4687 11.4892 18.6466 11.667C18.8244 11.8448 18.9133 12.0577 18.9133 12.3055V17.2516H23.8594C24.1072 17.2516 24.32 17.3432 24.4978 17.5264C24.6756 17.7042 24.7645 17.917 24.7645 18.1649C24.7645 18.4181 24.6756 18.6336 24.4978 18.8114C24.32 18.9838 24.1072 19.07 23.8594 19.07H18.9133V24.0323C18.9133 24.2748 18.8244 24.4849 18.6466 24.6627C18.4687 24.8405 18.2532 24.9294 18 24.9294C17.7522 24.9294 17.5393 24.8405 17.3615 24.6627C17.1837 24.4849 17.0948 24.2748 17.0948 24.0323V19.07H12.1406C11.8928 19.07 11.68 18.9838 11.5022 18.8114C11.3244 18.6336 11.2355 18.4181 11.2355 18.1649Z" fill="white"/>
</svg>
