<svg width="358" height="58" viewBox="0 0 358 58" fill="none" xmlns="http://www.w3.org/2000/svg">
<g filter="url(#filter0_d_1112_7952)">
<rect x="4" y="4" width="350" height="50" rx="8" fill="#3D3D3D" shape-rendering="crispEdges"/>
<circle cx="34" cy="29" r="10" fill="#00AE84"/>
<path d="M29.625 29L33.2862 33.2854L39 25.875" stroke="white" stroke-width="1.5625" stroke-linecap="round" stroke-linejoin="round"/>
<path d="M64.736 22.088H66.208V36.248H64.736V22.088ZM55.36 24.584V23.4H61.92V28.536H56.864V31.656C59.136 31.64 61.136 31.544 63.488 31.16L63.648 32.344C61.152 32.776 59.04 32.856 56.576 32.856H55.392V27.352H60.448V24.584H55.36ZM68.5764 30.312H81.3604V31.496H78.2244V36.232H76.7364V31.496H73.1684V36.232H71.6964V31.496H68.5764V30.312ZM70.1604 28.728V22.664H71.6004V24.472H78.3044V22.664H79.7444V28.728H70.1604ZM71.6004 27.528H78.3044V25.656H71.6004V27.528ZM86.5843 23.064H94.1523V24.248H91.1123V24.632C91.1123 26.472 92.3923 28.184 94.5043 28.904L93.7523 30.056C92.1843 29.512 91.0163 28.392 90.4083 27C89.8003 28.52 88.5683 29.72 86.9363 30.312L86.1523 29.176C88.3443 28.424 89.6562 26.6 89.6562 24.648V24.248H86.5843V23.064ZM88.0243 32.52V31.336H97.2403V36.232H95.7683V32.52H88.0243ZM95.7683 30.6V22.12H97.2403V25.768H99.2723V26.984H97.2403V30.6H95.7683ZM103.721 22.904H105.177V24.232C105.177 26.216 106.457 27.976 108.553 28.68L107.769 29.832C106.233 29.272 105.097 28.168 104.489 26.744C103.881 28.36 102.649 29.624 100.953 30.248L100.185 29.064C102.393 28.296 103.721 26.424 103.721 24.296V22.904ZM102.457 33.528C102.457 31.832 104.265 30.84 107.209 30.84C110.137 30.84 111.929 31.832 111.929 33.528C111.929 35.24 110.137 36.2 107.209 36.2C104.265 36.2 102.457 35.24 102.457 33.528ZM103.929 33.528C103.929 34.504 105.129 35.064 107.209 35.064C109.257 35.064 110.489 34.504 110.489 33.528C110.489 32.552 109.257 31.992 107.209 31.992C105.129 31.992 103.929 32.552 103.929 33.528ZM107.449 26.216V25H110.409V22.12H111.865V30.44H110.409V26.216H107.449ZM124.329 22.088H125.785V36.248H124.329V22.088ZM114.697 28.12C114.697 25.08 116.201 23.176 118.313 23.176C120.409 23.176 121.929 25.08 121.929 28.12C121.929 31.144 120.409 33.08 118.313 33.08C116.201 33.08 114.697 31.144 114.697 28.12ZM116.105 28.12C116.105 30.36 117.017 31.768 118.313 31.768C119.609 31.768 120.521 30.36 120.521 28.12C120.521 25.88 119.609 24.488 118.313 24.488C117.017 24.488 116.105 25.88 116.105 28.12ZM136.145 22.744C138.177 22.744 139.633 23.864 139.633 25.544C139.633 27 138.529 28.024 136.913 28.28V29.576C138.161 29.512 139.409 29.4 140.561 29.224L140.673 30.296C137.761 30.84 134.449 30.872 132.049 30.872L131.857 29.688C132.913 29.688 134.145 29.688 135.441 29.64V28.28C133.793 28.056 132.657 27.016 132.657 25.544C132.657 23.864 134.113 22.744 136.145 22.744ZM133.857 35.912V31.992H135.329V34.728H143.377V35.912H133.857ZM134.033 25.544C134.033 26.568 134.881 27.24 136.145 27.24C137.409 27.24 138.273 26.568 138.273 25.544C138.273 24.536 137.409 23.864 136.145 23.864C134.881 23.864 134.033 24.536 134.033 25.544ZM141.425 32.904V22.12H142.881V26.808H144.897V28.008H142.881V32.904H141.425ZM145.873 33.32H149.377V30.76H147.441V26.312H155.665V24.296H147.409V23.112H157.121V27.464H148.881V29.576H157.441V30.76H155.297V33.32H158.657V34.52H145.873V33.32ZM150.817 33.32H153.873V30.76H150.817V33.32ZM160.914 23.432H168.114V24.616H162.386V28.104H168.178V29.288H165.218V31.944C166.53 31.896 167.826 31.8 169.058 31.656L169.17 32.728C166.098 33.192 162.77 33.256 160.098 33.24L159.922 32.04C161.106 32.04 162.418 32.024 163.762 31.992V29.288H160.914V23.432ZM169.938 36.248V22.088H171.41V36.248H169.938ZM177.394 30.664H178.802V31.432C178.802 32.664 179.394 33.96 180.674 34.76C181.97 33.896 182.594 32.504 182.594 31.432V30.664H184.034V31.432C184.034 32.904 184.994 34.36 186.818 34.968L186.082 36.04C184.706 35.544 183.778 34.584 183.298 33.416C182.85 34.568 182.018 35.624 180.706 36.184C179.362 35.656 178.53 34.648 178.098 33.496C177.586 34.6 176.658 35.544 175.346 36.04L174.61 34.968C176.418 34.312 177.394 32.808 177.394 31.432V30.664ZM174.082 26.216C174.082 24.264 175.618 22.888 177.714 22.888C179.57 22.888 180.994 23.976 181.298 25.592H184.05V22.12H185.506V30.12H184.05V26.776H181.298C181.042 28.424 179.586 29.528 177.714 29.528C175.618 29.528 174.082 28.168 174.082 26.216ZM175.458 26.216C175.458 27.464 176.418 28.328 177.714 28.328C178.994 28.328 179.954 27.464 179.954 26.216C179.954 24.968 178.994 24.104 177.714 24.104C176.418 24.104 175.458 24.968 175.458 26.216ZM191.602 23.176C193.506 23.176 194.914 24.792 195.122 27.432H198.034V22.088H199.49V36.248H198.034V28.6H195.138C194.994 31.352 193.554 33.08 191.602 33.08C189.538 33.08 188.066 31.144 188.066 28.12C188.066 25.08 189.538 23.176 191.602 23.176ZM189.442 28.12C189.442 30.36 190.322 31.768 191.602 31.768C192.898 31.768 193.762 30.36 193.762 28.12C193.762 25.88 192.898 24.488 191.602 24.488C190.322 24.488 189.442 25.88 189.442 28.12ZM201.811 33.24H204.883V29.512C203.731 28.888 203.027 27.88 203.027 26.616C203.027 24.392 205.203 22.952 208.179 22.952C211.203 22.952 213.347 24.392 213.347 26.616C213.347 27.864 212.675 28.856 211.539 29.496V33.24H214.595V34.44H201.811V33.24ZM204.451 26.616C204.451 28.152 206.003 29.128 208.179 29.128C210.371 29.128 211.923 28.152 211.923 26.616C211.923 25.08 210.371 24.104 208.179 24.104C206.003 24.104 204.451 25.08 204.451 26.616ZM206.323 33.24H210.067V30.056C209.491 30.2 208.851 30.264 208.179 30.264C207.523 30.264 206.899 30.2 206.323 30.056V33.24ZM218.723 23.192L218.499 32.072H217.187L216.931 23.192H218.723ZM216.947 34.376C216.947 33.864 217.331 33.496 217.859 33.496C218.371 33.496 218.739 33.864 218.739 34.376C218.739 34.92 218.371 35.288 217.859 35.288C217.331 35.288 216.947 34.92 216.947 34.376Z" fill="white"/>
</g>
<defs>
<filter id="filter0_d_1112_7952" x="0" y="0" width="358" height="58" filterUnits="userSpaceOnUse" color-interpolation-filters="sRGB">
<feFlood flood-opacity="0" result="BackgroundImageFix"/>
<feColorMatrix in="SourceAlpha" type="matrix" values="0 0 0 0 0 0 0 0 0 0 0 0 0 0 0 0 0 0 127 0" result="hardAlpha"/>
<feOffset/>
<feGaussianBlur stdDeviation="2"/>
<feComposite in2="hardAlpha" operator="out"/>
<feColorMatrix type="matrix" values="0 0 0 0 0 0 0 0 0 0 0 0 0 0 0 0 0 0 0.15 0"/>
<feBlend mode="normal" in2="BackgroundImageFix" result="effect1_dropShadow_1112_7952"/>
<feBlend mode="normal" in="SourceGraphic" in2="effect1_dropShadow_1112_7952" result="shape"/>
</filter>
</defs>
</svg>
