<svg width="300" height="300" viewBox="0 0 300 300" fill="none" xmlns="http://www.w3.org/2000/svg">
<g clip-path="url(#clip0_2451_10400)">
<path d="M256.791 229.594C185.34 229.371 113.88 230.049 42.4285 229.834C30.4285 229.8 22.8 216.977 28.5 206.417C48.2314 169.834 67.9628 133.251 87.6943 96.6686C90.48 91.5086 95.88 88.3114 101.743 88.3371C136.62 88.4743 171.497 88.0971 206.366 88.2343C212.546 88.26 218.143 91.8857 220.723 97.5C237.566 134.211 254.409 170.469 271.251 207.077C276.103 217.611 268.38 229.629 256.783 229.594H256.791Z" fill="url(#paint0_linear_2451_10400)"/>
<mask id="mask0_2451_10400" style="mask-type:luminance" maskUnits="userSpaceOnUse" x="41" y="59" width="217" height="182">
<path d="M216.069 240H257.649C242.211 197.143 226.774 154.286 211.337 111.429H235.363V105.429H209.177L192.506 59.1429C189.651 60.5743 186.789 61.9971 183.934 63.4286C186.48 77.4257 189.034 91.4314 191.58 105.429H120.617C122.683 91.8257 124.749 78.2143 126.814 64.6114C125.366 63.1029 123.917 61.5943 122.469 60.0857L111.18 105.429C61.1486 105.429 101.117 106.286 51.0857 106.286C50.7857 108.283 50.4771 110.289 50.1771 112.286C100.011 112.286 59.8543 111.429 109.689 111.429C106.629 123.711 103.569 136.003 100.517 148.286C51.18 148.286 91.8514 149.143 42.5143 149.143C42.2143 153.72 41.9057 158.306 41.6057 162.883C90.1029 162.883 48.6 162.026 97.0971 162.026C90.7286 187.62 84.3514 213.214 77.9829 238.817C85.3886 239.211 92.7857 239.614 100.191 240.009C104.134 214.011 108.086 188.023 112.029 162.026H201.891C206.623 188.014 211.354 214.011 216.086 240H216.069ZM114.103 148.286C115.971 136.003 117.831 123.711 119.7 111.429H192.669C194.906 123.711 197.143 136.003 199.38 148.286H114.103Z" fill="white"/>
</mask>
<g mask="url(#mask0_2451_10400)">
<path d="M256.791 229.594C185.34 229.371 113.88 230.049 42.4285 229.834C30.4285 229.8 22.8 216.977 28.5 206.417C48.2314 169.834 67.9628 133.251 87.6943 96.6686C90.48 91.5086 95.88 88.3114 101.743 88.3371C136.62 88.4743 171.497 88.0971 206.366 88.2343C212.546 88.26 218.143 91.8857 220.723 97.5C237.566 134.211 254.409 170.469 271.251 207.077C276.103 217.611 268.38 229.629 256.783 229.594H256.791Z" fill="white"/>
</g>
<path d="M230.28 134.58C230.28 153.026 209.786 169.123 206.854 169.123C203.923 169.123 183.429 153.017 183.429 134.58C183.429 121.32 193.911 110.571 206.854 110.571C219.797 110.571 230.28 121.32 230.28 134.58Z" fill="#F5980B"/>
<path d="M207.223 143.503C212.274 143.503 216.369 139.408 216.369 134.357C216.369 129.306 212.274 125.211 207.223 125.211C202.172 125.211 198.077 129.306 198.077 134.357C198.077 139.408 202.172 143.503 207.223 143.503Z" fill="white"/>
<path d="M127.363 75.8314C127.363 87.66 114.223 97.9886 112.346 97.9886C110.469 97.9886 97.3286 87.66 97.3286 75.8314C97.3286 67.3286 104.057 60.4371 112.346 60.4371C120.634 60.4371 127.363 67.3286 127.363 75.8314Z" fill="#F5980B"/>
<path d="M127.363 75.8314C127.363 87.66 114.223 97.9886 112.346 97.9886C110.469 97.9886 97.3286 87.66 97.3286 75.8314C97.3286 67.3286 104.057 60.4371 112.346 60.4371C120.634 60.4371 127.363 67.3286 127.363 75.8314Z" fill="white" fill-opacity="0.2"/>
<path d="M112.577 81.5657C115.82 81.5657 118.449 78.937 118.449 75.6943C118.449 72.4516 115.82 69.8229 112.577 69.8229C109.335 69.8229 106.706 72.4516 106.706 75.6943C106.706 78.937 109.335 81.5657 112.577 81.5657Z" fill="white"/>
<path d="M95.1342 187.946C95.1342 202.611 78.84 215.409 76.5085 215.409C74.1771 215.409 57.8828 202.603 57.8828 187.946C57.8828 177.403 66.2228 168.857 76.5085 168.857C86.7942 168.857 95.1342 177.403 95.1342 187.946Z" fill="#F5980B"/>
<path d="M76.8085 195.051C80.8276 195.051 84.0857 191.793 84.0857 187.774C84.0857 183.755 80.8276 180.497 76.8085 180.497C72.7895 180.497 69.5314 183.755 69.5314 187.774C69.5314 191.793 72.7895 195.051 76.8085 195.051Z" fill="white"/>
<path d="M147.874 151.62C137.752 153.754 130.663 152.314 126.026 150.566C116.477 146.966 112.474 140.246 105.986 141.763C101.949 142.706 98.8972 146.383 97.7744 149.717C94.5344 159.343 104.906 173.546 116.897 177.437C129.574 181.551 145.594 174.634 155.032 159.677C152.649 156.994 150.257 154.303 147.874 151.62Z" fill="white"/>
<path d="M113.829 156.274C114.343 152.031 116.049 148.637 117.677 146.246C114.78 144.326 112.372 142.723 109.629 142.603C107.572 145.354 105.377 149.297 104.64 154.32C103.792 160.114 105.069 166.02 108.06 171.266C110.992 173.88 114.42 175.971 117.986 177.12C119.623 177.643 121.312 177.977 123.034 178.131C116.426 172.217 112.869 164.16 113.82 156.266L113.829 156.274Z" fill="#F5980B"/>
<path d="M126.206 151.389C124.637 150.763 123.231 150.034 121.937 149.28C120.917 151.414 120.069 154.003 119.811 157.011C119.151 164.709 122.554 172.517 128.691 178.166C130.877 177.874 133.071 177.291 135.231 176.443C130.14 171.497 127.26 164.991 127.654 158.511C127.8 156.171 128.357 154.106 129.06 152.366C128.014 152.066 127.063 151.731 126.197 151.38L126.206 151.389Z" fill="#F5980B"/>
<path d="M132.3 153.12C132.214 153.669 132.146 154.226 132.094 154.809C131.52 161.914 134.349 169.123 139.543 174.677C141.283 173.666 142.989 172.474 144.609 171.103C141.351 166.689 139.611 161.511 139.903 156.36C139.954 155.391 140.083 154.466 140.254 153.6C137.237 153.763 134.597 153.549 132.3 153.129V153.12Z" fill="#F5980B"/>
<path d="M147.874 151.62C137.752 153.754 130.663 152.314 126.026 150.566C116.477 146.966 112.474 140.246 105.986 141.763C101.949 142.706 98.8972 146.383 97.7744 149.717C94.5344 159.343 104.906 173.546 116.897 177.437C129.574 181.551 145.594 174.634 155.032 159.677C152.649 156.994 150.257 154.303 147.874 151.62Z" stroke="#AAA59E" stroke-width="1.94571" stroke-linecap="round" stroke-linejoin="round"/>
<path d="M127.363 120C125.726 129.214 124.5 140.52 124.792 153.429C125.014 163.08 126.043 171.72 127.363 179.143C129.643 180.891 133.894 183.514 139.363 183.429C143.554 183.369 149.452 181.697 149.649 179.143C149.7 178.517 149.46 177.326 147.077 175.714C147.017 174.36 147.017 172.929 147.077 171.429C147.257 167.177 147.952 163.423 148.792 160.286L155.04 160.123C155.134 163.131 155.383 169.629 155.889 173.057C156.223 175.311 156.634 177.471 157.097 179.503C159.969 181.32 164.957 183.754 170.726 182.88C172.852 182.554 177.806 181.363 177.934 179.143C178.02 177.617 175.826 175.963 172.792 174.857C173.494 166.774 173.666 159.797 173.649 154.286C173.623 147.823 173.563 139.423 171.934 128.571C171.352 124.697 170.717 121.474 170.22 119.143" fill="white"/>
<path d="M127.363 120C125.726 129.214 124.5 140.52 124.792 153.429C125.014 163.08 126.043 171.72 127.363 179.143C129.643 180.891 133.894 183.514 139.363 183.429C143.554 183.369 149.452 181.697 149.649 179.143C149.7 178.517 149.46 177.326 147.077 175.714C147.017 174.36 147.017 172.929 147.077 171.429C147.257 167.177 147.952 163.423 148.792 160.286L155.04 160.123C155.134 163.131 155.383 169.629 155.889 173.057C156.223 175.311 156.634 177.471 157.097 179.503C159.969 181.32 164.957 183.754 170.726 182.88C172.852 182.554 177.806 181.363 177.934 179.143C178.02 177.617 175.826 175.963 172.792 174.857C173.494 166.774 173.666 159.797 173.649 154.286C173.623 147.823 173.563 139.423 171.934 128.571C171.352 124.697 170.717 121.474 170.22 119.143" stroke="#AAA59E" stroke-width="1.94571" stroke-linecap="round" stroke-linejoin="round"/>
<path d="M128.349 122.151C123.094 124.286 117.729 121.971 116.7 118.903C115.946 116.674 117.403 113.811 120.317 112.02C116.091 112.003 112.697 108.823 112.903 105.231C113.1 101.734 116.657 98.9914 120.763 99.3C118.106 98.3829 116.109 96.5314 115.92 94.5429C115.646 91.62 119.271 88.2171 124.603 88.4229L124.577 88.3629C122.863 78.3171 126.986 70.7486 130.757 70.1486C134.486 69.5571 140.631 75.3514 142.303 85.1486C145.2 85.0971 148.097 85.0543 151.003 85.0114C152.451 75.6 158.211 69.8829 161.846 70.3629C165.54 70.8514 169.749 78.12 168.309 87.9514L168.84 87.9771C173.46 87.2914 177.017 90.3257 177.12 93.2314C177.189 95.2114 175.671 97.2257 173.469 98.3657C177.009 97.6886 180.429 100.071 181.02 103.509C181.62 107.031 179.04 110.477 175.363 110.88C178.114 112.371 179.709 115.071 179.323 117.343C178.783 120.463 174.394 123.24 169.56 121.611" fill="white"/>
<path d="M142.877 96.5143C142.689 95.9571 142.252 95.46 141.754 95.1C141.626 95.0057 141.463 94.9543 141.3 94.9286C140.983 94.7057 140.563 94.62 140.143 94.6971C138.746 94.9629 137.666 95.9829 137.572 97.44C137.486 98.8114 138.506 100.071 139.843 100.337C141.232 100.611 142.654 99.7543 143.066 98.4C143.28 97.68 143.186 97.0457 142.886 96.5143H142.877Z" fill="#71685C"/>
<path d="M158.186 96.5143C157.997 95.9571 157.56 95.46 157.063 95.1C156.934 95.0057 156.772 94.9543 156.609 94.9286C156.292 94.7057 155.872 94.62 155.452 94.6971C154.054 94.9629 152.974 95.9829 152.88 97.44C152.786 98.8114 153.814 100.071 155.152 100.337C156.54 100.611 157.963 99.7543 158.374 98.4C158.589 97.68 158.494 97.0457 158.194 96.5143H158.186Z" fill="#71685C"/>
<path d="M141.152 87.997C139.43 87.0933 135.936 87.4015 134.446 89.0758C133.428 90.2135 133.534 91.7746 134.533 92.4307C136.481 93.7197 141.706 91.4478 142.34 89.8009C142.717 88.815 141.423 88.1411 141.152 87.997Z" fill="#F5980B"/>
<path d="M153.657 87.9602C155.436 87.176 158.901 87.722 160.273 89.494C161.211 90.6985 160.999 92.2487 159.958 92.8352C157.926 93.9882 152.869 91.3652 152.348 89.6788C152.04 88.6696 153.377 88.0855 153.657 87.9602Z" fill="#F5980B"/>
<path d="M136.98 103.354C136.937 101.914 136.877 99.7886 135.669 99.2057C133.432 98.1257 127.457 102.574 127.569 107.28C127.569 107.52 127.672 110.623 129.754 111.643C131.083 112.294 132.506 111.754 132.814 111.643C135.849 110.511 137.066 106.346 136.972 103.346L136.98 103.354Z" fill="#F5980B"/>
<path d="M160.646 103.286C160.689 101.863 160.749 99.78 161.94 99.2057C164.143 98.1514 170.014 102.523 169.911 107.151C169.911 107.383 169.817 110.443 167.76 111.446C166.457 112.08 165.051 111.557 164.743 111.446C161.76 110.331 160.569 106.234 160.654 103.286H160.646Z" fill="#F5980B"/>
<path d="M150.034 99.5057C149.186 99.4629 148.329 99.4543 147.48 99.48C147.137 99.4886 146.872 99.6 146.666 99.7714C146.289 99.9257 145.98 100.209 145.869 100.637C145.457 102.171 146.992 102.609 148.106 103.003C148.672 103.2 149.22 103.294 149.769 102.969C150.24 102.686 150.634 102.214 150.986 101.803C151.732 100.911 151.252 99.5743 150.034 99.5143V99.5057Z" fill="#847B70"/>
<path d="M131.649 119.143C130.269 119.426 126.446 120.403 123.506 123.857C120.557 127.32 118.954 132.737 120.934 137.571C122.632 141.72 126.6 144.54 130.363 145.286C142.312 147.66 157.209 130.234 154.363 122.143C153.214 118.869 148.886 116.34 145.792 117C143.229 117.549 142.552 120.069 138.934 123.857C136.089 126.831 133.209 128.726 131.22 129.857" fill="white"/>
<path d="M123.506 123.857C123.223 124.209 118.217 130.706 120.934 137.571C122.683 141.986 126.84 144.583 130.363 145.286C142.312 147.66 157.209 130.234 154.363 122.143C153.214 118.869 148.886 116.34 145.792 117C143.229 117.549 142.552 120.069 138.934 123.857C136.089 126.831 133.209 128.726 131.22 129.857" stroke="#AAA59E" stroke-width="1.94571" stroke-linecap="round" stroke-linejoin="round"/>
<path d="M167.186 118.286C168.266 118.569 171.24 119.546 173.537 123C175.834 126.463 177.086 131.88 175.543 136.714C174.223 140.863 171.129 143.683 168.189 144.429C158.872 146.803 147.257 129.377 149.477 121.286C150.377 118.011 153.746 115.483 156.163 116.143C158.16 116.691 158.691 119.211 161.511 123C163.731 125.974 165.977 127.869 167.529 129" fill="white"/>
<path d="M173.529 123C173.743 123.351 177.652 129.849 175.534 136.714C174.172 141.129 170.932 143.726 168.18 144.429C158.863 146.803 147.249 129.377 149.469 121.286C150.369 118.011 153.737 115.483 156.154 116.143C158.152 116.691 158.683 119.211 161.503 123C163.723 125.974 165.969 127.869 167.52 129" stroke="#AAA59E" stroke-width="1.94571" stroke-linecap="round" stroke-linejoin="round"/>
<path d="M128.349 122.151C123.094 124.286 117.729 121.971 116.7 118.903C115.946 116.674 117.403 113.811 120.317 112.02C116.091 112.003 112.697 108.823 112.903 105.231C113.1 101.734 116.657 98.9914 120.763 99.3C118.106 98.3829 116.109 96.5314 115.92 94.5429C115.646 91.62 119.271 88.2171 124.603 88.4229L124.577 88.3629C122.863 78.3171 126.986 70.7486 130.757 70.1486C134.486 69.5571 140.631 75.3514 142.303 85.1486C145.2 85.0971 148.097 85.0543 151.003 85.0114C152.451 75.6 158.211 69.8829 161.846 70.3629C165.54 70.8514 169.749 78.12 168.309 87.9514L168.84 87.9771C173.46 87.2914 177.017 90.3257 177.12 93.2314C177.189 95.2114 175.671 97.2257 173.469 98.3657C177.009 97.6886 180.429 100.071 181.02 103.509C181.62 107.031 179.04 110.477 175.363 110.88C178.114 112.371 179.709 115.071 179.323 117.343C178.783 120.463 174.394 123.24 169.56 121.611" stroke="#AAA59E" stroke-width="1.94571" stroke-linecap="round" stroke-linejoin="round"/>
<path d="M150.857 107.143C150.857 108.198 150.599 109.111 150.226 109.732C149.843 110.371 149.434 110.571 149.143 110.571C148.852 110.571 148.442 110.371 148.06 109.732C147.687 109.111 147.429 108.198 147.429 107.143C147.429 106.088 147.687 105.175 148.06 104.553C148.442 103.915 148.852 103.714 149.143 103.714C149.434 103.714 149.843 103.915 150.226 104.553C150.599 105.175 150.857 106.088 150.857 107.143Z" fill="#F7C6C6" stroke="#847B70" stroke-width="1.71429"/>
</g>
<defs>
<linearGradient id="paint0_linear_2451_10400" x1="149.649" y1="88.2037" x2="149.649" y2="229.877" gradientUnits="userSpaceOnUse">
<stop stop-color="#D1F5A3"/>
<stop offset="1" stop-color="#B6EF9B"/>
</linearGradient>
<clipPath id="clip0_2451_10400">
<rect width="246.154" height="180.866" fill="white" transform="translate(26.5714 59.1429)"/>
</clipPath>
</defs>
</svg>
