<svg width="44" height="52" viewBox="0 0 44 52" fill="none" xmlns="http://www.w3.org/2000/svg">
<g filter="url(#filter0_d_2055_9029)">
<path d="M37.4 22.4016C37.4 28.7352 33.8869 34.4961 30.1153 38.7127C28.2363 40.8133 26.312 42.5092 24.7706 43.6764C23.9993 44.2604 23.3308 44.7068 22.8175 45.004C22.5601 45.153 22.3506 45.2594 22.1923 45.3266C22.0905 45.3699 22.0308 45.3877 22.0044 45.395C21.9797 45.3873 21.9226 45.3684 21.8249 45.3233C21.6674 45.2505 21.4581 45.1351 21.2002 44.9737C20.6862 44.6519 20.0167 44.1707 19.244 43.5472C17.7 42.3012 15.7725 40.51 13.8904 38.3441C10.1065 33.9898 6.6 28.2299 6.6 22.4016C6.6 13.6605 13.5087 6.6 22 6.6C30.4913 6.6 37.4 13.6605 37.4 22.4016Z" fill="#F5980B" stroke="#EE7505" stroke-width="1.2"/>
<path d="M17.1974 14.6051C18.0578 14.6051 18.8527 14.7685 19.5824 15.0952C20.3175 15.4219 20.8865 15.8738 21.2894 16.451C21.3656 16.5653 21.4119 16.647 21.4283 16.696C21.45 16.745 21.4609 16.824 21.4609 16.9329V29.0128C21.4609 29.1162 21.4283 29.1979 21.3629 29.2578C21.303 29.3232 21.2268 29.3558 21.1342 29.3558C21.0308 29.3558 20.9355 29.3177 20.8484 29.2415C20.5598 28.991 20.2385 28.7759 19.8846 28.5962C19.5307 28.422 19.1549 28.2859 18.7575 28.1879C18.36 28.0953 17.9489 28.049 17.5242 28.049C16.8435 28.049 16.1765 28.1606 15.5231 28.3839C14.8697 28.6126 14.2843 28.9474 13.7671 29.3885C13.6908 29.4538 13.6064 29.5028 13.5139 29.5355C13.4267 29.5682 13.3342 29.5845 13.2362 29.5845C13.0347 29.5845 12.8768 29.5301 12.7624 29.4212C12.6481 29.3177 12.5909 29.1707 12.5909 28.9801V17.4556C12.5909 17.3032 12.5936 17.1915 12.5991 17.1207C12.61 17.0445 12.6399 16.9656 12.6889 16.8839C12.9666 16.3993 13.3451 15.9882 13.8242 15.6506C14.3034 15.313 14.8343 15.0543 15.4169 14.8747C16.005 14.695 16.5985 14.6051 17.1974 14.6051ZM26.7944 14.6051C27.3933 14.6051 27.9841 14.695 28.5668 14.8747C29.1548 15.0543 29.6884 15.313 30.1676 15.6506C30.6468 15.9882 31.0252 16.3993 31.3029 16.8839C31.3519 16.9601 31.3791 17.0363 31.3846 17.1126C31.3955 17.1888 31.4009 17.3032 31.4009 17.4556V28.9801C31.4009 29.1707 31.3437 29.3177 31.2294 29.4212C31.1151 29.5301 30.9571 29.5845 30.7557 29.5845C30.6577 29.5845 30.5624 29.5682 30.4698 29.5355C30.3827 29.5028 30.301 29.4538 30.2248 29.3885C29.7075 28.9474 29.1222 28.6126 28.4687 28.3839C27.8153 28.1606 27.1483 28.049 26.4677 28.049C26.043 28.049 25.6319 28.0953 25.2344 28.1879C24.8369 28.2859 24.4612 28.422 24.1072 28.5962C23.7533 28.7759 23.4321 28.991 23.1435 29.2415C23.0563 29.3177 22.9611 29.3558 22.8576 29.3558C22.765 29.3558 22.6861 29.3232 22.6207 29.2578C22.5608 29.1979 22.5309 29.1162 22.5309 29.0128V16.9329C22.5309 16.824 22.5391 16.745 22.5554 16.696C22.5772 16.647 22.6262 16.5653 22.7024 16.451C23.1053 15.8738 23.6716 15.4219 24.4013 15.0952C25.1364 14.7685 25.9341 14.6051 26.7944 14.6051Z" fill="white"/>
</g>
<defs>
<filter id="filter0_d_2055_9029" x="-4" y="0" width="52" height="52" filterUnits="userSpaceOnUse" color-interpolation-filters="sRGB">
<feFlood flood-opacity="0" result="BackgroundImageFix"/>
<feColorMatrix in="SourceAlpha" type="matrix" values="0 0 0 0 0 0 0 0 0 0 0 0 0 0 0 0 0 0 127 0" result="hardAlpha"/>
<feOffset/>
<feGaussianBlur stdDeviation="3"/>
<feComposite in2="hardAlpha" operator="out"/>
<feColorMatrix type="matrix" values="0 0 0 0 0 0 0 0 0 0 0 0 0 0 0 0 0 0 0.25 0"/>
<feBlend mode="normal" in2="BackgroundImageFix" result="effect1_dropShadow_2055_9029"/>
<feBlend mode="normal" in="SourceGraphic" in2="effect1_dropShadow_2055_9029" result="shape"/>
</filter>
</defs>
</svg>
