<svg width="28" height="29" viewBox="0 0 28 29" fill="none" xmlns="http://www.w3.org/2000/svg">
<g clip-path="url(#clip0_2918_254)">
<path d="M7.13336 6.5L7.12559 6.48318C6.58661 3.74284 7.88482 1.67749 9.07291 1.51379C10.2493 1.35233 12.1876 2.60901 12.7123 5.28207C13.6257 5.26862 14.5404 5.25629 15.4538 5.24395C15.9112 2.67628 17.7277 1.43979 18.8717 1.57097C20.0364 1.7044 21.3632 3.6879 20.9084 6.37106" stroke="#80C80A" stroke-width="1.44502" stroke-linecap="round" stroke-linejoin="round"/>
<path d="M12.2483 9.5267C12.1728 9.30892 12.0049 9.11549 11.8102 8.97457C11.7603 8.9387 11.6975 8.91821 11.6322 8.90796C11.5066 8.82085 11.3439 8.78754 11.1812 8.81957C10.6355 8.92333 10.214 9.32045 10.1769 9.89052C10.1423 10.4247 10.5407 10.9179 11.0634 11.0204C11.6065 11.1267 12.1599 10.7924 12.3214 10.2633C12.4072 9.98275 12.3688 9.73295 12.2496 9.52798L12.2483 9.5267Z" fill="#80C80A"/>
<path d="M18.2231 9.5267C18.1475 9.30892 17.9797 9.11549 17.785 8.97457C17.735 8.9387 17.6722 8.91821 17.6069 8.90796C17.4814 8.82085 17.3187 8.78754 17.156 8.81957C16.6103 8.92333 16.1888 9.32045 16.1516 9.89052C16.1171 10.4247 16.5155 10.9179 17.0381 11.0204C17.5813 11.1267 18.1347 10.7924 18.2961 10.2633C18.3819 9.98275 18.3435 9.73295 18.2244 9.52798H18.2231V9.5267Z" fill="#80C80A"/>
<path d="M12.9017 7.4799C12.452 6.86884 11.1761 6.37564 10.3665 6.70615C9.81437 6.93161 9.5825 7.49527 9.8195 7.89624C10.282 8.68151 12.5046 8.78272 13.0093 8.31386C13.3116 8.03331 12.9734 7.5747 12.903 7.47862L12.9017 7.4799Z" fill="#80C80A"/>
<path d="M15.6738 7.4799C16.1235 6.86884 17.3994 6.37564 18.209 6.70615C18.7611 6.93161 18.993 7.49527 18.756 7.89624C18.2936 8.68151 16.071 8.78272 15.5662 8.31386C15.2639 8.03331 15.6021 7.5747 15.6726 7.47862L15.6738 7.4799Z" fill="#80C80A"/>
<path d="M4.11039 15.3605C4.11039 14.3031 3.16991 13.4459 2 13.42V9.38691C2 8.66272 2.74584 8.17867 3.40725 8.4736L14.5 13.42V27.881L2.59274 22.5714C2.23221 22.4107 2 22.0529 2 21.6581V17.302C3.16991 17.276 4.11039 16.4178 4.11039 15.3615V15.3605Z" fill="#80C80A"/>
<path d="M24.8907 14.8076C24.8907 13.7502 25.8312 12.8931 27.0011 12.8671V9.3527C27.0011 8.62742 26.2532 8.14337 25.5915 8.44043L14.5 13.4201V27.8812L26.4107 22.5337C26.7699 22.3724 27.0011 22.0152 27.0011 21.6214V16.7491C25.8312 16.7232 24.8907 15.8649 24.8907 14.8087V14.8076Z" fill="#80C80A"/>
</g>
<defs>
<clipPath id="clip0_2918_254">
<rect width="28" height="28" fill="white" transform="translate(0 0.5)"/>
</clipPath>
</defs>
</svg>
