<svg width="300" height="300" viewBox="0 0 300 300" fill="none" xmlns="http://www.w3.org/2000/svg">
<g opacity="0.7">
<path d="M84.849 173.442C70.1785 173.442 58.2858 158.984 58.2858 141.15C58.2858 123.315 70.1785 108.857 84.849 108.857C99.5195 108.857 111.412 123.315 111.412 141.15C111.412 158.984 99.5195 173.442 84.849 173.442Z" fill="#BDEAA0"/>
<path d="M96.6723 208.86C94.4691 206.605 92.2711 204.344 90.0679 202.089C87.9897 196.729 85.4792 188.495 84.8803 178.13C84.4011 169.859 85.2865 162.874 86.297 157.817L105.172 148.442H103.089C96.5472 150.697 90.0106 152.957 83.4688 155.213C86.1876 145.488 88.9116 135.769 91.6304 126.045C91.7398 124.832 91.8492 123.613 91.9638 122.399C88.3126 130.332 84.7813 139.014 81.5833 148.442C80.3801 151.983 79.2864 155.457 78.2811 158.859C73.7029 152.608 69.1246 146.358 64.5516 140.108C64.3797 140.457 64.2026 140.801 64.0307 141.15C68.6246 148.27 73.2185 155.384 77.8124 162.504C77.8019 165.963 77.9113 170.796 78.2863 176.567C79.2082 190.818 80.9374 196.453 77.8124 202.089C76.7707 203.969 74.7081 206.724 70.2653 208.86C72.6247 208.167 74.9842 207.469 77.3436 206.776C76.0832 207.99 74.8279 209.209 73.5675 210.422C76.0832 209.553 78.5988 208.688 81.1145 207.818C81.427 208.167 81.7448 208.511 82.0573 208.86C82.8438 211.813 83.6302 214.761 84.4167 217.714C85.3594 213.719 86.3022 209.73 87.2501 205.735C90.396 206.776 93.542 207.818 96.6879 208.86H96.6723Z" fill="#777676"/>
<path d="M82.2448 126.566C84.3282 128.477 86.4115 130.384 88.4949 132.295C88.3908 132.644 88.2866 132.988 88.1824 133.337C86.0313 131.603 83.875 129.863 81.7239 128.129C81.8958 127.608 82.0729 127.087 82.2448 126.566Z" fill="#777676"/>
<path d="M60.89 147.4C63.1348 146.681 65.3797 145.962 67.6245 145.244C67.8485 145.447 68.0673 145.655 68.2912 145.858C65.9995 146.546 63.7026 147.233 61.4108 147.921C61.2389 147.749 61.0619 147.572 60.89 147.4Z" fill="#777676"/>
<path d="M97.8702 145.316H97.3494C96.7452 147.509 96.1462 149.702 95.542 151.89C95.7087 152.145 95.8754 152.395 96.0368 152.65C96.6462 150.207 97.2608 147.759 97.8702 145.316Z" fill="#777676"/>
<path d="M75.4737 140.108L70.9632 148.988C71.1924 149.332 71.4163 149.676 71.6455 150.02C73.2706 146.718 74.8904 143.415 76.5154 140.108H75.4737Z" fill="#777676"/>
<path d="M105.339 138.545C104.571 138.545 103.949 138.312 103.949 138.025C103.949 137.737 104.571 137.504 105.339 137.504C106.107 137.504 106.73 137.737 106.73 138.025C106.73 138.312 106.107 138.545 105.339 138.545Z" fill="#89D38B"/>
<path d="M96.4847 157.817C95.7167 157.817 95.0941 157.584 95.0941 157.296C95.0941 157.008 95.7167 156.775 96.4847 156.775C97.2528 156.775 97.8754 157.008 97.8754 157.296C97.8754 157.584 97.2528 157.817 96.4847 157.817Z" fill="#89D38B"/>
<path d="M98.3911 159.379C98.0085 159.379 97.6984 159.263 97.6984 159.119C97.6984 158.975 98.0085 158.859 98.3911 158.859C98.7737 158.859 99.0838 158.975 99.0838 159.119C99.0838 159.263 98.7737 159.379 98.3911 159.379Z" fill="#89D38B"/>
<path d="M102.558 141.671C101.407 141.671 100.474 141.204 100.474 140.629C100.474 140.054 101.407 139.587 102.558 139.587C103.708 139.587 104.641 140.054 104.641 140.629C104.641 141.204 103.708 141.671 102.558 141.671Z" fill="#89D38B"/>
<path d="M68.1819 125.003C67.0313 125.003 66.0985 124.537 66.0985 123.962C66.0985 123.386 67.0313 122.92 68.1819 122.92C69.3325 122.92 70.2653 123.386 70.2653 123.962C70.2653 124.537 69.3325 125.003 68.1819 125.003Z" fill="#89D38B"/>
<path d="M84.3282 114.586C83.1775 114.586 82.2448 114.12 82.2448 113.545C82.2448 112.969 83.1775 112.503 84.3282 112.503C85.4788 112.503 86.4116 112.969 86.4116 113.545C86.4116 114.12 85.4788 114.586 84.3282 114.586Z" fill="#89D38B"/>
<path d="M93.1826 160.942C92.0319 160.942 91.0992 160.476 91.0992 159.9C91.0992 159.325 92.0319 158.859 93.1826 158.859C94.3332 158.859 95.266 159.325 95.266 159.9C95.266 160.476 94.3332 160.942 93.1826 160.942Z" fill="#89D38B"/>
<path d="M64.536 127.087C63.673 127.087 62.9734 126.737 62.9734 126.306C62.9734 125.874 63.673 125.524 64.536 125.524C65.3989 125.524 66.0985 125.874 66.0985 126.306C66.0985 126.737 65.3989 127.087 64.536 127.087Z" fill="#89D38B"/>
</g>
<path fill-rule="evenodd" clip-rule="evenodd" d="M132.998 84C128.66 84 125.143 87.5168 125.143 91.8551C125.143 96.1933 128.66 99.7101 132.998 99.7101H161.509C165.847 99.7101 169.364 96.1933 169.364 91.8551C169.364 87.5168 165.847 84 161.509 84H132.998ZM153.867 103.714C148.725 103.714 144.557 107.882 144.557 113.024C144.557 118.166 148.725 122.334 153.867 122.334H199.833C204.975 122.334 209.143 118.166 209.143 113.024C209.143 107.882 204.975 103.714 199.833 103.714H153.867Z" fill="#EAFFFF"/>
<path d="M221.143 155.143C245.286 155.143 264.857 131.35 264.857 102C264.857 72.65 245.286 48.8571 221.143 48.8571C197 48.8571 177.429 72.65 177.429 102C177.429 131.35 197 155.143 221.143 155.143Z" fill="#BDEAA0"/>
<path d="M201.686 213.429C205.311 209.717 208.929 205.997 212.554 202.286C215.974 193.466 220.106 179.914 221.091 162.857C221.88 149.246 220.423 137.751 218.76 129.429L187.697 114H191.126C201.891 117.711 212.649 121.431 223.414 125.143C218.94 109.14 214.457 93.1457 209.983 77.1429C209.803 75.1457 209.623 73.14 209.434 71.1429C215.443 84.1971 221.254 98.4857 226.517 114C228.497 119.829 230.297 125.546 231.951 131.143C239.486 120.857 247.02 110.571 254.546 100.286C254.829 100.86 255.12 101.426 255.403 102C247.843 113.717 240.283 125.426 232.723 137.143C232.74 142.834 232.56 150.789 231.943 160.286C230.426 183.737 227.58 193.011 232.723 202.286C234.437 205.38 237.831 209.914 245.143 213.429C241.26 212.289 237.377 211.14 233.494 210C235.569 211.997 237.634 214.003 239.709 216C235.569 214.569 231.429 213.146 227.289 211.714C226.774 212.289 226.251 212.854 225.737 213.429C224.443 218.289 223.149 223.14 221.854 228C220.303 221.426 218.751 214.86 217.191 208.286C212.014 210 206.837 211.714 201.66 213.429H201.686Z" fill="#777676"/>
<path d="M225.429 78C222 81.1457 218.571 84.2829 215.143 87.4286C215.314 88.0029 215.486 88.5686 215.657 89.1429C219.197 86.2886 222.746 83.4257 226.286 80.5714C226.003 79.7143 225.711 78.8572 225.429 78Z" fill="#777676"/>
<path d="M260.571 112.286C256.877 111.103 253.183 109.92 249.489 108.737C249.12 109.071 248.76 109.414 248.391 109.749C252.163 110.88 255.943 112.011 259.714 113.143C259.997 112.86 260.289 112.569 260.571 112.286Z" fill="#777676"/>
<path d="M199.714 108.857H200.571C201.566 112.466 202.551 116.074 203.546 119.674C203.271 120.094 202.997 120.506 202.731 120.926C201.729 116.906 200.717 112.877 199.714 108.857Z" fill="#777676"/>
<path d="M236.571 100.286L243.994 114.9C243.617 115.466 243.249 116.031 242.871 116.597C240.197 111.163 237.531 105.729 234.857 100.286H236.571Z" fill="#777676"/>
<path d="M187.423 97.7143C188.687 97.7143 189.711 97.3305 189.711 96.8571C189.711 96.3838 188.687 96 187.423 96C186.159 96 185.134 96.3838 185.134 96.8571C185.134 97.3305 186.159 97.7143 187.423 97.7143Z" fill="#89D38B"/>
<path d="M201.994 129.429C203.258 129.429 204.283 129.045 204.283 128.571C204.283 128.098 203.258 127.714 201.994 127.714C200.73 127.714 199.706 128.098 199.706 128.571C199.706 129.045 200.73 129.429 201.994 129.429Z" fill="#89D38B"/>
<path d="M198.857 132C199.487 132 199.997 131.808 199.997 131.571C199.997 131.335 199.487 131.143 198.857 131.143C198.227 131.143 197.717 131.335 197.717 131.571C197.717 131.808 198.227 132 198.857 132Z" fill="#89D38B"/>
<path d="M192 102.857C193.894 102.857 195.429 102.09 195.429 101.143C195.429 100.196 193.894 99.4286 192 99.4286C190.106 99.4286 188.571 100.196 188.571 101.143C188.571 102.09 190.106 102.857 192 102.857Z" fill="#89D38B"/>
<path d="M248.571 75.4286C250.465 75.4286 252 74.6611 252 73.7143C252 72.7675 250.465 72 248.571 72C246.678 72 245.143 72.7675 245.143 73.7143C245.143 74.6611 246.678 75.4286 248.571 75.4286Z" fill="#89D38B"/>
<path d="M222 58.2857C223.894 58.2857 225.429 57.5182 225.429 56.5714C225.429 55.6247 223.894 54.8571 222 54.8571C220.106 54.8571 218.571 55.6247 218.571 56.5714C218.571 57.5182 220.106 58.2857 222 58.2857Z" fill="#89D38B"/>
<path d="M207.429 134.571C209.322 134.571 210.857 133.804 210.857 132.857C210.857 131.91 209.322 131.143 207.429 131.143C205.535 131.143 204 131.91 204 132.857C204 133.804 205.535 134.571 207.429 134.571Z" fill="#89D38B"/>
<path d="M254.571 78.8571C255.992 78.8571 257.143 78.2815 257.143 77.5714C257.143 76.8614 255.992 76.2857 254.571 76.2857C253.151 76.2857 252 76.8614 252 77.5714C252 78.2815 253.151 78.8571 254.571 78.8571Z" fill="#89D38B"/>
<path d="M135.204 192.277C149.557 189.679 163.909 187.073 178.254 184.475C179.959 189.464 181.672 194.461 183.378 199.45C184.956 192.373 186.526 185.288 188.104 178.212C201.372 179.742 208.098 181.75 208.282 184.236C208.369 185.384 207.062 186.627 204.377 187.982C209.19 199.059 208.202 209.993 202.177 215.157C200.91 216.249 198.766 217.635 195.34 218.249C180.087 222.855 164.834 227.453 149.581 232.059C149.134 233.502 146.441 241.782 138.711 244.85C128.757 248.795 115.576 242.077 114.221 234.028C113.377 229.015 116.995 222.767 120.653 222.393C124.557 221.994 126.47 228.513 130.821 228.497C134.591 228.481 137.699 223.572 139.858 218.982" fill="white"/>
<path d="M135.204 192.277C149.557 189.679 163.909 187.073 178.254 184.475C179.959 189.464 181.672 194.461 183.378 199.45C184.956 192.373 186.526 185.288 188.104 178.212C201.372 179.742 208.098 181.75 208.282 184.236C208.369 185.384 207.062 186.627 204.377 187.982C209.19 199.059 208.202 209.993 202.177 215.157C200.91 216.249 198.766 217.635 195.34 218.249C180.087 222.855 164.834 227.453 149.581 232.059C149.134 233.502 146.441 241.782 138.711 244.85C128.757 248.795 115.576 242.077 114.221 234.028C113.377 229.015 116.995 222.767 120.653 222.393C124.557 221.994 126.47 228.513 130.821 228.497C134.591 228.481 137.699 223.572 139.858 218.982" stroke="#AAA59E" stroke-width="1.71429" stroke-linecap="round" stroke-linejoin="round"/>
<path d="M186.111 177.471C189.984 167.143 196.782 165.549 195.754 159.141C195.133 155.268 191.865 152.145 188.797 150.862C179.927 147.164 165.83 156.018 161.367 167.071C156.641 178.77 162.108 194.349 175.6 204.239C176.644 203.657 178.158 202.677 179.641 201.123C185.904 194.596 182.286 187.703 186.119 177.463L186.111 177.471Z" fill="white"/>
<path d="M181.401 165.477C185.346 166.226 188.414 168.043 190.558 169.709C192.558 167.127 194.216 164.983 194.519 162.433C192.072 160.337 188.518 158.042 183.856 157.03C178.477 155.866 172.843 156.679 167.718 159.134C165.065 161.708 162.873 164.76 161.55 168.019C160.945 169.509 160.514 171.063 160.259 172.665C166.26 166.872 174.054 164.074 181.409 165.469L181.401 165.477Z" fill="#F5980B"/>
<path d="M185.33 177.582C186.032 176.148 186.805 174.865 187.602 173.693C185.657 172.593 183.274 171.621 180.445 171.175C173.217 170.035 165.623 172.729 159.885 178.156C160.012 180.236 160.419 182.348 161.08 184.444C166.085 179.965 172.42 177.678 178.509 178.483C180.708 178.77 182.621 179.431 184.215 180.212C184.565 179.248 184.948 178.363 185.33 177.574V177.582Z" fill="#F5980B"/>
<path d="M183.298 183.216C182.788 183.097 182.262 182.993 181.72 182.913C175.05 181.901 168.061 184.093 162.475 188.627C163.312 190.341 164.324 192.022 165.519 193.648C169.902 190.867 174.907 189.56 179.744 190.181C180.66 190.293 181.521 190.476 182.326 190.699C182.374 187.838 182.748 185.36 183.298 183.224V183.216Z" fill="#F5980B"/>
<path d="M183.259 184.436C185.362 170.713 197.579 167.979 195.754 159.134C194.933 155.189 191.778 152.097 188.797 150.854C179.927 147.156 165.83 156.01 161.367 167.063C156.641 178.762 162.108 194.341 175.6 204.231C176.668 203.681 178.222 202.717 179.641 201.115C183.936 196.254 182.302 190.715 183.266 184.42L183.259 184.436Z" stroke="#AAA59E" stroke-width="1.71429" stroke-linecap="round" stroke-linejoin="round"/>
<path d="M145.301 218.647C151.023 222.751 156.434 223.078 157.932 221.11C159.176 219.476 158.012 215.906 155.621 212.607C160.307 213.627 164.842 210.941 165.495 206.925C166.133 203.004 162.873 199.091 158.251 198.429C161.415 198.071 164.085 196.509 164.778 194.357C165.806 191.193 162.626 186.539 156.681 185.448L156.721 185.384C161.088 174.689 158.395 165.302 154.37 163.708C150.386 162.138 142.161 167.031 137.906 177.463C134.71 176.698 131.515 175.933 128.319 175.167C129.028 164.393 124.063 156.655 119.927 156.289C115.72 155.922 109.273 162.927 108.452 174.163L107.862 174.068C102.921 172.179 98.2354 174.649 97.4066 177.845C96.8408 180.013 98.0282 182.619 100.188 184.428C96.4343 182.802 92.0672 184.603 90.569 188.261C89.0389 192.014 91.0392 196.461 95.0158 197.816C91.0233 199.999 88.5528 202.661 89.0469 203.992C89.5649 205.379 93.4857 205.793 98.5143 204.406C101.933 207.865 110.157 215.228 123.083 218.321C132.654 220.616 140.727 219.588 145.293 218.647H145.301Z" fill="white"/>
<path d="M129.69 193.871C130.04 193.305 130.638 192.859 131.284 192.58C131.451 192.508 131.642 192.492 131.833 192.508C132.24 192.341 132.726 192.349 133.164 192.54C134.647 193.178 135.587 194.572 135.332 196.206C135.093 197.744 133.65 198.892 132.104 198.852C130.503 198.812 129.14 197.513 129.012 195.911C128.949 195.066 129.212 194.381 129.682 193.871H129.69Z" fill="#71685C"/>
<path d="M112.763 190.11C113.114 189.544 113.712 189.098 114.357 188.819C114.524 188.747 114.716 188.731 114.907 188.747C115.313 188.58 115.799 188.588 116.246 188.779C117.728 189.416 118.668 190.811 118.413 192.445C118.174 193.983 116.74 195.13 115.194 195.09C113.592 195.051 112.229 193.752 112.102 192.15C112.038 191.305 112.301 190.62 112.771 190.11H112.763Z" fill="#71685C"/>
<path d="M129.53 184.284C131.188 182.834 135.117 182.244 137.205 183.687C138.623 184.675 138.926 186.42 138.001 187.408C136.192 189.345 129.833 188.229 128.701 186.579C128.024 185.599 129.267 184.507 129.53 184.276V184.284Z" fill="#F5980B"/>
<path d="M121.736 182.372C120.844 180.355 117.545 178.156 115.034 178.578C113.329 178.865 112.317 180.324 112.739 181.607C113.552 184.125 119.792 185.814 121.513 184.802C122.549 184.197 121.88 182.682 121.736 182.372Z" fill="#F5980B"/>
<path d="M132.096 201.529C131.929 203.681 129.076 204.9 126.175 204.311C123.179 203.697 120.916 201.306 121.697 199.218C120.963 201.553 117.337 202.35 114.676 201.346C112.452 200.509 110.97 198.437 111.679 196.581" stroke="#847B70" stroke-width="1.87714" stroke-linecap="round" stroke-linejoin="round"/>
<path d="M135.332 202.9C135.73 201.314 136.328 198.979 137.802 198.637C140.544 197.999 146.058 204.382 144.775 209.562C144.712 209.825 143.843 213.236 141.277 213.85C139.651 214.24 138.201 213.3 137.89 213.093C134.814 211.092 134.495 206.183 135.332 202.892V202.9Z" fill="#F5980B"/>
<path d="M108.372 194.612C108.675 193.034 109.121 190.699 107.95 189.783C105.774 188.07 98.1955 191.464 97.1755 196.62C97.1277 196.883 96.4742 200.286 98.4984 201.904C99.7814 202.932 101.471 202.693 101.837 202.645C105.416 202.143 107.743 197.903 108.372 194.62V194.612Z" fill="#F5980B"/>
<path d="M121.035 195.425C121.983 195.584 122.932 195.784 123.872 196.023C124.247 196.118 124.518 196.302 124.701 196.549C125.075 196.804 125.346 197.202 125.37 197.696C125.442 199.497 123.641 199.601 122.31 199.768C121.641 199.848 121.003 199.816 120.477 199.314C120.023 198.884 119.704 198.27 119.425 197.72C118.82 196.549 119.672 195.186 121.043 195.425H121.035Z" fill="#847B70"/>
<path d="M93.4698 206.351C94.5855 207.459 96.3227 209.02 98.6737 210.582C101.423 212.407 102.475 212.535 103.312 213.922C104.698 216.209 104.284 219.914 102.252 222.138C99.5582 225.078 95.0397 224.297 93.3821 224.01C87.1343 222.927 79.7947 217.237 79.715 209.443C79.6672 204.972 81.9942 199.067 87.0387 197.242C89.549 196.334 91.9078 196.732 93.2227 197.083" fill="white"/>
<path d="M93.4698 206.351C94.5855 207.459 96.3227 209.02 98.6737 210.582C101.423 212.407 102.475 212.535 103.312 213.922C104.698 216.209 104.284 219.914 102.252 222.138C99.5582 225.078 95.0397 224.297 93.3821 224.01C87.1343 222.927 79.7947 217.237 79.715 209.443C79.6672 204.972 81.9942 199.067 87.0387 197.242C89.549 196.334 91.9078 196.732 93.2227 197.083" stroke="#AAA59E" stroke-width="1.71429" stroke-linecap="round" stroke-linejoin="round"/>
<path d="M145.301 218.647C151.023 222.751 156.434 223.078 157.932 221.11C159.176 219.476 158.012 215.906 155.621 212.607C160.307 213.627 164.842 210.941 165.495 206.925C166.133 203.004 162.873 199.091 158.251 198.429C161.415 198.071 164.085 196.509 164.778 194.357C165.806 191.193 162.626 186.539 156.681 185.448L156.721 185.384C161.088 174.689 158.395 165.302 154.37 163.708C150.386 162.138 142.161 167.031 137.906 177.463C134.71 176.698 131.515 175.933 128.319 175.167C129.028 164.393 124.063 156.655 119.927 156.289C115.72 155.922 109.273 162.927 108.452 174.163L107.862 174.068C102.921 172.179 98.2354 174.649 97.4066 177.845C96.8408 180.013 98.0282 182.619 100.188 184.428C96.4343 182.802 92.0672 184.603 90.569 188.261C89.0389 192.014 91.0392 196.461 95.0158 197.816C91.0233 199.999 88.5528 202.661 89.0469 203.992C89.5649 205.379 93.4857 205.793 98.5143 204.406C101.933 207.865 110.157 215.228 123.083 218.321C132.654 220.616 140.727 219.588 145.293 218.647H145.301Z" stroke="#AAA59E" stroke-width="1.71429" stroke-linecap="round" stroke-linejoin="round"/>
<path d="M110.962 207.172C105.647 203.426 100.331 199.681 95.0159 195.943C93.446 196.103 91.8681 196.27 90.2982 196.429C89.1586 207.315 88.019 218.209 86.8794 229.095C92.2745 233.311 97.6617 237.518 103.057 241.734L129.809 243.392C132.423 232.785 135.037 222.178 137.651 211.571C136.535 210.814 135.428 210.049 134.312 209.291C126.526 208.582 118.74 207.881 110.962 207.172Z" fill="white"/>
<path d="M110.962 207.172C105.647 203.426 100.331 199.681 95.0159 195.943C93.446 196.103 91.8681 196.27 90.2982 196.429C89.1586 207.315 88.019 218.209 86.8794 229.095C92.2745 233.311 97.6617 237.518 103.057 241.734L129.809 243.392C132.423 232.785 135.037 222.178 137.651 211.571C136.535 210.814 135.428 210.049 134.312 209.291C126.526 208.582 118.74 207.881 110.962 207.172Z" stroke="#AAA59E" stroke-width="1.71429" stroke-linecap="round" stroke-linejoin="round"/>
<path d="M108.085 209.73L89.7562 195.409L81.1256 234.219L99.4547 248.54L129.777 250.42L138.408 211.603L108.085 209.73Z" fill="#F15A24"/>
<path d="M108.085 209.73L89.7562 195.409L81.1256 234.219L99.4547 248.54L129.777 250.42L138.408 211.603L108.085 209.73Z" stroke="#AAA59E" stroke-width="1.71429" stroke-linecap="round" stroke-linejoin="round"/>
<path d="M106.125 213.396L99.6061 242.682" stroke="#AAA59E" stroke-width="1.71429" stroke-linecap="round" stroke-linejoin="round"/>
<path d="M149.931 231.844C149.461 233.215 146.608 241.057 138.87 244.109C128.909 248.038 115.975 241.997 114.803 234.442C114.07 229.74 117.792 223.787 121.434 223.357C125.323 222.895 127.076 228.991 131.395 228.88C135.141 228.784 138.32 224.098 140.56 219.731" fill="white"/>
<path d="M149.931 231.844C149.461 233.215 146.608 241.057 138.87 244.109C128.909 248.038 115.975 241.997 114.803 234.442C114.07 229.74 117.792 223.787 121.434 223.357C125.323 222.895 127.076 228.991 131.395 228.88C135.141 228.784 138.32 224.098 140.56 219.731" stroke="#AAA59E" stroke-width="1.71429" stroke-linecap="round" stroke-linejoin="round"/>
<path d="M184.66 231.685C180.408 228.093 183.201 224.011 188.089 226.66C191.68 222.408 195.763 225.201 193.113 230.089C197.366 233.68 194.572 237.763 189.685 235.113C186.093 239.366 182.011 236.572 184.66 231.685Z" fill="#89D38B"/>
<path d="M184.66 231.685C180.408 228.093 183.201 224.011 188.089 226.66C191.68 222.408 195.763 225.201 193.113 230.089C197.366 233.68 194.572 237.763 189.685 235.113C186.093 239.366 182.011 236.572 184.66 231.685Z" fill="#89D38B"/>
<path d="M235.639 227.961C230.224 226.67 230.881 221.767 236.439 221.931C237.732 216.517 242.636 217.172 242.469 222.728C247.884 224.019 247.226 228.922 241.669 228.758C240.375 234.172 235.472 233.517 235.639 227.961Z" fill="#B4EDB5"/>
<path d="M235.639 227.961C230.224 226.67 230.881 221.767 236.439 221.931C237.732 216.517 242.636 217.172 242.469 222.728C247.884 224.019 247.226 228.922 241.669 228.758C240.375 234.172 235.472 233.517 235.639 227.961Z" fill="#B4EDB5"/>
<path d="M211.947 246.902C208.405 244.666 210.06 241.331 213.986 242.804C216.222 239.262 219.557 240.917 218.084 244.843C221.626 247.08 219.971 250.414 216.045 248.942C213.809 252.483 210.474 250.828 211.947 246.902Z" fill="#B4EDB5"/>
<path d="M211.947 246.902C208.405 244.666 210.06 241.331 213.986 242.804C216.222 239.262 219.557 240.917 218.084 244.843C221.626 247.08 219.971 250.414 216.045 248.942C213.809 252.483 210.474 250.828 211.947 246.902Z" fill="#B4EDB5"/>
<path d="M156.338 249.819C153.636 244.951 157.693 242.125 161.324 246.338C166.191 243.636 169.018 247.693 164.804 251.324C167.506 256.191 163.45 259.018 159.819 254.804C154.951 257.506 152.125 253.45 156.338 249.819Z" fill="#B4EDB5"/>
<path d="M156.338 249.819C153.636 244.951 157.693 242.125 161.324 246.338C166.191 243.636 169.018 247.693 164.804 251.324C167.506 256.191 163.45 259.018 159.819 254.804C154.951 257.506 152.125 253.45 156.338 249.819Z" fill="#B4EDB5"/>
<path d="M64.6241 224.962C61.9221 220.094 65.9784 217.268 69.6095 221.481C74.4771 218.779 77.3035 222.836 73.0901 226.467C75.7922 231.334 71.7358 234.161 68.1047 229.947C63.2371 232.649 60.4108 228.593 64.6241 224.962Z" fill="#B4EDB5"/>
<path d="M64.6241 224.962C61.9221 220.094 65.9784 217.268 69.6095 221.481C74.4771 218.779 77.3035 222.836 73.0901 226.467C75.7922 231.334 71.7358 234.161 68.1047 229.947C63.2371 232.649 60.4108 228.593 64.6241 224.962Z" fill="#B4EDB5"/>
<path fill-rule="evenodd" clip-rule="evenodd" d="M74.1522 39.4286C69.0106 39.4286 64.8425 43.5967 64.8425 48.7383C64.8425 50.68 65.437 52.483 66.4539 53.975H57.5693C53.2311 53.975 49.7143 57.4918 49.7143 61.83C49.7143 66.1683 53.2311 69.6851 57.5693 69.6851H86.0803C90.4185 69.6851 93.9353 66.1683 93.9353 61.83C93.9353 60.4589 93.584 59.1699 92.9666 58.048H120.119C125.26 58.048 129.429 53.8799 129.429 48.7383C129.429 43.5967 125.26 39.4286 120.119 39.4286H74.1522Z" fill="#EAFFFF"/>
</svg>
