<svg width="160" height="160" viewBox="0 0 160 160" fill="none" xmlns="http://www.w3.org/2000/svg">
<g clip-path="url(#clip0_1054_6194)">
<rect width="160" height="160" rx="4" fill="#C1C1C1"/>
<path d="M64.8923 160.178C49.3563 161.55 39.7801 166.578 33.8785 170.983C21.7121 180.063 18.9331 191.111 8.91631 191.781C2.68546 192.2 -3.35174 188.399 -6.45022 184.259C-15.4019 172.286 -6.76007 148.13 8.79044 137.598C25.2366 126.458 51.3946 129.207 71.6315 145.929C69.3851 150.679 67.1387 155.428 64.8972 160.178H64.8923Z" fill="#A5A5A5"/>
<path d="M13.338 169.328C15.8186 175.198 19.5854 179.319 22.8058 182.042C19.6627 186.093 17.0419 189.457 13.3477 190.846C9.3826 187.8 4.73091 183.103 1.61206 176.208C-1.99034 168.252 -2.72533 159.19 -0.849177 150.325C2.05692 145.264 5.8479 140.738 10.2385 137.5C12.25 136.02 14.4163 134.788 16.7083 133.803C10.1708 145.239 8.71048 158.397 13.3332 169.333L13.338 169.328Z" fill="white"/>
<path d="M33.1428 170.521C31.1677 172.1 29.4649 173.738 27.9422 175.376C25.5341 172.801 23.1649 169.499 21.4574 165.34C17.0887 154.708 18.519 142.146 24.8531 131.448C28.1271 130.907 31.5423 130.767 35.0255 131.032C29.8931 140.277 28.6379 150.759 32.0822 159.773C33.3277 163.035 35.0401 165.711 36.8255 167.876C35.4536 168.757 34.2325 169.654 33.1428 170.521Z" fill="white"/>
<path d="M40.7799 165.708C40.4198 164.969 40.0786 164.199 39.7611 163.399C35.8567 153.544 36.7096 142.048 41.6328 131.869C44.5326 132.537 47.4514 133.489 50.3418 134.735C47.6694 142.443 47.4562 150.571 50.1096 157.773C50.6072 159.13 51.1852 160.386 51.8107 161.545C47.4799 162.639 43.8408 164.098 40.7846 165.708H40.7799Z" fill="white"/>
<path d="M64.8923 160.178C49.3563 161.55 39.7801 166.578 33.8785 170.983C21.7121 180.063 18.9331 191.111 8.91631 191.781C2.68546 192.2 -3.35174 188.399 -6.45022 184.259C-15.4019 172.286 -6.76007 148.13 8.79044 137.598C25.2366 126.458 51.3946 129.207 71.6315 145.929C69.3851 150.679 67.1387 155.428 64.8972 160.178H64.8923Z" stroke="white" stroke-width="3.86736" stroke-linecap="round" stroke-linejoin="round"/>
<path d="M52.783 104.304C40.8474 96.1829 36.5401 87.9938 34.7949 82.0767C31.4884 70.8566 35.6458 61.9036 29.6369 56.8857C25.9919 53.8402 19.9491 53.3713 16.3428 55.7545C9.28972 60.4099 12.606 75.2895 13.8097 80.6942C14.6508 84.4648 16.5217 90.9523 21.2302 98.368C28.7715 110.25 38.8702 117.081 45.6477 120.741C44.502 142.857 43.3611 164.969 42.2154 187.085C38.0532 190.155 37.4489 192.166 37.8502 193.486C39.2424 198.054 54.5813 200.718 66.5169 197.019C70.3795 195.821 73.251 194.153 75.1653 192.833C75.7986 189.425 76.3304 185.79 76.7026 181.956C77.157 177.301 77.3455 167.985 77.3214 163.91C81.9477 163.876 86.5692 163.842 91.1955 163.809C91.3357 168.348 91.7128 178.161 92.4766 183.339C92.9793 186.747 93.5981 189.995 94.2991 193.07C97.8039 195.12 105.282 198.774 114.815 198.165C121.728 197.72 131.411 194.931 131.619 191.296C131.725 189.468 129.41 187.888 127.355 186.829C124.933 164.8 122.511 142.775 120.094 120.745C126.891 116.946 136.69 110.057 144.072 98.3728C148.882 90.7638 150.709 84.2086 151.492 80.699C152.696 75.2895 156.012 60.4147 148.959 55.7594C145.353 53.381 139.31 53.8499 135.665 56.8906C129.656 61.9085 133.819 70.8614 130.507 82.0816C128.762 87.9986 124.455 96.1878 112.519 104.309" fill="white"/>
<path d="M51.0137 106.49C43.0953 109.714 35.027 106.219 33.4704 101.588C32.3392 98.2231 34.5243 93.8965 38.9137 91.2039C32.5471 91.1749 27.4374 86.3745 27.7467 80.9602C28.0465 75.6812 33.4028 71.5383 39.5857 72.0073C35.583 70.6247 32.5761 67.8257 32.2957 64.8285C31.88 60.4197 37.3378 55.2858 45.3674 55.5855L45.3287 55.4936C42.7521 40.3336 48.9544 28.9056 54.6297 28.0016C60.2471 27.1072 69.5045 35.8523 72.0135 50.6401C76.3788 50.5676 80.7441 50.4999 85.1093 50.4274C87.2944 36.2197 95.9669 27.5907 101.434 28.3158C106.999 29.0554 113.331 40.0242 111.161 54.87L111.958 54.9135C118.915 53.8839 124.271 58.457 124.426 62.8465C124.532 65.8292 122.246 68.8699 118.925 70.5957C124.257 69.5708 129.405 73.1723 130.29 78.3546C131.194 83.6722 127.312 88.8786 121.772 89.4877C125.91 91.7453 128.322 95.8157 127.732 99.2431C126.92 103.956 120.307 108.148 113.036 105.682" fill="white"/>
<path d="M72.8879 67.7823C72.5978 66.9412 71.9501 66.1919 71.1959 65.6456C71.0026 65.5054 70.7608 65.4281 70.5095 65.3894C70.026 65.051 69.3976 64.9253 68.7692 65.0462C66.6663 65.4474 65.0372 66.9847 64.897 69.1842C64.7616 71.2484 66.2989 73.1579 68.3147 73.5544C70.4079 73.9653 72.5447 72.6745 73.1683 70.6297C73.497 69.5468 73.352 68.58 72.8927 67.7872L72.8879 67.7823Z" fill="#A5A5A5"/>
<path d="M95.9333 67.7823C95.6433 66.9412 94.9955 66.1919 94.2413 65.6456C94.048 65.5054 93.8063 65.4281 93.5549 65.3894C93.0715 65.051 92.443 64.9253 91.8146 65.0462C89.7117 65.4474 88.0826 66.9847 87.9424 69.1842C87.807 71.2484 89.3443 73.1579 91.3602 73.5544C93.4534 73.9653 95.5901 72.6745 96.2137 70.6297C96.5424 69.5468 96.3974 68.58 95.9381 67.7872L95.9333 67.7823Z" fill="#A5A5A5"/>
<path d="M75.4075 57.437C73.6721 55.073 68.7508 53.1684 65.628 54.4446C63.5009 55.3148 62.6066 57.495 63.5202 59.0468C65.3041 62.0826 73.8751 62.4742 75.8233 60.6614C76.9883 59.5785 75.6831 57.8044 75.4124 57.4321L75.4075 57.437Z" fill="#A5A5A5"/>
<path d="M87.096 57.437C88.8315 55.073 93.7527 53.1684 96.8756 54.4446C99.0027 55.3148 99.897 57.495 98.9833 59.0468C97.1995 62.0826 88.6285 62.4742 86.6803 60.6614C85.5153 59.5785 86.8205 57.8044 87.0912 57.4321L87.096 57.437Z" fill="#A5A5A5"/>
<path d="M67.5659 77.0442C67.1647 79.8867 70.5148 82.299 74.4401 82.3715C78.5008 82.444 82.1265 79.9882 81.7156 77.0442C81.996 80.288 86.4676 82.3763 90.2044 81.8397C93.3273 81.3902 95.8459 79.1278 95.4592 76.5125" stroke="#A5A5A5" stroke-width="2.90052" stroke-linecap="round" stroke-linejoin="round"/>
<path d="M62.3115 81.5064C62.2487 79.331 62.152 76.1211 60.3343 75.2461C56.9649 73.6218 47.9733 80.3316 48.1425 87.4379C48.1522 87.7956 48.2923 92.4848 51.4394 94.0269C53.4359 95.0083 55.5872 94.201 56.0512 94.0269C60.6196 92.3205 62.4469 86.0312 62.3115 81.5064Z" fill="#A5A5A5"/>
<path d="M101.932 80.5926C101.995 78.451 102.092 75.2943 103.876 74.4338C107.192 72.8385 116.039 79.4372 115.874 86.4323C115.865 86.7852 115.729 91.397 112.63 92.9149C110.668 93.8769 108.55 93.0841 108.091 92.9149C103.6 91.2326 101.802 85.0497 101.932 80.5926Z" fill="#A5A5A5"/>
<path d="M146.208 63.9339C146.895 64.7751 147.726 66.4477 147.079 67.371C146.489 68.217 144.976 67.9946 142.863 67.6901C140.78 67.3855 138.817 67.1003 138.512 65.9739C138.208 64.8476 139.75 63.581 139.996 63.378C140.315 63.1169 141.626 62.1114 143.453 62.3725C143.695 62.4063 145.15 62.6384 146.208 63.9339Z" fill="#A5A5A5"/>
<path d="M145.731 60.247C145.892 59.4488 145.232 58.6417 144.256 58.4442C143.28 58.2466 142.358 58.7335 142.196 59.5317C142.035 60.3298 142.695 61.1369 143.671 61.3344C144.647 61.532 145.569 61.0451 145.731 60.247Z" fill="#A5A5A5"/>
<path d="M139.174 62.7333C140.139 62.489 140.76 61.651 140.56 60.8616C140.36 60.0722 139.416 59.6303 138.45 59.8746C137.485 60.1189 136.864 60.9569 137.064 61.7463C137.264 62.5357 138.208 62.9776 139.174 62.7333Z" fill="#A5A5A5"/>
<path d="M150.101 63.6221C150.473 62.8977 150.056 61.9417 149.17 61.4868C148.284 61.0319 147.265 61.2504 146.893 61.9748C146.521 62.6992 146.937 63.6551 147.823 64.11C148.709 64.5649 149.729 64.3465 150.101 63.6221Z" fill="#A5A5A5"/>
<path d="M19.0982 64.4173C18.4118 65.2585 17.5803 66.9311 18.2281 67.8544C18.8178 68.7004 20.3309 68.478 22.4435 68.1735C24.527 67.8689 26.4897 67.5837 26.7943 66.4573C27.0988 65.331 25.5567 64.0644 25.3102 63.8614C24.9911 63.6003 23.681 62.5948 21.8537 62.8559C21.612 62.8897 20.1569 63.1217 19.0982 64.4173Z" fill="#A5A5A5"/>
<path d="M21.6447 61.3298C22.6208 61.1322 23.2811 60.3251 23.1196 59.527C22.9581 58.7288 22.0359 58.242 21.0598 58.4395C20.0837 58.637 19.4234 59.4441 19.5849 60.2423C19.7464 61.0404 20.6686 61.5273 21.6447 61.3298Z" fill="#A5A5A5"/>
<path d="M28.2499 61.7624C28.4497 60.973 27.829 60.135 26.8635 59.8907C25.8981 59.6464 24.9535 60.0883 24.7538 60.8777C24.554 61.6672 25.1747 62.5052 26.1402 62.7495C27.1056 62.9937 28.0501 62.5518 28.2499 61.7624Z" fill="#A5A5A5"/>
<path d="M17.4984 64.1104C18.3843 63.6555 18.8009 62.6995 18.429 61.9751C18.057 61.2507 17.0373 61.0322 16.1514 61.4871C15.2655 61.942 14.8489 62.898 15.2209 63.6224C15.5928 64.3468 16.6125 64.5653 17.4984 64.1104Z" fill="#A5A5A5"/>
<path d="M90.3688 81.8253C89.6727 90.667 85.902 96.7436 82.6341 96.8113C79.0471 96.8838 74.619 89.734 74.4402 83.3819C74.4305 83.0725 74.4353 82.7969 74.4402 82.5746C75.0928 82.6423 76.7509 82.7148 78.4815 81.7673C80.831 80.4814 81.6093 78.248 81.7736 77.7307C82.1217 78.4413 82.8275 79.6064 84.1424 80.5539C86.777 82.4537 89.7597 81.9413 90.3688 81.8253Z" fill="#A5A5A5"/>
<path d="M83.6633 72.302C82.3822 72.2392 81.1012 72.2246 79.8153 72.2585C79.3028 72.273 78.8968 72.4374 78.5874 72.6984C78.0218 72.9256 77.5577 73.3559 77.3885 73.9988C76.7746 76.3192 79.0805 76.9767 80.7628 77.5761C81.6087 77.8758 82.4451 78.016 83.2669 77.5181C83.9775 77.0879 84.5721 76.3821 85.0942 75.7536C86.2157 74.4049 85.5003 72.389 83.6633 72.302Z" fill="#A5A5A5"/>
</g>
<rect x="0.6" y="0.6" width="158.8" height="158.8" rx="3.4" stroke="#A5A5A5" stroke-width="1.2"/>
<defs>
<clipPath id="clip0_1054_6194">
<rect width="160" height="160" rx="4" fill="white"/>
</clipPath>
</defs>
</svg>
