<svg width="160" height="160" viewBox="0 0 160 160" fill="none" xmlns="http://www.w3.org/2000/svg">
<g clip-path="url(#clip0_1969_8167)">
<rect width="160" height="160" fill="#C1C1C1"/>
<g clip-path="url(#clip1_1969_8167)">
<path d="M95.7055 70.9582C116.578 67.1754 137.452 63.3926 158.324 59.6098C160.807 66.8691 163.292 74.1284 165.776 81.3861C168.065 71.09 170.356 60.7939 172.645 50.4994C191.944 52.721 201.728 55.6409 201.993 59.2606C202.115 60.9273 200.221 62.7404 196.312 64.7035C203.312 80.8097 201.871 96.7133 193.11 104.231C191.264 105.815 188.153 107.833 183.168 108.727C160.982 115.422 138.795 122.118 116.609 128.812C115.96 130.915 112.039 142.954 100.793 147.413C86.3168 153.154 67.1475 143.383 65.1729 131.668C63.9427 124.372 69.206 115.288 74.5254 114.746C80.2103 114.167 82.9902 123.648 89.3174 123.625C94.803 123.605 99.317 116.456 102.456 109.779" fill="white"/>
<path d="M168.341 49.9427C173.969 34.9185 183.861 32.6079 182.363 23.2835C181.459 17.6562 176.701 13.1059 172.238 11.2433C159.335 5.86142 138.833 18.7382 132.336 34.8246C125.462 51.8382 133.418 74.4972 153.042 88.8874C154.556 88.0377 156.761 86.6115 158.918 84.3602C168.025 74.8678 162.762 64.8401 168.341 49.9427Z" fill="white"/>
<path d="M163.533 30.4557C169.982 31.6776 175.002 34.6436 178.495 37.3675C181.765 33.1532 184.479 29.6421 184.967 25.4707C180.97 22.0469 175.163 18.292 167.538 16.6435C158.739 14.7381 149.536 16.0754 141.162 20.0871C136.826 24.2899 133.239 29.2897 131.082 34.614C130.095 37.053 129.394 39.5957 128.969 42.2126C138.772 32.7481 151.522 28.1715 163.536 30.4491L163.533 30.4557Z" fill="#A5A5A5"/>
<path d="M169.954 50.2407C171.095 47.8907 172.362 45.7992 173.669 43.8872C170.492 42.0872 166.589 40.4963 161.97 39.7717C150.16 37.9141 137.745 42.3177 128.364 51.1877C128.578 54.5917 129.232 58.0435 130.314 61.4657C138.501 54.1421 148.846 50.4071 158.798 51.7213C162.4 52.1956 165.514 53.2775 168.127 54.5522C168.702 52.9712 169.328 51.5368 169.954 50.2407Z" fill="#A5A5A5"/>
<path d="M166.629 59.4533C165.796 59.2606 164.935 59.0943 164.05 58.9592C153.15 57.3025 141.719 60.8827 132.589 68.3035C133.954 71.1031 135.611 73.8533 137.559 76.5064C144.723 71.9644 152.898 69.8301 160.816 70.8363C162.308 71.0241 163.716 71.3172 165.038 71.6811C165.116 67.0074 165.727 62.9528 166.629 59.4566V59.4516V59.4533Z" fill="#A5A5A5"/>
<path d="M110.386 109.309C118.704 115.282 126.576 115.754 128.756 112.892C130.565 110.521 128.87 105.325 125.4 100.528C132.211 102.01 138.81 98.1067 139.764 92.2603C140.694 86.5606 135.953 80.8707 129.232 79.9007C133.839 79.3787 137.715 77.1076 138.726 73.9803C140.217 69.379 135.601 62.6071 126.946 61.0196L127.009 60.9306C133.358 45.3794 129.438 31.7204 123.587 29.4082C117.795 27.1191 105.827 34.2434 99.64 49.4142C94.9909 48.2993 90.3419 47.1893 85.6928 46.0744C86.7254 30.4062 79.5023 19.1451 73.488 18.6197C67.365 18.0861 57.9961 28.2752 56.7971 44.6202L55.9342 44.4769C48.7424 41.725 41.9343 45.3284 40.7288 49.9708C39.907 53.1262 41.6313 56.9107 44.7718 59.5407C39.3158 57.1807 32.959 59.7976 30.7851 65.112C28.5586 70.5664 31.4719 77.0401 37.249 79.0065C31.4455 82.1783 27.8439 86.055 28.5652 87.9917C29.3161 90.0058 35.0159 90.6168 42.3394 88.5911C47.3113 93.619 59.274 104.332 78.0778 108.834C91.9986 112.167 103.744 110.679 110.386 109.312V109.309Z" fill="white"/>
<path d="M87.6892 73.2753C88.198 72.4469 89.0692 71.803 90.0046 71.3995C90.2451 71.2958 90.5217 71.2711 90.7984 71.2892C91.3946 71.0438 92.0961 71.0586 92.74 71.3369C94.8925 72.2641 96.2692 74.2914 95.8971 76.6694C95.5529 78.9026 93.4564 80.5725 91.2085 80.5165C88.8732 80.4572 86.8954 78.5732 86.7142 76.2446C86.6203 75.0111 87.0041 74.0164 87.6826 73.2802L87.6892 73.2769V73.2753Z" fill="#A5A5A5"/>
<path d="M63.0584 67.798C63.5673 66.9696 64.4384 66.3257 65.3722 65.9222C65.6126 65.8185 65.8893 65.7938 66.166 65.8119C66.7622 65.5665 67.4654 65.5813 68.1076 65.8596C70.2601 66.7868 71.6368 68.8141 71.2646 71.1921C70.9205 73.4253 68.8257 75.0952 66.5761 75.0392C64.2408 74.9799 62.263 73.0959 62.0818 70.7673C61.9863 69.5338 62.3716 68.5391 63.0501 67.8029L63.0567 67.7996L63.0584 67.798Z" fill="#A5A5A5"/>
<path d="M87.4485 59.3298C89.8644 57.2218 95.5757 56.3605 98.6108 58.4635C100.678 59.8963 101.117 62.4341 99.7719 63.8718C97.1451 66.6846 87.8915 65.0657 86.2397 62.6696C85.2516 61.2385 87.0664 59.6575 87.4452 59.3248L87.4485 59.3314V59.3298Z" fill="#A5A5A5"/>
<path d="M76.1143 56.5515C74.8199 53.6185 70.0128 50.4187 66.3716 51.0362C63.8914 51.4578 62.4191 53.5707 63.0285 55.4416C64.2158 59.1025 73.2834 61.5563 75.7949 60.0873C77.2968 59.2096 76.3218 57.0077 76.1209 56.5466L76.1143 56.5499V56.5515Z" fill="#A5A5A5"/>
<path d="M91.1804 84.4163C90.935 87.542 86.7833 89.3173 82.5706 88.4626C78.213 87.5749 74.921 84.0952 76.0573 81.0534C74.9885 84.4459 69.7136 85.6086 65.8468 84.1495C62.6157 82.9275 60.46 79.9171 61.4942 77.2212" stroke="#A5A5A5" stroke-width="1.97622" stroke-miterlimit="10" stroke-linecap="round"/>
<path d="M95.885 86.4073C96.468 84.1033 97.3326 80.7042 99.4817 80.2019C103.469 79.2714 111.487 88.5613 109.621 96.099C109.526 96.4778 108.264 101.445 104.536 102.341C102.169 102.912 100.061 101.54 99.6069 101.244C95.1291 98.3387 94.6663 91.1979 95.885 86.4073Z" fill="#A5A5A5"/>
<path d="M56.6737 74.3492C57.115 72.0501 57.759 68.6626 56.0578 67.3204C52.8909 64.832 41.8718 69.7643 40.3896 77.2608C40.3155 77.6396 39.3669 82.5884 42.3197 84.9434C44.1889 86.4354 46.6394 86.0929 47.1713 86.022C52.3705 85.2958 55.758 79.1316 56.6753 74.3475L56.6737 74.3492Z" fill="#A5A5A5"/>
<path d="M75.1005 75.5333C76.4839 75.7704 77.8574 76.0603 79.2242 76.4012C79.7677 76.5378 80.1629 76.8096 80.433 77.162C80.9831 77.5391 81.3783 78.1073 81.4063 78.8336C81.5117 81.4537 78.8916 81.6069 76.9516 81.8456C75.9766 81.9642 75.0495 81.9148 74.2886 81.1885C73.6315 80.5611 73.1622 79.6669 72.7538 78.8731C71.8743 77.1686 73.1177 75.1891 75.1022 75.5333H75.1005Z" fill="#A5A5A5"/>
<path d="M35.0027 91.4269C36.6315 93.0358 39.1528 95.3118 42.5766 97.5828C46.5801 100.238 48.1034 100.422 49.3221 102.436C51.3345 105.764 50.7384 111.158 47.7823 114.389C43.8661 118.667 37.2935 117.528 34.8825 117.11C25.7919 115.53 15.1219 107.253 15.0001 95.9211C14.9309 89.4243 18.3168 80.8244 25.6535 78.1714C29.3046 76.8506 32.7383 77.4352 34.6486 77.9359" fill="white"/>
<path d="M59.137 92.1022C51.3474 86.9591 43.5594 81.8144 35.7698 76.6712C33.5663 76.6268 31.3612 76.5823 29.1577 76.5378C28.415 89.0342 27.6739 101.53 26.9312 114.028C34.8657 119.73 42.7986 125.43 50.7331 131.131L88.5728 137.027C91.4153 125.077 94.2577 113.129 97.1002 101.18C95.4731 100.131 93.846 99.0832 92.2173 98.0342C81.19 96.0563 70.1643 94.0801 59.137 92.1022Z" fill="#E2E2E2"/>
<path d="M55.2884 94.6564L28.313 75.2729L19.2339 119.135L46.2093 138.519L89.0933 145.2L98.1724 101.338L55.2884 94.6564Z" fill="#A5A5A5"/>
<path d="M20.6816 119.312C29.1909 125.714 37.7002 132.116 46.2095 138.519L89.0952 145.2C92.1221 130.579 95.1473 115.959 98.1742 101.338" stroke="#DFDFDF" stroke-width="1.48217" stroke-linecap="round" stroke-linejoin="round"/>
<path d="M117.507 128.025C116.761 130.184 112.268 142.545 100.076 147.351C84.382 153.536 64.0038 144.021 62.1511 132.125C60.9983 124.718 66.8644 115.336 72.5955 114.661C78.7201 113.939 81.4885 123.537 88.2899 123.368C94.1857 123.221 99.2053 115.83 102.733 108.953" fill="white"/>
</g>
</g>
<defs>
<clipPath id="clip0_1969_8167">
<rect width="160" height="160" fill="white"/>
</clipPath>
<clipPath id="clip1_1969_8167">
<rect width="187" height="139.296" fill="white" transform="translate(15 10)"/>
</clipPath>
</defs>
</svg>
