<svg width="29" height="29" viewBox="0 0 29 29" fill="none" xmlns="http://www.w3.org/2000/svg">
<g clip-path="url(#clip0_2918_1638)">
<path fill-rule="evenodd" clip-rule="evenodd" d="M24.6667 6.6106C24.6667 5.50603 23.7712 4.6106 22.6667 4.6106H6.66666C5.56209 4.6106 4.66666 5.50603 4.66666 6.6106V24.2888C4.66666 25.3933 5.56209 26.2888 6.66666 26.2888H8.66666V19.1C8.66666 18.7686 8.93529 18.5 9.26666 18.5H13.0667C13.398 18.5 13.6667 18.7686 13.6667 19.1V26.2888H22.6667C23.7712 26.2888 24.6667 25.3933 24.6667 24.2888V6.6106ZM21.0667 18.5H18.2667C17.9353 18.5 17.6667 18.7686 17.6667 19.1V21.9C17.6667 22.2314 17.9353 22.5 18.2667 22.5H21.0667C21.398 22.5 21.6667 22.2314 21.6667 21.9V19.1C21.6667 18.7686 21.398 18.5 21.0667 18.5Z" fill="#F5980B"/>
<path d="M25.9544 4.06502C25.7506 3.15048 24.9392 2.5 24.0023 2.5H5.33103C4.39407 2.5 3.58269 3.15048 3.37891 4.06502L1.71453 11.5345C1.68271 11.6773 1.66426 11.8235 1.67391 11.9695C1.78653 13.6721 3.19558 15.0185 4.91666 15.0185C6.71129 15.0185 8.16666 13.5546 8.16666 11.7494C8.16666 13.5546 9.62202 15.0185 11.4167 15.0185C13.2113 15.0185 14.6667 13.5546 14.6667 11.7494C14.6667 13.5546 16.122 15.0185 17.9167 15.0185C19.7113 15.0185 21.1667 13.5546 21.1667 11.7494C21.1667 13.5546 22.622 15.0185 24.4167 15.0185C26.1377 15.0185 27.5468 13.6721 27.6594 11.9695C27.6691 11.8235 27.6506 11.6773 27.6188 11.5345L25.9544 4.06502Z" fill="#F5980B" stroke="#F5980B"/>
<path d="M25.9544 4.06502C25.7506 3.15048 24.9392 2.5 24.0023 2.5H5.33103C4.39407 2.5 3.58269 3.15048 3.37891 4.06502L1.71453 11.5345C1.68271 11.6773 1.66426 11.8235 1.67391 11.9695C1.78653 13.6721 3.19558 15.0185 4.91666 15.0185C6.71129 15.0185 8.16666 13.5546 8.16666 11.7494C8.16666 13.5546 9.62202 15.0185 11.4167 15.0185C13.2113 15.0185 14.6667 13.5546 14.6667 11.7494C14.6667 13.5546 16.122 15.0185 17.9167 15.0185C19.7113 15.0185 21.1667 13.5546 21.1667 11.7494C21.1667 13.5546 22.622 15.0185 24.4167 15.0185C26.1377 15.0185 27.5468 13.6721 27.6594 11.9695C27.6691 11.8235 27.6506 11.6773 27.6188 11.5345L25.9544 4.06502Z" stroke="white"/>
<path d="M8.08224 12.1734L8.62097 2.5" stroke="white" stroke-linejoin="round"/>
<path d="M21.2511 12.1734L20.7123 2.5" stroke="white" stroke-linejoin="round"/>
<path d="M14.6667 12.7424V2.5" stroke="white" stroke-width="0.981819" stroke-linejoin="round"/>
</g>
<defs>
<clipPath id="clip0_2918_1638">
<rect width="28" height="28" fill="white" transform="translate(0.666656 0.5)"/>
</clipPath>
</defs>
</svg>
