<svg width="303" height="107" viewBox="0 0 303 107" fill="none" xmlns="http://www.w3.org/2000/svg">
<g filter="url(#filter0_d_124_1226)">
<rect x="15" y="22" width="273" height="66" rx="4" fill="#F5F4F3"/>
<path d="M27.56 44.904H32.572V43.392H28.974V39.276H37.248V40.13H30.01V42.538H37.36V43.392H33.622V44.904H38.634V45.744H27.56V44.904ZM28.792 47.844V46.99H37.276V51.134H36.226V47.844H28.792ZM48.7563 38.772H49.8203V45.492H48.7563V38.772ZM40.3983 40.228V39.374H45.9423V42.65H41.4483V44.358C43.6323 44.358 45.2703 44.288 47.2303 43.966L47.3563 44.834C45.3263 45.17 43.6603 45.226 41.4063 45.226H40.4263V41.824H44.9203V40.228H40.3983ZM41.9243 50.854V46.122H42.9603V47.606H48.7843V46.122H49.8203V50.854H41.9243ZM42.9603 49.986H48.7843V48.446H42.9603V49.986ZM61.3632 42.972H64.2612V38.758H65.2972V51.036H64.2612V43.826H61.3632V42.972ZM55.2592 47.578C57.0092 46.696 58.4512 44.344 58.4512 42.076V39.836H59.5012V42.076C59.5012 44.288 60.9292 46.528 62.6792 47.354L62.0632 48.208C60.6772 47.494 59.5292 46.01 58.9832 44.26C58.4512 46.108 57.2892 47.676 55.9172 48.418L55.2592 47.578ZM74.0055 41.866H76.4835V38.772H77.5335V45.94H76.4835V42.734H74.0055V41.866ZM67.5375 44.988C69.3295 44.344 70.6315 42.72 70.6315 40.956V40.438H67.8735V39.57H74.4115V40.438H71.6815V40.942C71.6815 42.538 72.9275 44.078 74.6915 44.694L74.1455 45.534C72.7735 45.03 71.7095 43.98 71.1915 42.706C70.6735 44.134 69.5255 45.268 68.0835 45.828L67.5375 44.988ZM69.6095 50.854V46.556H77.5335V50.854H69.6095ZM70.6455 50H76.5115V47.396H70.6455V50ZM79.7319 45.24H90.7919V46.094H79.7319V45.24ZM80.9639 41.628C80.9639 40.102 82.6439 39.192 85.2619 39.192C87.8799 39.192 89.5599 40.102 89.5599 41.628C89.5599 43.154 87.8799 44.064 85.2619 44.064C82.6439 44.064 80.9639 43.154 80.9639 41.628ZM81.1739 50.756V47.2H82.2239V49.888H89.5739V50.756H81.1739ZM82.0419 41.628C82.0419 42.608 83.3159 43.21 85.2619 43.21C87.2219 43.21 88.4819 42.608 88.4819 41.628C88.4819 40.648 87.2219 40.06 85.2619 40.06C83.3159 40.06 82.0419 40.648 82.0419 41.628ZM104.561 38.772H105.569V51.022H104.561V44.582H102.769V50.378H101.789V39.052H102.769V43.7H104.561V38.772ZM95.6568 47.97V40.27H100.193V41.138H96.6928V47.088C98.3728 47.088 99.5488 47.018 100.879 46.738L101.005 47.606C99.5348 47.914 98.3028 47.97 96.4408 47.97H95.6568ZM108.859 39.584H116.979V40.508C116.979 41.614 116.979 43 116.601 44.946H118.505V45.8H115.551V51.036H114.515V45.8H111.379V51.036H110.329V45.8H107.431V44.946H115.537C115.943 43.014 115.943 41.614 115.943 40.508V40.452H108.859V39.584ZM119.667 48.558H124.679V45.534H120.983V39.794H129.411V45.534H125.715V48.558H130.769V49.426H119.667V48.558ZM122.005 44.694H128.389V40.634H122.005V44.694ZM135.368 40.032H141.962V40.914H139.218V42.566C139.218 44.512 140.646 46.696 142.396 47.522L141.794 48.362C140.422 47.676 139.26 46.22 138.714 44.582C138.154 46.36 136.922 47.942 135.564 48.656L134.948 47.83C136.656 46.976 138.196 44.652 138.196 42.566V40.914H135.368V40.032ZM143.474 51.022V38.772H144.524V43.756H146.554V44.638H144.524V51.022H143.474ZM148.851 39.262H149.887V40.83H155.935V39.262H156.985V44.148H153.415V45.492H158.427V46.346H147.367V45.492H152.379V44.148H148.851V39.262ZM148.809 50.756V47.368H149.859V49.888H157.209V50.756H148.809ZM149.887 43.308H155.935V41.67H149.887V43.308ZM161.171 48.936L160.401 51.526H159.659L160.079 48.936H161.171ZM168.086 39.43H176.304V40.466C176.304 41.642 176.304 42.972 175.968 44.82H177.76V45.688H166.658V44.82H174.918C175.072 44.022 175.17 43.308 175.212 42.664L167.932 43L167.778 42.132L175.268 41.894C175.282 41.376 175.282 40.914 175.282 40.466V40.298H168.086V39.43ZM168.086 50.756V46.934H169.122V49.888H176.57V50.756H168.086ZM182.121 45.758H193.223V46.64H190.283V51.022H189.219V46.64H186.083V51.022H185.005V46.64H182.121V45.758ZM183.367 41.936C183.367 40.298 185.089 39.29 187.637 39.29C190.199 39.29 191.907 40.298 191.907 41.936C191.907 43.574 190.199 44.596 187.637 44.596C185.089 44.596 183.367 43.574 183.367 41.936ZM184.445 41.936C184.445 43.042 185.733 43.742 187.637 43.742C189.541 43.742 190.843 43.042 190.843 41.936C190.843 40.844 189.541 40.13 187.637 40.13C185.733 40.13 184.445 40.844 184.445 41.936ZM194.357 45.282H199.355V44.036H195.827V39.136H204.045V39.976H196.877V41.138H203.723V41.95H196.877V43.21H204.115V44.036H200.405V45.282H205.417V46.136H194.357V45.282ZM195.701 49.048C195.701 47.76 197.213 47.102 199.887 47.102C202.547 47.102 204.073 47.76 204.073 49.048C204.073 50.322 202.547 50.994 199.887 50.994C197.213 50.994 195.701 50.322 195.701 49.048ZM196.751 49.048C196.751 49.804 197.885 50.196 199.887 50.196C201.875 50.196 203.023 49.804 203.023 49.048C203.023 48.306 201.875 47.886 199.887 47.886C197.885 47.886 196.751 48.306 196.751 49.048ZM207.139 39.71H212.739V44.946H207.139V39.71ZM208.161 44.106H211.717V40.55H208.161V44.106ZM208.189 48.726C208.189 47.284 209.715 46.444 212.207 46.444C214.685 46.444 216.225 47.284 216.225 48.726C216.225 50.168 214.685 51.008 212.207 51.008C209.715 51.008 208.189 50.168 208.189 48.726ZM209.211 48.726C209.211 49.622 210.359 50.168 212.207 50.168C214.041 50.168 215.175 49.622 215.175 48.726C215.175 47.83 214.041 47.298 212.207 47.298C210.359 47.298 209.211 47.83 209.211 48.726ZM215.049 46.01V38.772H216.099V41.852H217.919V42.734H216.099V46.01H215.049ZM228.21 38.772H229.218V51.022H228.21V38.772ZM218.984 44.05C218.984 41.446 220.006 39.808 221.574 39.808C223.072 39.808 224.052 41.236 224.178 43.56H225.788V39.052H226.782V50.392H225.788V44.428H224.178C224.094 46.822 223.086 48.306 221.574 48.306C220.006 48.306 218.984 46.668 218.984 44.05ZM219.95 44.05C219.95 46.052 220.58 47.326 221.574 47.326C222.596 47.326 223.226 46.052 223.226 44.05C223.226 42.048 222.596 40.788 221.574 40.788C220.58 40.788 219.95 42.048 219.95 44.05ZM31.522 60.668C33.426 60.668 34.784 61.844 34.784 63.538C34.784 65.246 33.426 66.408 31.522 66.408C29.604 66.408 28.246 65.246 28.246 63.538C28.246 61.844 29.604 60.668 31.522 60.668ZM27.616 68.438C29.856 68.438 32.964 68.438 35.638 68.018L35.722 68.788C32.964 69.32 29.954 69.334 27.756 69.334L27.616 68.438ZM29.268 63.538C29.268 64.686 30.22 65.498 31.522 65.498C32.81 65.498 33.762 64.686 33.762 63.538C33.762 62.376 32.81 61.578 31.522 61.578C30.22 61.578 29.268 62.376 29.268 63.538ZM36.45 72.036V59.758H37.5V72.036H36.45ZM40.1743 61.032H47.0203V61.914H44.1083V63.566C44.1083 65.652 45.6483 67.752 47.4123 68.522L46.8103 69.362C45.4103 68.704 44.1643 67.276 43.5903 65.582C43.0303 67.388 41.7983 68.956 40.3983 69.656L39.7963 68.83C41.5183 67.99 43.0583 65.68 43.0583 63.566V61.914H40.1743V61.032ZM48.7283 72.022V59.772H49.7783V72.022H48.7283ZM60.3907 59.772H61.4407V64.84H63.4707V65.722H61.4407V72.022H60.3907V59.772ZM51.9627 62.614V61.746H55.0987V59.912H56.1627V61.746H59.2147V62.614H51.9627ZM52.6767 66.464C52.6767 64.812 53.9367 63.664 55.6447 63.664C57.3667 63.664 58.6127 64.812 58.6127 66.464C58.6127 68.116 57.3667 69.264 55.6447 69.264C53.9367 69.264 52.6767 68.116 52.6767 66.464ZM53.6847 66.464C53.6847 67.584 54.4967 68.382 55.6447 68.382C56.7787 68.382 57.6047 67.584 57.6047 66.464C57.6047 65.344 56.7787 64.532 55.6447 64.532C54.4967 64.532 53.6847 65.344 53.6847 66.464ZM64.647 61.032H71.493V61.914H68.581V63.566C68.581 65.652 70.121 67.752 71.885 68.522L71.283 69.362C69.883 68.704 68.637 67.276 68.063 65.582C67.503 67.388 66.271 68.956 64.871 69.656L64.269 68.83C65.991 67.99 67.531 65.68 67.531 63.566V61.914H64.647V61.032ZM73.201 72.022V59.772H74.251V72.022H73.201ZM83.1199 60.472C84.9539 60.472 86.2839 61.648 86.2839 63.3C86.2839 64.966 84.9539 66.128 83.1199 66.128C81.3279 66.128 79.9839 64.966 79.9839 63.3C79.9839 61.648 81.3279 60.472 83.1199 60.472ZM81.0059 63.3C81.0059 64.448 81.9159 65.26 83.1199 65.26C84.3519 65.26 85.2619 64.448 85.2619 63.3C85.2619 62.166 84.3519 61.354 83.1199 61.354C81.9159 61.354 81.0059 62.166 81.0059 63.3ZM81.0339 71.7V67.234H82.0559V70.818C82.7559 70.79 83.7079 70.692 84.5759 70.398L84.7579 71.252C83.5679 71.644 82.4059 71.7 81.6219 71.7H81.0339ZM84.3099 68.088V67.304H86.8719V66.184H87.9079V67.304H90.4559V68.088H84.3099ZM85.1359 70.272C85.1359 69.222 86.0599 68.55 87.3899 68.55C88.7059 68.55 89.6439 69.222 89.6439 70.272C89.6439 71.322 88.7059 71.994 87.3899 71.994C86.0599 71.994 85.1359 71.322 85.1359 70.272ZM86.0739 70.272C86.0739 70.86 86.6059 71.252 87.3899 71.252C88.1599 71.252 88.7059 70.86 88.7059 70.272C88.7059 69.684 88.1599 69.292 87.3899 69.292C86.6059 69.292 86.0739 69.684 86.0739 70.272ZM88.1739 65.876V59.772H89.2239V62.544H91.0579V63.426H89.2239V65.876H88.1739ZM93.1442 61.018H101.684V62.236C101.684 63.748 101.684 65.414 101.25 67.878L100.186 67.752C100.634 65.414 100.634 63.706 100.634 62.236V61.886H93.1442V61.018ZM91.9682 70.272V69.39H96.3222V64.994H97.3582V69.39H103.042V70.272H91.9682ZM107.431 65.764H110.623C111.141 63.846 111.239 62.404 111.253 61.508H108.327V60.64H112.275V61.018C112.275 61.774 112.275 63.412 111.701 65.764H115.733C116.167 63.832 116.223 62.418 116.223 61.508H113.185V60.64H117.245V61.172C117.245 62.026 117.245 63.552 116.783 65.764H118.491V66.632H113.479V72.036H112.443V66.632H107.431V65.764ZM120.157 60.976H125.701V62.726H128.683V59.758H129.719V72.036H128.683V66.968H125.701V68.914H120.157V60.976ZM121.193 68.074H124.665V61.83H121.193V68.074ZM125.701 66.1H128.683V63.594H125.701V66.1ZM132.366 60.794H139.072V61.662H136.258V62.39C136.258 64.07 137.588 65.554 139.38 66.156L138.834 66.982C137.42 66.492 136.286 65.47 135.754 64.154C135.222 65.568 134.088 66.688 132.618 67.22L132.072 66.394C133.892 65.736 135.194 64.154 135.194 62.39V61.662H132.366V60.794ZM134.088 71.742V67.906H135.124V70.874H142.306V71.742H134.088ZM140.864 68.76V59.786H141.928V68.76H140.864ZM147.661 60.64H154.213V61.508H151.469V62.04C151.469 63.692 152.687 65.176 154.465 65.792L153.919 66.632C152.547 66.142 151.483 65.12 150.965 63.846C150.447 65.246 149.327 66.338 147.899 66.87L147.325 66.044C149.159 65.4 150.433 63.818 150.433 62.054V61.508H147.661V60.64ZM148.935 68.676V67.822H156.859V72.022H155.809V68.676H148.935ZM155.809 67.136V59.772H156.859V63.034H158.693V63.916H156.859V67.136H155.809ZM159.603 66.24H170.663V67.094H159.603V66.24ZM160.835 62.628C160.835 61.102 162.515 60.192 165.133 60.192C167.751 60.192 169.431 61.102 169.431 62.628C169.431 64.154 167.751 65.064 165.133 65.064C162.515 65.064 160.835 64.154 160.835 62.628ZM161.045 71.756V68.2H162.095V70.888H169.445V71.756H161.045ZM161.913 62.628C161.913 63.608 163.187 64.21 165.133 64.21C167.093 64.21 168.353 63.608 168.353 62.628C168.353 61.648 167.093 61.06 165.133 61.06C163.187 61.06 161.913 61.648 161.913 62.628ZM181.17 63.972H184.068V59.758H185.104V72.036H184.068V64.826H181.17V63.972ZM175.066 68.578C176.816 67.696 178.258 65.344 178.258 63.076V60.836H179.308V63.076C179.308 65.288 180.736 67.528 182.486 68.354L181.87 69.208C180.484 68.494 179.336 67.01 178.79 65.26C178.258 67.108 177.096 68.676 175.724 69.418L175.066 68.578ZM193.812 62.866H196.29V59.772H197.34V66.94H196.29V63.734H193.812V62.866ZM187.344 65.988C189.136 65.344 190.438 63.72 190.438 61.956V61.438H187.68V60.57H194.218V61.438H191.488V61.942C191.488 63.538 192.734 65.078 194.498 65.694L193.952 66.534C192.58 66.03 191.516 64.98 190.998 63.706C190.48 65.134 189.332 66.268 187.89 66.828L187.344 65.988ZM189.416 71.854V67.556H197.34V71.854H189.416ZM190.452 71H196.318V68.396H190.452V71ZM205.069 59.996C207.757 59.996 209.367 60.738 209.367 62.11C209.367 63.482 207.757 64.238 205.069 64.238C202.381 64.238 200.771 63.482 200.771 62.11C200.771 60.738 202.381 59.996 205.069 59.996ZM199.539 65.946V65.092H210.599V65.946H199.539ZM200.883 67.836V67.024H209.171V69.74H201.947V71.056H209.549V71.882H200.925V68.97H208.149V67.836H200.883ZM201.849 62.11C201.849 62.964 203.053 63.44 205.069 63.44C207.085 63.44 208.289 62.964 208.289 62.11C208.289 61.27 207.085 60.78 205.069 60.78C203.053 60.78 201.849 61.27 201.849 62.11ZM218.963 60.668C220.867 60.668 222.225 61.844 222.225 63.538C222.225 65.246 220.867 66.408 218.963 66.408C217.045 66.408 215.687 65.246 215.687 63.538C215.687 61.844 217.045 60.668 218.963 60.668ZM215.057 68.438C217.297 68.438 220.405 68.438 223.079 68.018L223.163 68.788C220.405 69.32 217.395 69.334 215.197 69.334L215.057 68.438ZM216.709 63.538C216.709 64.686 217.661 65.498 218.963 65.498C220.251 65.498 221.203 64.686 221.203 63.538C221.203 62.376 220.251 61.578 218.963 61.578C217.661 61.578 216.709 62.376 216.709 63.538ZM223.891 72.036V59.758H224.941V72.036H223.891ZM227.938 60.976H233.538V68.928H227.938V60.976ZM228.974 68.074H232.53V61.83H228.974V68.074ZM236.184 72.036V59.758H237.234V72.036H236.184ZM239.446 61.9H241.98V60.122H243.016V61.9H245.536V62.754H239.446V61.9ZM239.88 66.38C239.88 64.756 240.972 63.608 242.498 63.608C244.024 63.608 245.13 64.756 245.13 66.38C245.13 68.032 244.024 69.166 242.498 69.166C240.972 69.166 239.88 68.032 239.88 66.38ZM240.818 66.38C240.818 67.486 241.518 68.27 242.498 68.27C243.478 68.27 244.192 67.486 244.192 66.38C244.192 65.288 243.478 64.49 242.498 64.49C241.518 64.49 240.818 65.288 240.818 66.38ZM246.18 71.406V60.066H247.174V64.952H248.812V59.772H249.806V72.022H248.812V65.82H247.174V71.406H246.18ZM251.71 69.558H254.468V66.212C253.432 65.68 252.802 64.798 252.802 63.692C252.802 61.788 254.664 60.556 257.24 60.556C259.844 60.556 261.678 61.788 261.678 63.692C261.678 64.784 261.062 65.652 260.054 66.198V69.558H262.812V70.426H251.71V69.558ZM253.824 63.692C253.824 65.078 255.252 65.988 257.24 65.988C259.228 65.988 260.67 65.078 260.67 63.692C260.67 62.306 259.228 61.396 257.24 61.396C255.252 61.396 253.824 62.306 253.824 63.692ZM255.504 69.558H259.004V66.604C258.472 66.744 257.884 66.814 257.24 66.814C256.61 66.814 256.036 66.744 255.504 66.604V69.558ZM268.615 62.936C268.979 62.936 269.231 63.188 269.231 63.552C269.231 63.916 268.979 64.182 268.615 64.182C268.251 64.182 267.985 63.916 267.985 63.552C267.985 63.188 268.251 62.936 268.615 62.936ZM267.985 68.27C267.985 67.906 268.251 67.654 268.615 67.654C268.979 67.654 269.231 67.906 269.231 68.27C269.231 68.634 268.979 68.9 268.615 68.9C268.251 68.9 267.985 68.634 267.985 68.27ZM274.316 65.946C274.316 67.724 273.616 70.062 272.636 71.63H271.502C272.608 70.104 273.392 67.752 273.392 65.946C273.392 64.14 272.608 61.788 271.502 60.262H272.636C273.616 61.83 274.316 64.168 274.316 65.946Z" fill="black"/>
<path d="M273.092 11.9655C273.45 11.1913 274.55 11.1913 274.908 11.9655L280.273 23.5807C280.579 24.2433 280.095 25 279.365 25H268.635C267.905 25 267.421 24.2433 267.727 23.5807L273.092 11.9655Z" fill="#F5F4F3"/>
</g>
<defs>
<filter id="filter0_d_124_1226" x="0" y="0.384888" width="303" height="106.615" filterUnits="userSpaceOnUse" color-interpolation-filters="sRGB">
<feFlood flood-opacity="0" result="BackgroundImageFix"/>
<feColorMatrix in="SourceAlpha" type="matrix" values="0 0 0 0 0 0 0 0 0 0 0 0 0 0 0 0 0 0 127 0" result="hardAlpha"/>
<feOffset dy="4"/>
<feGaussianBlur stdDeviation="7.5"/>
<feComposite in2="hardAlpha" operator="out"/>
<feColorMatrix type="matrix" values="0 0 0 0 0 0 0 0 0 0 0 0 0 0 0 0 0 0 0.25 0"/>
<feBlend mode="normal" in2="BackgroundImageFix" result="effect1_dropShadow_124_1226"/>
<feBlend mode="normal" in="SourceGraphic" in2="effect1_dropShadow_124_1226" result="shape"/>
</filter>
</defs>
</svg>
