<svg width="44" height="52" viewBox="0 0 44 52" fill="none" xmlns="http://www.w3.org/2000/svg">
<g filter="url(#filter0_d_2055_9047)">
<path d="M37.4 22.4016C37.4 28.7352 33.8869 34.4961 30.1153 38.7127C28.2363 40.8133 26.312 42.5092 24.7706 43.6764C23.9993 44.2604 23.3308 44.7068 22.8175 45.004C22.5601 45.153 22.3506 45.2594 22.1923 45.3266C22.0905 45.3699 22.0308 45.3877 22.0044 45.395C21.9797 45.3873 21.9226 45.3684 21.8249 45.3233C21.6674 45.2505 21.4581 45.1351 21.2002 44.9737C20.6862 44.6519 20.0167 44.1707 19.244 43.5472C17.7 42.3012 15.7725 40.51 13.8904 38.3441C10.1065 33.9898 6.6 28.2299 6.6 22.4016C6.6 13.6605 13.5087 6.6 22 6.6C30.4913 6.6 37.4 13.6605 37.4 22.4016Z" fill="#F5980B" stroke="#EE7505" stroke-width="1.2"/>
<path d="M13.2362 30.8587C12.9095 30.8587 12.659 30.7715 12.4847 30.5973C12.3159 30.4231 12.2315 30.1753 12.2315 29.854V16.059C12.2315 15.7377 12.3159 15.4899 12.4847 15.3157C12.659 15.136 12.9095 15.0462 13.2362 15.0462H14.7798C15.1065 15.0462 15.3543 15.136 15.5231 15.3157C15.6973 15.4899 15.7845 15.7377 15.7845 16.059V29.854C15.7845 30.1753 15.6973 30.4231 15.5231 30.5973C15.3543 30.7715 15.1065 30.8587 14.7798 30.8587H13.2362ZM17.7447 30.8587C17.418 30.8587 17.1675 30.7715 16.9933 30.5973C16.819 30.4231 16.7319 30.1753 16.7319 29.854V18.8441C16.7319 18.5283 16.819 18.2833 16.9933 18.109C17.1675 17.9293 17.418 17.8395 17.7447 17.8395H21.0526C21.3793 17.8395 21.627 17.9293 21.7958 18.109C21.9701 18.2833 22.0572 18.5283 22.0572 18.8441V29.854C22.0572 30.1753 21.9701 30.4231 21.7958 30.5973C21.627 30.7715 21.3793 30.8587 21.0526 30.8587H17.7447ZM18.5206 20.7553H20.293C20.4345 20.7553 20.5516 20.7063 20.6442 20.6083C20.7422 20.5103 20.7912 20.3905 20.7912 20.2489C20.7912 20.1074 20.7422 19.9903 20.6442 19.8977C20.5516 19.7997 20.4345 19.7507 20.293 19.7507H18.5206C18.3736 19.7507 18.2511 19.7997 18.1531 19.8977C18.055 19.9903 18.006 20.1074 18.006 20.2489C18.006 20.3905 18.055 20.5103 18.1531 20.6083C18.2511 20.7063 18.3736 20.7553 18.5206 20.7553ZM18.5206 28.9556H20.293C20.4345 28.9556 20.5516 28.9066 20.6442 28.8086C20.7422 28.7106 20.7912 28.5908 20.7912 28.4492C20.7912 28.3076 20.7422 28.1879 20.6442 28.0898C20.5516 27.9973 20.4345 27.951 20.293 27.951H18.5206C18.3736 27.951 18.2511 27.9973 18.1531 28.0898C18.055 28.1879 18.006 28.3076 18.006 28.4492C18.006 28.5908 18.055 28.7106 18.1531 28.8086C18.2511 28.9066 18.3736 28.9556 18.5206 28.9556ZM24.0174 30.8587C23.6907 30.8587 23.4402 30.7715 23.266 30.5973C23.0972 30.4231 23.0128 30.1753 23.0128 29.854V13.7965C23.0128 13.4753 23.0972 13.2275 23.266 13.0533C23.4402 12.8736 23.6907 12.7837 24.0174 12.7837H26.0348C26.3615 12.7837 26.6093 12.8736 26.7781 13.0533C26.9523 13.2275 27.0394 13.4753 27.0394 13.7965V29.854C27.0394 30.1753 26.9523 30.4231 26.7781 30.5973C26.6093 30.7715 26.3615 30.8587 26.0348 30.8587H24.0174ZM29.5714 30.8995C29.2501 30.9431 28.9942 30.8859 28.8036 30.728C28.6185 30.5701 28.5069 30.3305 28.4687 30.0092L26.9006 16.4592C26.8679 16.1434 26.9251 15.8902 27.0721 15.6996C27.2245 15.509 27.4614 15.3919 27.7827 15.3484L29.0895 15.1605C29.4162 15.117 29.6721 15.1741 29.8572 15.332C30.0478 15.4899 30.1622 15.7268 30.2003 16.0426L31.7603 29.5927C31.7984 29.9139 31.7412 30.1699 31.5888 30.3604C31.4418 30.551 31.2076 30.6681 30.8864 30.7116L29.5714 30.8995Z" fill="white"/>
</g>
<defs>
<filter id="filter0_d_2055_9047" x="-4" y="0" width="52" height="52" filterUnits="userSpaceOnUse" color-interpolation-filters="sRGB">
<feFlood flood-opacity="0" result="BackgroundImageFix"/>
<feColorMatrix in="SourceAlpha" type="matrix" values="0 0 0 0 0 0 0 0 0 0 0 0 0 0 0 0 0 0 127 0" result="hardAlpha"/>
<feOffset/>
<feGaussianBlur stdDeviation="3"/>
<feComposite in2="hardAlpha" operator="out"/>
<feColorMatrix type="matrix" values="0 0 0 0 0 0 0 0 0 0 0 0 0 0 0 0 0 0 0.25 0"/>
<feBlend mode="normal" in2="BackgroundImageFix" result="effect1_dropShadow_2055_9047"/>
<feBlend mode="normal" in="SourceGraphic" in2="effect1_dropShadow_2055_9047" result="shape"/>
</filter>
</defs>
</svg>
