<svg width="44" height="52" viewBox="0 0 44 52" fill="none" xmlns="http://www.w3.org/2000/svg">
<g filter="url(#filter0_d_2477_13526)">
<path d="M37.4 22.4016C37.4 28.7352 33.8869 34.4961 30.1153 38.7127C28.2363 40.8133 26.312 42.5092 24.7706 43.6764C23.9993 44.2604 23.3308 44.7068 22.8175 45.004C22.5601 45.153 22.3506 45.2594 22.1923 45.3266C22.0905 45.3699 22.0308 45.3877 22.0044 45.395C21.9797 45.3873 21.9226 45.3684 21.8249 45.3233C21.6674 45.2505 21.4581 45.1351 21.2002 44.9737C20.6862 44.6519 20.0167 44.1707 19.244 43.5472C17.7 42.3012 15.7725 40.51 13.8904 38.3441C10.1065 33.9898 6.6 28.2299 6.6 22.4016C6.6 13.6605 13.5087 6.6 22 6.6C30.4913 6.6 37.4 13.6605 37.4 22.4016Z" fill="#F5980B" stroke="#EE7505" stroke-width="1.2"/>
<circle cx="22" cy="22" r="7" fill="white"/>
</g>
<defs>
<filter id="filter0_d_2477_13526" x="-4" y="0" width="52" height="52" filterUnits="userSpaceOnUse" color-interpolation-filters="sRGB">
<feFlood flood-opacity="0" result="BackgroundImageFix"/>
<feColorMatrix in="SourceAlpha" type="matrix" values="0 0 0 0 0 0 0 0 0 0 0 0 0 0 0 0 0 0 127 0" result="hardAlpha"/>
<feOffset/>
<feGaussianBlur stdDeviation="3"/>
<feComposite in2="hardAlpha" operator="out"/>
<feColorMatrix type="matrix" values="0 0 0 0 0 0 0 0 0 0 0 0 0 0 0 0 0 0 0.25 0"/>
<feBlend mode="normal" in2="BackgroundImageFix" result="effect1_dropShadow_2477_13526"/>
<feBlend mode="normal" in="SourceGraphic" in2="effect1_dropShadow_2477_13526" result="shape"/>
</filter>
</defs>
</svg>
