<svg width="356" height="156" viewBox="0 0 356 156" fill="none" xmlns="http://www.w3.org/2000/svg">
<g filter="url(#filter0_d_1639_7400)">
<path d="M167.177 62.6638C167.177 62.2672 167.319 61.9267 167.603 61.6422C167.888 61.3491 168.228 61.2026 168.625 61.2026H176.552V53.2888C176.552 52.8922 176.694 52.5517 176.978 52.2672C177.263 51.9828 177.603 51.8405 178 51.8405C178.405 51.8405 178.75 51.9828 179.034 52.2672C179.319 52.5517 179.461 52.8922 179.461 53.2888V61.2026H187.375C187.772 61.2026 188.112 61.3491 188.397 61.6422C188.681 61.9267 188.823 62.2672 188.823 62.6638C188.823 63.069 188.681 63.4138 188.397 63.6983C188.112 63.9741 187.772 64.1121 187.375 64.1121H179.461V72.0517C179.461 72.4397 179.319 72.7759 179.034 73.0603C178.75 73.3448 178.405 73.4871 178 73.4871C177.603 73.4871 177.263 73.3448 176.978 73.0603C176.694 72.7759 176.552 72.4397 176.552 72.0517V64.1121H168.625C168.228 64.1121 167.888 63.9741 167.603 63.6983C167.319 63.4138 167.177 63.069 167.177 62.6638Z" fill="#8B8B8B"/>
<path d="M91.136 85.24H98.848V86.424H95.76V87.048C95.76 88.904 97.12 90.616 99.264 91.32L98.512 92.472C96.896 91.928 95.664 90.792 95.04 89.352C94.416 90.904 93.184 92.136 91.488 92.728L90.736 91.592C92.912 90.824 94.272 89 94.272 87.048V86.424H91.136V85.24ZM93.056 97.928V93.448H94.496V96.728H102.608V97.928H93.056ZM100.72 94.424V84.12H102.192V94.424H100.72ZM115.104 84.12H116.496V93.016H115.104V89.064H113.472V92.52H112.096V84.392H113.472V87.864H115.104V84.12ZM104.48 86.904V85.736H107.328V84.232H108.768V85.736H111.568V86.904H104.48ZM105.04 89.976C105.04 88.52 106.272 87.56 108.048 87.56C109.824 87.56 111.056 88.52 111.056 89.976C111.056 91.448 109.824 92.408 108.048 92.408C106.272 92.408 105.04 91.448 105.04 89.976ZM106.336 89.976C106.336 90.808 107.04 91.336 108.048 91.336C109.056 91.336 109.776 90.808 109.776 89.976C109.776 89.144 109.056 88.632 108.048 88.632C107.04 88.632 106.336 89.144 106.336 89.976ZM107.088 95.736C107.088 94.136 108.848 93.24 111.824 93.24C114.8 93.24 116.576 94.136 116.576 95.736C116.576 97.304 114.8 98.2 111.824 98.2C108.848 98.2 107.088 97.304 107.088 95.736ZM108.528 95.736C108.528 96.616 109.728 97.096 111.824 97.096C113.92 97.096 115.104 96.616 115.104 95.736C115.104 94.824 113.92 94.36 111.824 94.36C109.728 94.36 108.528 94.824 108.528 95.736ZM128.081 84.12H129.553V88.68H131.585V89.896H129.553V94.696H128.081V84.12ZM118.593 86.936V85.768H122.033V84.12H123.489V85.768H126.929V86.936H118.593ZM119.361 90.312C119.361 88.712 120.753 87.656 122.753 87.656C124.769 87.656 126.161 88.712 126.161 90.312C126.161 91.912 124.769 92.952 122.753 92.952C120.753 92.952 119.361 91.912 119.361 90.312ZM120.705 97.928V93.864H122.145V96.728H130.161V97.928H120.705ZM120.753 90.312C120.753 91.24 121.569 91.832 122.753 91.832C123.953 91.832 124.753 91.24 124.753 90.312C124.753 89.368 123.953 88.792 122.753 88.792C121.569 88.792 120.753 89.368 120.753 90.312ZM145.769 84.104H147.225V87.656H149.241V88.872H147.225V92.424H145.769V84.104ZM136.137 91.112C137.225 91.112 138.489 91.112 139.817 91.08V90.232C138.201 90.088 137.209 89.448 137.209 88.408C137.209 87.256 138.505 86.568 140.521 86.568C142.553 86.568 143.849 87.256 143.849 88.408C143.849 89.432 142.873 90.088 141.273 90.232V91.016C142.537 90.952 143.801 90.856 144.985 90.696L145.081 91.608C142.089 92.12 138.761 92.152 136.297 92.152L136.137 91.112ZM136.489 86.152V85.128H139.817V83.976H141.273V85.128H144.569V86.152H136.489ZM138.025 94.04V93.048H147.225V95.96H139.481V97.064H147.753V98.088H138.041V95.032H145.801V94.04H138.025ZM138.601 88.408C138.601 88.984 139.337 89.32 140.521 89.32C141.737 89.32 142.473 88.984 142.473 88.408C142.473 87.848 141.737 87.496 140.521 87.496C139.337 87.496 138.601 87.848 138.601 88.408ZM150.233 91H155.865V89.496H151.833V84.76H161.401V85.928H153.273V88.312H161.497V89.496H157.321V91H162.985V92.184H150.233V91ZM151.737 95.672C151.737 94.04 153.561 93.112 156.585 93.112C159.593 93.112 161.433 94.04 161.433 95.672C161.433 97.304 159.593 98.216 156.585 98.216C153.561 98.216 151.737 97.304 151.737 95.672ZM153.209 95.672C153.209 96.6 154.457 97.096 156.585 97.096C158.713 97.096 159.945 96.6 159.945 95.672C159.945 94.76 158.713 94.248 156.585 94.248C154.457 94.248 153.209 94.76 153.209 95.672ZM170.569 84.36C173.705 84.36 175.577 85.208 175.577 86.776C175.577 88.36 173.705 89.224 170.569 89.224C167.449 89.224 165.577 88.36 165.577 86.776C165.577 85.208 167.449 84.36 170.569 84.36ZM164.201 91.272V90.104H176.953V91.272H164.201ZM165.721 93.48V92.376H175.337V95.656H167.193V96.952H175.753V98.088H165.769V94.616H173.897V93.48H165.721ZM167.081 86.776C167.081 87.656 168.345 88.12 170.569 88.12C172.809 88.12 174.073 87.656 174.073 86.776C174.073 85.912 172.809 85.432 170.569 85.432C168.345 85.432 167.081 85.912 167.081 86.776ZM189.105 87.352H192.065V84.12H193.521V94.648H192.065V88.568H189.105V87.352ZM181.857 91.544C184.001 90.744 185.329 88.776 185.329 86.648V84.952H186.785V86.68C186.785 88.632 188.081 90.472 190.145 91.224L189.377 92.36C187.841 91.752 186.689 90.584 186.081 89.112C185.489 90.76 184.273 92.056 182.625 92.696L181.857 91.544ZM184.385 97.928V93.496H185.841V96.728H193.857V97.928H184.385ZM196.434 85.112H201.89V86.296H197.842V87.928H201.762V89.048H197.842V90.792C199.73 90.776 200.946 90.728 202.402 90.44L202.546 91.624C200.93 91.928 199.57 91.992 197.362 91.992H196.434V85.112ZM198.258 94.584V93.384H207.778V98.232H206.322V94.584H198.258ZM203.298 92.6V84.376H204.674V87.736H206.386V84.104H207.778V92.68H206.386V88.936H204.674V92.6H203.298ZM209.81 86.456H212.578V84.504H214.018V86.456H216.754V87.64H209.81V86.456ZM210.258 91.752C210.258 89.864 211.522 88.52 213.298 88.52C215.058 88.52 216.338 89.864 216.338 91.752C216.338 93.688 215.058 95.016 213.298 95.016C211.522 95.016 210.258 93.688 210.258 91.752ZM211.554 91.752C211.554 92.968 212.274 93.784 213.298 93.784C214.306 93.784 215.042 92.968 215.042 91.752C215.042 90.552 214.306 89.736 213.298 89.736C212.274 89.736 211.554 90.552 211.554 91.752ZM217.41 97.544V84.424H218.786V90.008H220.418V84.104H221.81V98.216H220.418V91.208H218.786V97.544H217.41ZM223.826 95.24H229.474V92.312H225.298V85.08H226.754V87.512H233.666V85.08H235.122V92.312H230.93V95.24H236.61V96.456H223.826V95.24ZM226.754 91.144H233.666V88.696H226.754V91.144ZM243.363 89.096H245.555V84.408H246.915V97.528H245.555V90.296H243.363V89.096ZM237.619 94.152C239.587 92.968 240.643 90.44 240.643 88.024V85.432H242.051V87.976C242.051 90.248 243.011 92.632 244.883 93.8L244.051 94.936C242.755 94.136 241.859 92.712 241.363 91.064C240.851 92.856 239.875 94.392 238.515 95.24L237.619 94.152ZM248.419 98.216V84.104H249.827V98.216H248.419ZM251.795 95.24H254.867V91.512C253.715 90.888 253.011 89.88 253.011 88.616C253.011 86.392 255.187 84.952 258.163 84.952C261.187 84.952 263.331 86.392 263.331 88.616C263.331 89.864 262.659 90.856 261.523 91.496V95.24H264.579V96.44H251.795V95.24ZM254.435 88.616C254.435 90.152 255.987 91.128 258.163 91.128C260.355 91.128 261.907 90.152 261.907 88.616C261.907 87.08 260.355 86.104 258.163 86.104C255.987 86.104 254.435 87.08 254.435 88.616ZM256.307 95.24H260.051V92.056C259.475 92.2 258.835 92.264 258.163 92.264C257.507 92.264 256.883 92.2 256.307 92.056V95.24Z" fill="black"/>
<rect x="3.5" y="0.5" width="349" height="149" rx="3.5" stroke="#A5A5A5" stroke-dasharray="7 7" shape-rendering="crispEdges"/>
</g>
<defs>
<filter id="filter0_d_1639_7400" x="0.160074" y="0" width="355.68" height="155.68" filterUnits="userSpaceOnUse" color-interpolation-filters="sRGB">
<feFlood flood-opacity="0" result="BackgroundImageFix"/>
<feColorMatrix in="SourceAlpha" type="matrix" values="0 0 0 0 0 0 0 0 0 0 0 0 0 0 0 0 0 0 127 0" result="hardAlpha"/>
<feOffset dy="2.83993"/>
<feGaussianBlur stdDeviation="1.41996"/>
<feComposite in2="hardAlpha" operator="out"/>
<feColorMatrix type="matrix" values="0 0 0 0 0 0 0 0 0 0 0 0 0 0 0 0 0 0 0.25 0"/>
<feBlend mode="normal" in2="BackgroundImageFix" result="effect1_dropShadow_1639_7400"/>
<feBlend mode="normal" in="SourceGraphic" in2="effect1_dropShadow_1639_7400" result="shape"/>
</filter>
</defs>
</svg>
