<svg width="36" height="36" viewBox="0 0 36 36" fill="none" xmlns="http://www.w3.org/2000/svg">
<rect width="36" height="36" rx="18" fill="#C1C1C1"/>
<path d="M12.1325 19.0862C11.9763 19.0862 11.8308 19.0458 11.6961 18.965C11.5614 18.8788 11.451 18.7683 11.3648 18.6336C11.2786 18.4935 11.2355 18.34 11.2355 18.173C11.2355 18.0113 11.2786 17.8605 11.3648 17.7204C11.451 17.5803 11.5614 17.4698 11.6961 17.389C11.8308 17.3082 11.9763 17.2678 12.1325 17.2678H23.8594C24.0156 17.2678 24.1611 17.3082 24.2958 17.389C24.4359 17.4698 24.5463 17.5803 24.6272 17.7204C24.7134 17.8605 24.7565 18.0113 24.7565 18.173C24.7565 18.34 24.7134 18.4935 24.6272 18.6336C24.5463 18.7683 24.4359 18.8788 24.2958 18.965C24.1611 19.0458 24.0156 19.0862 23.8594 19.0862H12.1325Z" fill="white"/>
</svg>
