<svg width="300" height="300" viewBox="0 0 300 300" fill="none" xmlns="http://www.w3.org/2000/svg">
<path d="M163.2 125.584C161.453 124.546 158.012 122.137 155.919 117.696C153.109 111.737 153.989 104.759 157.132 100.099C159.111 97.1617 161.841 95.3716 162.199 95.1411C163.856 94.0731 165.403 93.4724 166.538 93.1204C159.717 82.4166 159.93 72.0768 164.717 68.2418C167.011 66.4032 170.53 65.9239 173.212 67.0282C179.001 69.4129 182.096 79.6617 178.546 92.4165C179.875 92.4408 181.204 92.459 182.533 92.4833C183.862 92.5076 185.191 92.5258 186.52 92.55C182.606 80.4748 185.361 70.0743 191.41 67.0343C193.825 65.8207 197.29 65.4991 199.905 67.0343C205.354 70.2382 206.78 81.3304 201.119 94.3401C201.507 94.6131 202.078 95.0258 202.739 95.5537C204.881 97.2527 206.659 99.0731 207.49 100.105C210.039 103.272 211.289 108.527 210.524 113.454C210.227 115.359 209.566 119.249 206.277 122.556C203.692 125.153 200.761 126.106 199.305 126.476" fill="#FFEDCC"/>
<path d="M163.2 125.584C161.453 124.546 158.012 122.137 155.919 117.696C153.109 111.737 153.989 104.759 157.132 100.099C159.111 97.1617 161.841 95.3716 162.199 95.1411C163.856 94.0731 165.403 93.4724 166.538 93.1204C159.717 82.4166 159.93 72.0768 164.717 68.2418C167.011 66.4032 170.53 65.9239 173.212 67.0282C179.001 69.4129 182.096 79.6617 178.546 92.4165C179.875 92.4408 181.204 92.459 182.533 92.4833C183.862 92.5076 185.191 92.5258 186.52 92.55C182.606 80.4748 185.361 70.0743 191.41 67.0343C193.825 65.8207 197.29 65.4991 199.905 67.0343C205.354 70.2382 206.78 81.3304 201.119 94.3401C201.507 94.6131 202.078 95.0258 202.739 95.5537C204.881 97.2527 206.659 99.0731 207.49 100.105C210.039 103.272 211.289 108.527 210.524 113.454C210.227 115.359 209.566 119.249 206.277 122.556C203.692 125.153 200.761 126.106 199.305 126.476" stroke="#9F8F79" stroke-width="1.80218" stroke-linecap="round" stroke-linejoin="round"/>
<path d="M163.2 124.37C162.412 127.046 161.429 130.663 160.47 134.989C159.414 139.771 157.994 146.227 157.436 154.407C157.06 159.85 156.975 167.107 158.043 175.645C154.893 177.077 154.341 178.054 154.402 178.679C154.584 180.59 160.719 181.791 165.324 181.713C169.893 181.634 173.498 180.281 175.64 179.285C175.543 177.028 175.524 174.589 175.64 172.004C175.816 167.981 176.277 164.316 176.853 161.082L183.291 161.349C183.279 163.824 183.388 169.48 183.668 172.307C183.892 174.637 184.22 176.846 184.602 178.915C185.767 179.716 187.515 180.73 189.869 181.458C197.138 183.703 206.477 182.089 207.327 179.31C207.569 178.509 207.205 177.289 204.669 175.42C203.892 162.95 203.115 150.487 202.339 138.017C205.166 137.392 210.166 135.887 215.081 131.949C219.335 128.539 221.556 124.892 222.363 123.454C223.437 121.543 229.068 111.015 224.79 106.464C223.625 105.226 221.386 104.067 219.329 104.644C214.82 105.906 216.198 114.085 210.834 119.813C208.655 122.143 204.948 124.504 198.231 125.135" fill="#FFEDCC"/>
<path d="M162.897 125.887C162.211 128.145 161.331 131.251 160.47 134.989C159.554 138.958 158.037 145.675 157.436 154.407C157.06 159.85 156.975 167.107 158.043 175.645C154.893 177.077 154.341 178.054 154.402 178.679C154.584 180.59 160.719 181.791 165.324 181.713C169.893 181.634 173.498 180.281 175.64 179.285C175.543 177.028 175.524 174.589 175.64 172.004C175.816 167.981 176.277 164.316 176.853 161.082L183.291 161.349C183.279 163.824 183.388 169.48 183.668 172.307C183.892 174.637 184.22 176.846 184.602 178.915C185.767 179.716 187.515 180.73 189.869 181.458C197.138 183.703 206.477 182.089 207.327 179.31C207.569 178.509 207.205 177.289 204.669 175.42C203.892 162.95 203.115 150.487 202.339 138.017C205.166 137.392 210.166 135.887 215.081 131.949C219.335 128.539 221.556 124.892 222.363 123.454C223.437 121.543 229.068 111.015 224.79 106.464C223.625 105.226 221.386 104.067 219.329 104.644C214.82 105.906 216.198 114.085 210.834 119.813C208.655 122.143 204.948 124.504 198.231 125.135" stroke="#9F8F79" stroke-width="1.80218" stroke-linecap="round" stroke-linejoin="round"/>
<path d="M184.778 102.35C184.499 102.829 184.408 103.418 184.608 104.079C184.99 105.323 186.289 106.106 187.563 105.857C188.789 105.614 189.729 104.455 189.645 103.205C189.56 101.87 188.564 100.936 187.284 100.693C186.902 100.62 186.52 100.693 186.222 100.9C186.071 100.924 185.925 100.972 185.804 101.057C185.342 101.391 184.948 101.846 184.772 102.356L184.778 102.35Z" fill="#71685C"/>
<path d="M172.563 102.35C172.284 102.829 172.193 103.418 172.393 104.079C172.776 105.323 174.074 106.106 175.348 105.857C176.574 105.614 177.515 104.455 177.43 103.205C177.345 101.87 176.35 100.936 175.069 100.693C174.687 100.62 174.305 100.693 174.007 100.9C173.856 100.924 173.71 100.972 173.589 101.057C173.128 101.391 172.733 101.846 172.557 102.356L172.563 102.35Z" fill="#71685C"/>
<path d="M221.38 110.262C220.312 109.904 219.42 110.359 219.201 110.481C219.032 110.578 217.97 111.16 218.024 111.87C218.085 112.574 219.226 112.963 220.439 113.375C221.671 113.788 222.551 114.091 223 113.648C223.492 113.169 223.176 112.077 222.854 111.5C222.363 110.608 221.519 110.311 221.374 110.262H221.38Z" fill="#F7C6C6"/>
<path d="M223.024 108.952C223.206 108.491 222.903 107.938 222.339 107.714C221.774 107.489 221.168 107.677 220.986 108.139C220.804 108.6 221.107 109.152 221.671 109.376C222.236 109.601 222.842 109.413 223.024 108.952Z" fill="#F7C6C6"/>
<path d="M218.825 109.728C219.432 109.686 219.893 109.255 219.863 108.764C219.833 108.272 219.311 107.902 218.71 107.938C218.103 107.981 217.642 108.412 217.672 108.903C217.703 109.395 218.225 109.765 218.825 109.728Z" fill="#F7C6C6"/>
<path d="M225.269 111.452C225.573 111.057 225.427 110.444 224.948 110.074C224.468 109.704 223.831 109.722 223.528 110.117C223.224 110.511 223.37 111.124 223.849 111.494C224.329 111.864 224.966 111.846 225.269 111.452Z" fill="#F7C6C6"/>
<path d="M197.788 114.055C200.469 114.055 202.642 111.881 202.642 109.201C202.642 106.52 200.469 104.346 197.788 104.346C195.107 104.346 192.933 106.52 192.933 109.201C192.933 111.881 195.107 114.055 197.788 114.055Z" fill="#F7C6C6"/>
<path d="M166.234 114.662C168.915 114.662 171.089 112.488 171.089 109.807C171.089 107.126 168.915 104.953 166.234 104.953C163.553 104.953 161.38 107.126 161.38 109.807C161.38 112.488 163.553 114.662 166.234 114.662Z" fill="#F7C6C6"/>
<path d="M197.563 116.597C203.577 121.707 209.59 126.81 215.597 131.919C219.523 127.295 223.455 122.671 227.381 118.048C221.677 113.205 215.973 108.357 210.27 103.515C209.699 103.563 209.129 103.606 208.558 103.654C206.726 105.815 204.893 107.969 203.061 110.129L197.563 116.603V116.597Z" fill="#E0E0E0" stroke="#928B82" stroke-width="1.32888" stroke-linecap="round" stroke-linejoin="round"/>
<path d="M198.024 116.992C198.249 117.004 198.546 116.992 198.88 116.925C199.444 116.798 199.857 116.543 200.094 116.367C206.119 121.482 212.138 126.597 218.164 131.713C218.14 131.798 217.97 132.386 217.381 132.635C217.005 132.799 216.653 132.732 216.526 132.702C210.361 127.465 204.196 122.228 198.024 116.992Z" fill="#22BC81" stroke="#928B82" stroke-width="1.32888" stroke-linecap="round" stroke-linejoin="round"/>
<path d="M200.13 116.385C206.143 121.494 212.157 126.597 218.164 131.707C221.829 127.392 225.494 123.072 229.165 118.758C223.152 113.648 217.138 108.545 211.131 103.436L205.634 109.91C203.801 112.071 201.968 114.225 200.136 116.385H200.13Z" fill="#22BC81" stroke="#928B82" stroke-width="1.32888" stroke-linecap="round" stroke-linejoin="round"/>
<path d="M213.904 110.572C212.6 109.468 210.646 109.625 209.541 110.93C209.026 111.537 208.789 112.277 208.807 113.017C208.079 113.114 207.381 113.472 206.865 114.079C205.761 115.384 205.919 117.338 207.223 118.442C207.83 118.958 208.57 119.194 209.311 119.176C209.408 119.904 209.766 120.602 210.373 121.118C211.677 122.222 213.631 122.065 214.735 120.76C215.251 120.153 215.488 119.413 215.47 118.673C216.198 118.576 216.896 118.218 217.411 117.611C218.516 116.306 218.358 114.352 217.053 113.248C216.447 112.732 215.706 112.495 214.966 112.514C214.869 111.786 214.511 111.088 213.904 110.572Z" fill="#99FFB8"/>
<path d="M217.964 112.192C217.223 111.682 212.927 108.715 213.716 106.124C214.268 104.31 216.987 103.764 217.357 103.697C221.186 102.981 225.858 105.966 226.459 109.765C226.483 109.916 226.902 112.793 225.245 114.012C223 115.663 218.874 112.823 217.964 112.192Z" fill="#FFEDCC" stroke="#9F8F79" stroke-width="1.80218" stroke-miterlimit="10"/>
<path d="M182.624 111.597C182.193 114.504 180.816 116.391 179.802 116.312C178.68 116.227 177.581 113.715 177.63 111.616C177.63 111.512 177.636 111.415 177.642 111.343C177.812 111.276 178.043 111.173 178.298 111.015C178.504 110.894 179.02 110.578 179.487 110.032C180.112 109.292 180.367 108.454 180.476 107.969C180.446 108.199 180.312 109.346 181.004 110.39C181.58 111.27 182.381 111.525 182.624 111.591V111.597Z" fill="#FFB3A4" stroke="#6D6861" stroke-width="1.32888" stroke-linecap="round" stroke-linejoin="round"/>
<path d="M174.056 107.89C173.874 109.492 175.069 110.875 176.562 111.148C178.34 111.476 180.47 110.202 180.603 108.218C180.409 110.02 182.133 111.518 184.068 111.476C185.937 111.434 187.533 109.959 187.345 108.218" stroke="#6D6861" stroke-width="1.32888" stroke-linecap="round" stroke-linejoin="round"/>
<path d="M178.516 107.526C178.765 107.823 179.05 108.157 179.384 108.363C179.778 108.6 180.173 108.533 180.579 108.393C181.38 108.108 182.478 107.799 182.187 106.694C182.108 106.391 181.884 106.185 181.617 106.075C181.471 105.954 181.277 105.875 181.034 105.869C180.421 105.851 179.808 105.857 179.202 105.887C178.328 105.93 177.988 106.889 178.522 107.526H178.516Z" fill="#71685C"/>
<path d="M166.841 126.191C158.771 123.236 154.918 119.116 152.885 115.875C149.499 110.481 149.723 105.19 145.585 103.557C143.194 102.611 139.93 103.126 138.322 104.953C134.517 109.279 141.004 119.85 142.551 122.368C143.728 124.285 145.834 127.647 149.833 130.863C154.802 134.856 159.839 136.336 162.575 136.931" fill="#FFEDCC"/>
<path d="M166.841 126.191C158.771 123.236 154.918 119.116 152.885 115.875C149.499 110.481 149.723 105.19 145.585 103.557C143.194 102.611 139.93 103.126 138.322 104.953C134.517 109.279 141.004 119.85 142.551 122.368C143.728 124.285 145.834 127.647 149.833 130.863C154.802 134.856 159.839 136.336 162.575 136.931" stroke="#9F8F79" stroke-width="1.80218" stroke-linecap="round" stroke-linejoin="round"/>
<path d="M195.429 74.5714C194.534 75.6938 193.634 77.102 192.978 78.8067C190.596 85.0061 193.187 90.6391 194.203 92.5714" stroke="#9F8F79" stroke-width="1.80218" stroke-linecap="round" stroke-linejoin="round"/>
<path d="M170.571 74.5714C171.45 75.6567 172.366 77.0597 173.031 78.8067C175.413 85.0697 172.756 90.9197 171.933 92.5714" stroke="#9F8F79" stroke-width="1.80218" stroke-linecap="round" stroke-linejoin="round"/>
<path d="M200.983 156.429C200.194 159.105 199.211 162.722 198.252 167.048C197.196 171.83 195.776 178.286 195.218 186.465C194.842 191.908 194.757 199.166 195.825 207.703C192.675 209.135 192.123 210.112 192.184 210.737C192.366 212.649 198.501 213.85 203.106 213.771C207.675 213.692 211.28 212.339 213.422 211.344C213.325 209.087 213.307 206.647 213.422 204.062C213.598 200.039 214.059 196.374 214.635 193.14L221.074 193.407C221.061 195.883 221.171 201.538 221.45 204.366C221.674 206.696 222.002 208.905 222.384 210.974C223.549 211.775 225.297 212.788 227.651 213.516C234.921 215.761 244.259 214.147 245.109 211.368C245.351 210.567 244.987 209.348 242.451 207.479C241.674 195.009 240.898 182.546 240.121 170.076C242.948 169.451 247.948 167.946 252.864 164.008C257.117 160.598 259.338 156.951 260.145 155.513C261.219 153.601 266.85 143.073 262.572 138.523C261.407 137.285 259.168 136.126 257.111 136.702C252.603 137.964 253.98 146.144 248.616 151.872C246.438 154.202 242.73 156.563 236.013 157.194" fill="#333333"/>
<path d="M200.679 157.946C199.993 160.203 199.114 163.31 198.252 167.048C197.336 171.016 195.819 177.734 195.218 186.465C194.842 191.908 194.757 199.166 195.825 207.703C192.675 209.135 192.123 210.112 192.184 210.737C192.366 212.649 198.501 213.85 203.106 213.771C207.675 213.692 211.28 212.339 213.422 211.344C213.325 209.087 213.307 206.647 213.422 204.062C213.598 200.039 214.059 196.374 214.635 193.14L221.074 193.407C221.061 195.883 221.171 201.538 221.45 204.366C221.674 206.696 222.002 208.905 222.384 210.974C223.549 211.775 225.297 212.788 227.651 213.516C234.921 215.761 244.259 214.147 245.109 211.368C245.351 210.567 244.987 209.348 242.451 207.479C241.674 195.009 240.898 182.546 240.121 170.076C242.948 169.451 247.948 167.946 252.864 164.008C257.117 160.598 259.338 156.951 260.145 155.513C261.219 153.601 266.85 143.073 262.572 138.523C261.407 137.285 259.168 136.126 257.111 136.702C252.603 137.964 253.98 146.144 248.616 151.872C246.438 154.202 242.73 156.563 236.013 157.194" stroke="#7B7B7B" stroke-width="1.80218" stroke-linecap="round" stroke-linejoin="round"/>
<path d="M200.983 157.643C199.235 156.605 195.795 154.196 193.701 149.754C191.037 144.099 191.547 137.236 194.915 132.157C196.602 129.615 198.646 128.055 199.981 127.2L200.467 127.175C201.523 120.052 203.95 115.07 206.747 114.864C207.918 114.779 208.926 115.543 210.388 116.684C213.768 119.317 215.485 122.515 216.328 124.475C217.657 124.499 218.986 124.518 220.315 124.542C221.644 124.566 222.973 124.584 224.302 124.609C225.085 123.529 226.298 121.987 227.979 120.331C230.831 117.521 233.21 115.191 235.26 115.476C237.979 115.859 240.206 120.847 240.546 127.558L240.521 127.612C241.765 128.425 243.64 129.864 245.273 132.163C249.338 137.891 248.513 144.178 248.307 145.513C248.009 147.418 247.348 151.308 244.059 154.615C241.474 157.212 238.543 158.164 237.087 158.535" fill="#333333"/>
<path d="M200.983 157.643C199.235 156.605 195.795 154.196 193.701 149.754C191.037 144.099 191.547 137.236 194.915 132.157C196.602 129.615 198.646 128.055 199.981 127.2L200.467 127.175C201.523 120.052 203.95 115.07 206.747 114.864C207.918 114.779 208.926 115.543 210.388 116.684C213.768 119.317 215.485 122.515 216.328 124.475C217.657 124.499 218.986 124.518 220.315 124.542C221.644 124.566 222.973 124.584 224.302 124.609C225.085 123.529 226.298 121.987 227.979 120.331C230.831 117.521 233.21 115.191 235.26 115.476C237.979 115.859 240.206 120.847 240.546 127.558L240.521 127.612C241.765 128.425 243.64 129.864 245.273 132.163C249.338 137.891 248.513 144.178 248.307 145.513C248.009 147.418 247.348 151.308 244.059 154.615C241.474 157.212 238.543 158.164 237.087 158.535" stroke="#7B7B7B" stroke-width="1.80218" stroke-linecap="round" stroke-linejoin="round"/>
<path d="M219.526 133.802C219.247 134.281 219.156 134.87 219.356 135.531C219.739 136.775 221.037 137.558 222.311 137.309C223.537 137.066 224.478 135.907 224.393 134.657C224.308 133.322 223.313 132.388 222.032 132.145C221.65 132.072 221.268 132.145 220.97 132.351C220.819 132.376 220.673 132.424 220.552 132.509C220.091 132.843 219.696 133.298 219.52 133.808L219.526 133.802Z" fill="#D1C9BF"/>
<path d="M206.098 135.015C205.819 135.495 205.728 136.083 205.928 136.745C206.31 137.988 207.609 138.771 208.883 138.522C210.109 138.28 211.049 137.121 210.964 135.871C210.879 134.536 209.884 133.601 208.604 133.359C208.222 133.286 207.839 133.359 207.542 133.565C207.39 133.589 207.245 133.638 207.123 133.723C206.662 134.056 206.268 134.512 206.092 135.021L206.098 135.015Z" fill="#D1C9BF"/>
<path d="M206.789 141.32C206.789 143.377 208.525 144.955 210.455 145.082C212.76 145.234 215.279 143.292 215.151 140.756C215.169 143.067 217.584 144.718 220.036 144.372C222.402 144.038 224.211 141.927 223.707 139.748" stroke="#D1C9BF" stroke-width="1.32888" stroke-linecap="round" stroke-linejoin="round"/>
<path d="M259.162 142.321C258.094 141.963 257.202 142.418 256.984 142.539C256.814 142.637 255.752 143.219 255.807 143.929C255.867 144.633 257.008 145.021 258.222 145.434C259.454 145.847 260.333 146.15 260.782 145.707C261.274 145.228 260.958 144.135 260.637 143.559C260.145 142.667 259.302 142.37 259.156 142.321H259.162Z" fill="#F7C6C6"/>
<path d="M256.607 141.787C257.214 141.745 257.675 141.314 257.645 140.822C257.615 140.331 257.093 139.961 256.492 139.997C255.885 140.039 255.424 140.47 255.455 140.962C255.485 141.453 256.007 141.823 256.607 141.787Z" fill="#F7C6C6"/>
<path d="M259.29 141.738C259.86 141.939 260.461 141.72 260.619 141.253C260.782 140.786 260.449 140.246 259.878 140.046C259.308 139.845 258.707 140.064 258.549 140.531C258.386 140.998 258.719 141.538 259.29 141.738Z" fill="#F7C6C6"/>
<path d="M261.389 143.359C261.826 143.777 262.457 143.832 262.803 143.474C263.149 143.116 263.07 142.485 262.633 142.066C262.196 141.647 261.565 141.593 261.219 141.951C260.873 142.309 260.952 142.94 261.389 143.359Z" fill="#F7C6C6"/>
<path d="M212.7 139.857C213.015 140.24 213.379 140.671 213.81 140.931C214.308 141.235 214.818 141.15 215.333 140.968C216.359 140.604 217.761 140.203 217.39 138.796C217.287 138.407 217.002 138.146 216.662 138.007C216.474 137.849 216.225 137.746 215.916 137.74C215.133 137.722 214.35 137.728 213.574 137.764C212.457 137.819 212.02 139.038 212.7 139.864V139.857Z" fill="#D1C9BF"/>
<path d="M232.536 143.686C235.217 143.686 237.39 141.513 237.39 138.832C237.39 136.151 235.217 133.978 232.536 133.978C229.855 133.978 227.682 136.151 227.682 138.832C227.682 141.513 229.855 143.686 232.536 143.686Z" fill="#F7C6C6"/>
<path d="M200.376 146.114C203.057 146.114 205.23 143.94 205.23 141.259C205.23 138.578 203.057 136.405 200.376 136.405C197.695 136.405 195.521 138.578 195.521 141.259C195.521 143.94 197.695 146.114 200.376 146.114Z" fill="#F7C6C6"/>
<path d="M202.791 163.189C206.583 170.106 210.382 177.018 214.174 183.935C219.496 181.016 224.811 178.098 230.133 175.179L219.332 155.495C218.78 155.337 218.234 155.173 217.682 155.015C215.2 156.374 212.718 157.74 210.236 159.099L202.791 163.183V163.189Z" fill="#E0E0E0" stroke="#928B82" stroke-width="1.32888" stroke-linecap="round" stroke-linejoin="round"/>
<path d="M203.082 163.723C203.288 163.814 203.568 163.911 203.907 163.965C204.484 164.05 204.957 163.959 205.242 163.874C209.041 170.804 212.845 177.734 216.644 184.657C216.595 184.724 216.219 185.215 215.582 185.24C215.17 185.258 214.866 185.076 214.757 184.997C210.867 177.904 206.972 170.81 203.082 163.717V163.723Z" fill="#22BC81" stroke="#928B82" stroke-width="1.32888" stroke-linecap="round" stroke-linejoin="round"/>
<path d="M205.261 163.911C209.053 170.828 212.852 177.74 216.644 184.657C221.608 181.933 226.577 179.208 231.541 176.484C227.748 169.566 223.95 162.655 220.157 155.737C217.676 157.096 215.194 158.462 212.712 159.821L205.267 163.905L205.261 163.911Z" fill="#22BC81" stroke="#928B82" stroke-width="1.32888" stroke-linecap="round" stroke-linejoin="round"/>
<path d="M220.206 163.395C219.387 161.896 217.506 161.35 216.007 162.169C215.309 162.552 214.824 163.164 214.581 163.856C213.865 163.686 213.088 163.771 212.39 164.154C210.892 164.973 210.345 166.854 211.165 168.353C211.547 169.05 212.16 169.536 212.852 169.779C212.682 170.495 212.767 171.271 213.149 171.969C213.968 173.468 215.849 174.014 217.348 173.195C218.046 172.813 218.531 172.2 218.774 171.508C219.49 171.678 220.267 171.593 220.964 171.211C222.463 170.391 223.009 168.51 222.19 167.012C221.808 166.314 221.195 165.828 220.503 165.586C220.673 164.87 220.588 164.093 220.206 163.395Z" fill="#99FFB8"/>
<path d="M201.286 157.946C200.139 158.286 197.208 159.33 195.218 162.194C192.409 166.235 193.143 171.496 195.218 174.936C197.827 179.269 202.342 180.373 204.927 181.004C206.231 181.326 213.992 183.073 217.063 179.184C217.33 178.844 218.373 177.436 218.276 175.543C218.191 173.911 217.269 172.2 215.849 171.296C213.009 169.487 210.194 172.157 206.747 170.689C204.842 169.882 203.725 168.225 203.106 167.048" fill="#333333"/>
<path d="M201.286 157.946C200.139 158.286 197.208 159.33 195.218 162.194C192.409 166.235 193.143 171.496 195.218 174.936C197.827 179.269 202.342 180.373 204.927 181.004C206.231 181.326 213.992 183.073 217.063 179.184C217.33 178.844 218.373 177.436 218.276 175.543C218.191 173.911 217.269 172.2 215.849 171.296C213.009 169.487 210.194 172.157 206.747 170.689C204.842 169.882 203.725 168.225 203.106 167.048" stroke="#7B7B7B" stroke-width="1.80218" stroke-linecap="round" stroke-linejoin="round"/>
<path d="M70.6603 79.9706C66.4076 76.3788 69.2013 72.2963 74.0885 74.946C77.6803 70.6934 81.7628 73.487 79.1131 78.3742C83.3658 81.9661 80.5721 86.0486 75.6849 83.3989C72.0931 87.6515 68.0105 84.8578 70.6603 79.9706Z" fill="#FFEEDE"/>
<path d="M70.6603 79.9706C66.4076 76.3788 69.2013 72.2963 74.0885 74.946C77.6803 70.6934 81.7628 73.487 79.1131 78.3742C83.3658 81.9661 80.5721 86.0486 75.6849 83.3989C72.0931 87.6515 68.0105 84.8578 70.6603 79.9706Z" fill="#FFEEDE"/>
<path d="M115.639 81.3843C110.224 80.0931 110.881 75.1902 116.439 75.3545C117.732 69.9402 122.636 70.5954 122.469 76.1519C127.884 77.443 127.226 82.3459 121.669 82.1817C120.375 87.5959 115.472 86.9408 115.639 81.3843Z" fill="#FED3D3"/>
<path d="M115.639 81.3843C110.224 80.0931 110.881 75.1902 116.439 75.3545C117.732 69.9402 122.636 70.5954 122.469 76.1519C127.884 77.443 127.226 82.3459 121.669 82.1817C120.375 87.5959 115.472 86.9408 115.639 81.3843Z" fill="#FED3D3"/>
<path d="M242.089 112.542C237.836 108.95 240.63 104.868 245.517 107.517C249.109 103.265 253.191 106.058 250.542 110.946C254.794 114.538 252.001 118.62 247.113 115.97C243.522 120.223 239.439 117.429 242.089 112.542Z" fill="#FFEEDE"/>
<path d="M242.089 112.542C237.836 108.95 240.63 104.868 245.517 107.517C249.109 103.265 253.191 106.058 250.542 110.946C254.794 114.538 252.001 118.62 247.113 115.97C243.522 120.223 239.439 117.429 242.089 112.542Z" fill="#FFEEDE"/>
<path d="M92.804 105.474C89.2623 103.237 90.9174 99.9026 94.8432 101.375C97.0796 97.8338 100.414 99.4888 98.9415 103.415C102.483 105.651 100.828 108.986 96.9022 107.513C94.6659 111.055 91.3312 109.4 92.804 105.474Z" fill="#FED3D3"/>
<path d="M92.804 105.474C89.2623 103.237 90.9174 99.9026 94.8432 101.375C97.0796 97.8338 100.414 99.4888 98.9415 103.415C102.483 105.651 100.828 108.986 96.9022 107.513C94.6659 111.055 91.3312 109.4 92.804 105.474Z" fill="#FED3D3"/>
<path d="M46.6241 116.105C43.9221 111.237 47.9784 108.411 51.6095 112.624C56.4771 109.922 59.3035 113.978 55.0901 117.61C57.7921 122.477 53.7358 125.303 50.1047 121.09C45.2371 123.792 42.4108 119.736 46.6241 116.105Z" fill="#FED3D3"/>
<path d="M46.6241 116.105C43.9221 111.237 47.9784 108.411 51.6095 112.624C56.4771 109.922 59.3035 113.978 55.0901 117.61C57.7921 122.477 53.7358 125.303 50.1047 121.09C45.2371 123.792 42.4108 119.736 46.6241 116.105Z" fill="#FED3D3"/>
<path d="M222.338 75.819C219.636 70.9514 223.693 68.1251 227.324 72.3384C232.191 69.6364 235.018 73.6927 230.804 77.3238C233.506 82.1914 229.45 85.0178 225.819 80.8044C220.951 83.5064 218.125 79.4501 222.338 75.819Z" fill="#FED3D3"/>
<path d="M222.338 75.819C219.636 70.9514 223.693 68.1251 227.324 72.3384C232.191 69.6364 235.018 73.6927 230.804 77.3238C233.506 82.1914 229.45 85.0178 225.819 80.8044C220.951 83.5064 218.125 79.4501 222.338 75.819Z" fill="#FED3D3"/>
<path d="M105.583 192.783C107.055 196.015 108.527 199.247 109.999 202.479C96.7313 213.862 79.5835 215.734 68.8015 208.151C58.6083 200.98 52.9425 184.539 58.8111 176.394C60.8393 173.574 64.7975 170.99 68.8865 171.277C75.4552 171.735 77.274 179.253 85.2493 185.435C89.1159 188.432 95.3967 191.854 105.583 192.789V192.783Z" fill="white"/>
<path d="M71.9287 187.378C68.7687 194.529 69.7697 203.126 74.2382 210.604C72.668 209.963 71.1894 209.152 69.8155 208.19C66.8125 206.077 64.2217 203.113 62.2327 199.809C60.9504 194.013 61.4542 188.092 63.9142 182.89C66.047 178.383 69.2267 175.314 71.9352 173.325C74.4606 174.235 76.2533 176.433 78.3992 179.083C76.1944 180.862 73.6232 183.558 71.9287 187.392V187.378Z" fill="#F5980B"/>
<path d="M87.5979 188.013C86.4268 189.452 85.3015 191.239 84.4837 193.411C82.22 199.417 83.0443 206.397 86.4137 212.554C84.1239 212.731 81.8798 212.639 79.7338 212.279C75.5728 205.154 74.6373 196.787 77.5029 189.701C78.6216 186.927 80.1787 184.729 81.762 183.015C82.763 184.107 83.8818 185.2 85.1772 186.247C85.8903 186.822 86.6951 187.424 87.5979 188.007V188.013Z" fill="#F5980B"/>
<path d="M90.4374 189.655C92.4852 190.722 94.919 191.69 97.8173 192.416C97.3986 193.188 97.0126 194.019 96.6789 194.922C94.9059 199.705 95.0433 205.102 96.8359 210.225C94.8993 211.056 92.9497 211.684 91.0066 212.129C87.7092 205.37 87.14 197.735 89.757 191.186C89.9663 190.656 90.1953 190.146 90.4374 189.655Z" fill="#F5980B"/>
<path d="M105.583 192.783C107.055 196.015 108.527 199.247 109.999 202.479C96.7313 213.862 79.5835 215.734 68.8015 208.151C58.6083 200.98 52.9425 184.539 58.8111 176.394C60.8393 173.574 64.7975 170.99 68.8865 171.277C75.4552 171.735 77.274 179.253 85.2493 185.435C89.1159 188.432 95.3967 191.854 105.583 192.789V192.783Z" stroke="#AAA59E" stroke-width="1.94312" stroke-linecap="round" stroke-linejoin="round"/>
<path d="M100.323 172.88C92.4853 167.561 89.6589 162.197 88.514 158.323C86.3419 150.976 89.0701 145.114 85.125 141.823C82.7304 139.828 78.7657 139.52 76.3973 141.084C71.7652 144.133 73.9439 153.881 74.7355 157.42C75.2851 159.887 76.5151 164.14 79.6097 168.994C84.5623 176.773 91.1899 181.248 95.6387 183.649C94.8864 198.134 94.1405 212.613 93.3881 227.098C90.6534 229.106 90.2608 230.428 90.5225 231.292C91.4385 234.282 101.507 236.028 109.345 233.608C111.884 232.823 113.768 231.73 115.024 230.866C115.443 228.635 115.79 226.254 116.032 223.742C116.333 220.693 116.457 214.589 116.437 211.926C119.473 211.906 122.509 211.88 125.544 211.86C125.636 214.831 125.885 221.262 126.388 224.651C126.716 226.882 127.121 229.008 127.586 231.023C129.889 232.365 134.795 234.759 141.057 234.36C145.597 234.072 151.95 232.24 152.087 229.859C152.159 228.662 150.635 227.628 149.287 226.934C147.697 212.508 146.107 198.082 144.518 183.656C148.98 181.17 155.411 176.655 160.259 169.001C163.419 164.015 164.616 159.723 165.133 157.427C165.925 153.881 168.103 144.139 163.471 141.09C161.103 139.533 157.138 139.841 154.744 141.83C150.798 145.114 153.533 150.983 151.355 158.33C150.21 162.203 147.383 167.568 139.545 172.887" fill="white"/>
<path d="M100.323 172.88C92.4853 167.561 89.6589 162.197 88.514 158.323C86.3419 150.976 89.0701 145.114 85.125 141.823C82.7304 139.828 78.7657 139.52 76.3973 141.084C71.7652 144.133 73.9439 153.881 74.7355 157.42C75.2851 159.887 76.5151 164.14 79.6097 168.994C84.5623 176.773 91.1899 181.248 95.6387 183.649C94.8864 198.134 94.1405 212.613 93.3881 227.098C90.6534 229.106 90.2608 230.428 90.5225 231.292C91.4385 234.282 101.507 236.028 109.345 233.608C111.884 232.823 113.768 231.73 115.024 230.866C115.443 228.635 115.79 226.254 116.032 223.742C116.333 220.693 116.457 214.589 116.437 211.926C119.473 211.906 122.509 211.88 125.544 211.86C125.636 214.831 125.885 221.262 126.388 224.651C126.716 226.882 127.121 229.008 127.586 231.023C129.889 232.365 134.795 234.759 141.057 234.36C145.597 234.072 151.95 232.24 152.087 229.859C152.159 228.662 150.635 227.628 149.287 226.934C147.697 212.508 146.107 198.082 144.518 183.656C148.98 181.17 155.411 176.655 160.259 169.001C163.419 164.015 164.616 159.723 165.133 157.427C165.925 153.881 168.103 144.139 163.471 141.09C161.103 139.533 157.138 139.841 154.744 141.83C150.798 145.114 153.533 150.983 151.355 158.33C150.21 162.203 147.383 167.568 139.545 172.887" stroke="#AAA59E" stroke-width="1.94312" stroke-linecap="round" stroke-linejoin="round"/>
<path d="M99.1586 174.307C93.9573 176.42 88.6645 174.13 87.6438 171.094C86.898 168.889 88.3373 166.057 91.216 164.297C87.0354 164.277 83.6791 161.137 83.8819 157.591C84.0782 154.136 87.598 151.421 91.6544 151.729C89.0243 150.826 87.055 148.987 86.8653 147.025C86.5905 144.139 90.1758 140.776 95.449 140.973L95.4228 140.914C93.7283 130.982 97.8043 123.498 101.527 122.909C105.217 122.32 111.295 128.051 112.937 137.734C115.803 137.688 118.668 137.643 121.534 137.597C122.967 128.293 128.665 122.641 132.25 123.118C135.901 123.602 140.062 130.786 138.636 140.508L139.159 140.534C143.726 139.86 147.246 142.857 147.344 145.729C147.416 147.685 145.911 149.674 143.733 150.806C147.233 150.132 150.615 152.494 151.191 155.89C151.786 159.37 149.235 162.779 145.597 163.178C148.312 164.656 149.896 167.319 149.51 169.57C148.973 172.658 144.635 175.399 139.859 173.79" fill="white"/>
<path d="M99.1586 174.307C93.9573 176.42 88.6645 174.13 87.6438 171.094C86.898 168.889 88.3373 166.057 91.216 164.297C87.0354 164.277 83.6791 161.137 83.8819 157.591C84.0782 154.136 87.598 151.421 91.6544 151.729C89.0243 150.826 87.055 148.987 86.8653 147.025C86.5905 144.139 90.1758 140.776 95.449 140.973L95.4228 140.914C93.7283 130.982 97.8043 123.498 101.527 122.909C105.217 122.32 111.295 128.051 112.937 137.734C115.803 137.688 118.668 137.643 121.534 137.597C122.967 128.293 128.665 122.641 132.25 123.118C135.901 123.602 140.062 130.786 138.636 140.508L139.159 140.534C143.726 139.86 147.246 142.857 147.344 145.729C147.416 147.685 145.911 149.674 143.733 150.806C147.233 150.132 150.615 152.494 151.191 155.89C151.786 159.37 149.235 162.779 145.597 163.178C148.312 164.656 149.896 167.319 149.51 169.57C148.973 172.658 144.635 175.399 139.859 173.79" stroke="#AAA59E" stroke-width="1.94312" stroke-linecap="round" stroke-linejoin="round"/>
<path d="M117.445 148.961C117.255 148.411 116.83 147.921 116.333 147.561C116.208 147.469 116.045 147.417 115.881 147.391C115.561 147.168 115.148 147.09 114.736 147.168C113.356 147.43 112.289 148.438 112.191 149.877C112.1 151.231 113.114 152.481 114.435 152.736C115.809 153.004 117.209 152.16 117.622 150.819C117.837 150.113 117.739 149.478 117.438 148.955L117.445 148.961Z" fill="#71685C"/>
<path d="M132.578 148.961C132.388 148.411 131.963 147.921 131.465 147.561C131.341 147.469 131.178 147.417 131.014 147.391C130.693 147.168 130.281 147.09 129.869 147.168C128.489 147.43 127.416 148.438 127.324 149.877C127.232 151.231 128.246 152.481 129.568 152.736C130.942 153.004 132.349 152.16 132.754 150.819C132.97 150.113 132.872 149.478 132.571 148.955L132.578 148.961Z" fill="#71685C"/>
<path d="M119.1 142.837C117.962 141.287 114.73 140.044 112.682 140.875C111.288 141.444 110.699 142.87 111.295 143.891C112.466 145.88 118.092 146.135 119.375 144.951C120.14 144.244 119.283 143.079 119.107 142.837H119.1Z" fill="#F5980B"/>
<path d="M126.12 142.837C127.258 141.287 130.49 140.044 132.538 140.875C133.932 141.444 134.521 142.87 133.919 143.891C132.748 145.88 127.121 146.135 125.839 144.951C125.073 144.244 125.93 143.079 126.107 142.837H126.12Z" fill="#F5980B"/>
<path d="M113.951 155.026C113.689 156.891 115.888 158.467 118.465 158.513C121.135 158.559 123.51 156.949 123.241 155.026C123.425 157.152 126.362 158.52 128.816 158.166C130.863 157.872 132.519 156.393 132.264 154.679" stroke="#847B70" stroke-width="1.4328" stroke-linecap="round" stroke-linejoin="round"/>
<path d="M110.307 156.38C110.268 154.954 110.202 152.854 109.012 152.278C106.8 151.212 100.899 155.608 101.01 160.26C101.01 160.495 101.108 163.564 103.176 164.578C104.484 165.219 105.897 164.689 106.205 164.578C109.201 163.459 110.405 159.344 110.313 156.38H110.307Z" fill="#F5980B"/>
<path d="M134.351 155.661C134.377 154.26 134.416 152.193 135.182 151.624C136.595 150.577 140.363 154.902 140.291 159.481C140.291 159.71 140.232 162.733 138.911 163.727C138.073 164.355 137.17 163.839 136.974 163.727C135.064 162.628 134.292 158.578 134.351 155.654V155.661Z" fill="#F5980B"/>
<path d="M161.659 146.436C162.11 146.985 162.653 148.084 162.228 148.686C161.842 149.242 160.848 149.092 159.461 148.896C158.093 148.699 156.804 148.51 156.602 147.77C156.399 147.031 157.413 146.2 157.576 146.069C157.786 145.899 158.643 145.238 159.847 145.409C160.004 145.428 160.959 145.585 161.659 146.429V146.436Z" fill="#F15A24"/>
<path d="M161.345 144.022C161.449 143.498 161.018 142.968 160.377 142.844C159.735 142.713 159.133 143.034 159.022 143.557C158.918 144.08 159.349 144.61 159.991 144.735C160.632 144.865 161.234 144.545 161.345 144.022Z" fill="#F15A24"/>
<path d="M157.04 145.651C157.674 145.494 158.08 144.944 157.949 144.427C157.818 143.91 157.197 143.622 156.562 143.779C155.928 143.936 155.522 144.486 155.653 145.003C155.784 145.52 156.405 145.808 157.04 145.651Z" fill="#F15A24"/>
<path d="M164.217 146.233C164.459 145.755 164.191 145.134 163.609 144.833C163.026 144.532 162.359 144.676 162.11 145.153C161.868 145.631 162.137 146.253 162.719 146.553C163.301 146.854 163.968 146.711 164.217 146.233Z" fill="#F15A24"/>
<path d="M78.2097 146.756C77.7582 147.306 77.2152 148.405 77.6405 149.007C78.0265 149.563 79.0209 149.413 80.4079 149.216C81.7753 149.02 83.0642 148.83 83.267 148.091C83.4698 147.352 82.4557 146.521 82.2922 146.39C82.0828 146.22 81.2257 145.559 80.0219 145.729C79.8649 145.749 78.9097 145.906 78.2097 146.75V146.756Z" fill="#F15A24"/>
<path d="M79.878 144.735C80.5192 144.604 80.951 144.074 80.8463 143.557C80.7416 143.034 80.1331 142.713 79.492 142.844C78.8508 142.975 78.419 143.505 78.5237 144.022C78.6284 144.545 79.2368 144.865 79.878 144.735Z" fill="#F15A24"/>
<path d="M84.2155 145.016C84.3464 144.499 83.9407 143.95 83.3061 143.792C82.6715 143.635 82.05 143.923 81.9191 144.44C81.7883 144.957 82.1939 145.507 82.8285 145.664C83.4631 145.821 84.0847 145.533 84.2155 145.016Z" fill="#F15A24"/>
<path d="M77.1563 146.553C77.7385 146.253 78.0133 145.631 77.7647 145.153C77.5226 144.676 76.8488 144.538 76.2665 144.833C75.6842 145.134 75.4094 145.755 75.658 146.233C75.9001 146.71 76.574 146.848 77.1563 146.553Z" fill="#F15A24"/>
<path d="M128.92 158.153C128.462 163.943 125.989 167.921 123.843 167.967C121.488 168.013 118.583 163.335 118.465 159.174C118.465 158.971 118.465 158.788 118.465 158.644C118.891 158.69 119.983 158.736 121.122 158.114C122.666 157.27 123.176 155.811 123.281 155.471C123.51 155.935 123.974 156.701 124.838 157.322C126.565 158.565 128.528 158.232 128.927 158.153H128.92Z" fill="#FFB3A4" stroke="#847B70" stroke-width="1.4328" stroke-linecap="round" stroke-linejoin="round"/>
<path d="M124.524 151.918C123.68 151.879 122.842 151.866 121.998 151.892C121.665 151.899 121.397 152.01 121.194 152.18C120.821 152.33 120.52 152.612 120.409 153.03C120.003 154.548 121.521 154.98 122.627 155.373C123.183 155.569 123.732 155.661 124.269 155.333C124.733 155.052 125.126 154.588 125.466 154.175C126.205 153.292 125.734 151.971 124.524 151.912V151.918Z" fill="#847B70"/>
<path d="M54.8064 147.451C51.7801 145.54 53.1943 142.691 56.5489 143.949C58.4597 140.923 61.3092 142.337 60.0507 145.692C63.077 147.603 61.6627 150.452 58.3082 149.194C56.3973 152.22 53.5479 150.806 54.8064 147.451Z" fill="#FFEEDE"/>
<path d="M54.8064 147.451C51.7801 145.54 53.1943 142.691 56.5489 143.949C58.4597 140.923 61.3092 142.337 60.0507 145.692C63.077 147.603 61.6627 150.452 58.3082 149.194C56.3973 152.22 53.5479 150.806 54.8064 147.451Z" fill="#FFEEDE"/>
</svg>
