<svg width="29" height="29" viewBox="0 0 29 29" fill="none" xmlns="http://www.w3.org/2000/svg">
<path fill-rule="evenodd" clip-rule="evenodd" d="M19.2495 3.88703L19.4986 4.0808C19.472 4.08826 19.4454 4.09518 19.4188 4.1021C19.3921 4.10902 19.3655 4.11594 19.3389 4.12339C17.547 4.59718 15.7546 5.0715 13.9622 5.54582C12.1697 6.02016 10.3772 6.4945 8.58528 6.96831C8.57037 6.97044 8.18281 7.05562 8.05931 7.42188C7.96348 7.70935 8.10403 7.95424 8.12532 7.99044C8.2978 8.17996 8.90043 8.83582 9.37955 9.21912C9.44131 9.27022 9.54352 9.34901 9.69684 9.41077C9.91552 9.50044 10.1284 9.51108 10.2959 9.49678L10.406 9.57795L10.4061 9.57803C10.5833 9.70885 10.7611 9.84008 10.9391 9.9706L10.956 9.98295L10.9748 9.99383C11.0708 10.0495 11.2064 10.1375 11.3489 10.2686L11.3734 10.2911C11.4843 10.393 11.5366 10.4411 11.5892 10.5291L11.5897 10.53C11.6249 10.5883 11.735 10.7756 11.735 11.0215V19.5236C11.735 20.0378 12.7124 20.2041 13.0427 19.7461L14.0005 18.4182L14.9146 19.1435C15.3377 19.4791 16.1227 19.2673 16.1225 18.8176L16.1185 9.80769C16.1184 9.48053 15.916 8.91718 15.4004 8.41868L15.3998 8.41811C15.3362 8.35696 15.2712 8.3008 15.2056 8.24922L21.7728 6.5552C22.2094 6.44447 22.6693 6.73194 22.714 7.18125C22.7183 7.2281 22.7204 7.27708 22.7204 7.32605V22.2363C22.7204 22.922 22.252 23.5204 21.5854 23.6843L10.3101 26.4569C9.81609 26.5782 9.29438 26.4398 8.92599 26.0885L6.57297 23.844C6.27698 23.563 6.11088 23.1711 6.11088 22.7644V7.76259C6.11088 7.07904 6.5751 6.4828 7.23735 6.3167L17.9675 3.61872C18.4147 3.50586 18.8875 3.60594 19.2495 3.88703ZM11.167 9.29098L14.3353 8.47371C14.4646 8.54591 14.6009 8.64078 14.731 8.76585C15.1465 9.16772 15.2885 9.61044 15.2885 9.80788L15.2924 18.5609L14.4854 17.9206C14.1616 17.6637 13.5742 17.7173 13.3531 18.0238L12.565 19.1165V11.0215C12.565 10.6572 12.4034 10.3828 12.3533 10.2997C12.2575 10.1398 12.1438 10.0358 12.0378 9.93902L12.007 9.91073C11.8267 9.74479 11.6518 9.62847 11.5201 9.55086C11.4022 9.46436 11.2846 9.37775 11.167 9.29098Z" fill="#007DF0"/>
</svg>
