<svg width="212" height="161" viewBox="0 0 212 161" fill="none" xmlns="http://www.w3.org/2000/svg">
<g clip-path="url(#clip0_1287_5770)">
<path d="M95.7055 70.9582C116.578 67.1754 137.452 63.3926 158.324 59.6098C160.807 66.8691 163.292 74.1284 165.776 81.3861C168.065 71.09 170.356 60.7939 172.645 50.4994C191.944 52.721 201.728 55.6409 201.993 59.2606C202.115 60.9273 200.221 62.7404 196.312 64.7035C203.312 80.8097 201.871 96.7133 193.11 104.231C191.264 105.815 188.153 107.833 183.168 108.727C160.982 115.422 138.795 122.118 116.609 128.812C115.96 130.915 112.039 142.954 100.793 147.413C86.3168 153.154 67.1474 143.383 65.1729 131.668C63.9427 124.372 69.206 115.288 74.5253 114.746C80.2103 114.167 82.9901 123.648 89.3173 123.625C94.803 123.605 99.317 116.456 102.456 109.779" fill="white"/>
<path d="M168.342 49.9428C173.969 34.9185 183.861 32.608 182.363 23.2835C181.459 17.6562 176.701 13.106 172.238 11.2434C159.335 5.86148 138.833 18.7382 132.336 34.8247C125.462 51.8383 133.418 74.4973 153.042 88.8875C154.556 88.0377 156.761 86.6115 158.918 84.3603C168.025 74.8679 162.762 64.8402 168.342 49.9428Z" fill="white"/>
<path d="M163.533 30.4556C169.982 31.6776 175.001 34.6436 178.494 37.3675C181.765 33.1532 184.479 29.6421 184.966 25.4706C180.97 22.0468 175.163 18.292 167.538 16.6435C158.739 14.7381 149.536 16.0753 141.162 20.087C136.826 24.2898 133.239 29.2897 131.081 34.6139C130.095 37.0529 129.393 39.5956 128.969 42.2125C138.772 32.748 151.522 28.1714 163.536 30.449L163.533 30.4556Z" fill="#F5980B"/>
<path d="M169.954 50.2407C171.095 47.8907 172.362 45.7992 173.669 43.8872C170.493 42.0872 166.59 40.4963 161.97 39.7717C150.161 37.9141 137.745 42.3177 128.364 51.1877C128.579 54.5917 129.232 58.0435 130.314 61.4657C138.501 54.1421 148.846 50.4071 158.798 51.7213C162.4 52.1956 165.514 53.2775 168.128 54.5522C168.702 52.9712 169.328 51.5368 169.954 50.2407Z" fill="#F5980B"/>
<path d="M166.629 59.4533C165.796 59.2606 164.934 59.0943 164.05 58.9592C153.15 57.3025 141.719 60.8827 132.589 68.3035C133.954 71.1031 135.611 73.8533 137.559 76.5064C144.723 71.9644 152.898 69.8301 160.816 70.8363C162.308 71.0241 163.716 71.3172 165.038 71.6811C165.116 67.0074 165.727 62.9528 166.629 59.4566V59.4516V59.4533Z" fill="#F5980B"/>
<path d="M110.386 109.309C118.704 115.282 126.576 115.754 128.756 112.892C130.564 110.521 128.87 105.325 125.4 100.528C132.211 102.01 138.81 98.1067 139.764 92.2603C140.694 86.5606 135.953 80.8707 129.232 79.9007C133.838 79.3787 137.715 77.1077 138.726 73.9803C140.217 69.379 135.601 62.6071 126.946 61.0196L127.009 60.9306C133.358 45.3794 129.438 31.7204 123.587 29.4082C117.795 27.1191 105.827 34.2434 99.6399 49.4142C94.9908 48.2993 90.3417 47.1893 85.6927 46.0744C86.7253 30.4062 79.5022 19.1451 73.4879 18.6197C67.3649 18.0861 57.9959 28.2752 56.797 44.6202L55.9341 44.4769C48.7423 41.725 41.9342 45.3284 40.7287 49.9708C39.9069 53.1262 41.6312 56.9107 44.7717 59.5407C39.3157 57.1807 32.9588 59.7976 30.785 65.112C28.5585 70.5664 31.4717 77.0401 37.2489 79.0065C31.4454 82.1783 27.8437 86.055 28.5651 87.9917C29.316 90.0058 35.0158 90.6168 42.3393 88.5911C47.3112 93.619 59.2739 104.332 78.0776 108.834C91.9985 112.167 103.744 110.679 110.386 109.312V109.309Z" fill="white"/>
<path d="M87.6889 73.2752C88.1978 72.4469 89.069 71.8029 90.0044 71.3995C90.2448 71.2957 90.5215 71.271 90.7982 71.2891C91.3943 71.0437 92.0959 71.0586 92.7398 71.3369C94.8922 72.2641 96.269 74.2913 95.8968 76.6694C95.5526 78.9025 93.4562 80.5724 91.2082 80.5164C88.873 80.4571 86.8951 78.5731 86.714 76.2445C86.6201 75.011 87.0038 74.0163 87.6823 73.2802L87.6889 73.2769V73.2752Z" fill="#F5980B"/>
<path d="M63.0585 67.798C63.5674 66.9696 64.4386 66.3257 65.3723 65.9222C65.6128 65.8185 65.8894 65.7938 66.1661 65.8119C66.7623 65.5665 67.4655 65.5813 68.1078 65.8596C70.2602 66.7868 71.637 68.8141 71.2648 71.1921C70.9206 73.4253 68.8258 75.0952 66.5762 75.0392C64.2409 74.9799 62.2631 73.0959 62.0819 70.7673C61.9864 69.5338 62.3718 68.5391 63.0503 67.8029L63.0569 67.7996L63.0585 67.798Z" fill="#F5980B"/>
<path d="M87.4483 59.3298C89.8642 57.2218 95.5755 56.3605 98.6107 58.4635C100.677 59.8963 101.117 62.4341 99.7717 63.8718C97.145 66.6846 87.8913 65.0657 86.2395 62.6696C85.2514 61.2385 87.0662 59.6575 87.445 59.3248L87.4483 59.3314V59.3298Z" fill="#F5980B"/>
<path d="M76.1146 56.5515C74.8201 53.6185 70.013 50.4187 66.3718 51.0362C63.8916 51.4578 62.4193 53.5707 63.0287 55.4416C64.2161 59.1025 73.2836 61.5563 75.7951 60.0873C77.297 59.2096 76.3221 57.0077 76.1211 56.5466L76.1146 56.5499V56.5515Z" fill="#F5980B"/>
<path d="M91.1802 84.4163C90.9349 87.542 86.7831 89.3173 82.5705 88.4626C78.2129 87.5749 74.9209 84.0952 76.0572 81.0534C74.9884 84.4459 69.7135 85.6086 65.8467 84.1495C62.6156 82.9275 60.4599 79.9171 61.4941 77.2212" stroke="#F5980B" stroke-width="1.97622" stroke-miterlimit="10" stroke-linecap="round"/>
<path d="M95.8851 86.4073C96.4681 84.1033 97.3327 80.7042 99.4819 80.2019C103.469 79.2714 111.487 88.5613 109.622 96.099C109.526 96.4778 108.265 101.445 104.536 102.341C102.17 102.912 100.062 101.54 99.607 101.244C95.1292 98.3387 94.6665 91.1979 95.8851 86.4073Z" fill="#F5980B"/>
<path d="M56.6738 74.3492C57.1152 72.0501 57.7591 68.6626 56.0579 67.3204C52.891 64.832 41.8719 69.7643 40.3897 77.2608C40.3156 77.6396 39.367 82.5884 42.3198 84.9434C44.189 86.4354 46.6395 86.0929 47.1715 86.022C52.3706 85.2958 55.7582 79.1316 56.6755 74.3475L56.6738 74.3492Z" fill="#F5980B"/>
<path d="M75.1003 75.5332C76.4837 75.7703 77.8572 76.0602 79.2241 76.4011C79.7675 76.5378 80.1628 76.8095 80.4328 77.1619C80.9829 77.5391 81.3781 78.1072 81.4061 78.8335C81.5115 81.4536 78.8914 81.6068 76.9514 81.8456C75.9765 81.9642 75.0493 81.9147 74.2884 81.1885C73.6313 80.561 73.162 79.6668 72.7536 78.873C71.8742 77.1685 73.1175 75.189 75.102 75.5332H75.1003Z" fill="#F5980B"/>
<path d="M35.0025 91.4269C36.6312 93.0358 39.1525 95.3118 42.5763 97.5828C46.5798 100.238 48.1032 100.422 49.3219 102.436C51.3343 105.764 50.7381 111.158 47.782 114.389C43.8658 118.667 37.2932 117.528 34.8823 117.11C25.7916 115.53 15.1217 107.253 14.9998 95.9211C14.9306 89.4243 18.3166 80.8244 25.6533 78.1714C29.3044 76.8506 32.7381 77.4352 34.6484 77.9359" fill="white"/>
<path d="M59.1371 92.1022C51.3475 86.9591 43.5595 81.8144 35.7699 76.6712C33.5664 76.6268 31.3613 76.5823 29.1578 76.5378C28.4151 89.0342 27.674 101.53 26.9313 114.028C34.8658 119.73 42.7987 125.43 50.7332 131.131L88.5729 137.027C91.4154 125.077 94.2579 113.129 97.1003 101.18C95.4732 100.131 93.8461 99.0832 92.2174 98.0342C81.1901 96.0563 70.1644 94.0801 59.1371 92.1022Z" fill="#FFDEAD"/>
<path d="M55.2884 94.6563L28.3129 75.2729L19.2339 119.135L46.2093 138.519L89.0933 145.2L98.1724 101.338L55.2884 94.6563Z" fill="#F5980B"/>
<path d="M20.6815 119.311C29.1908 125.714 37.7001 132.116 46.2094 138.519L89.095 145.2C92.1219 130.579 95.1472 115.958 98.1741 101.338" stroke="#F5F4F3" stroke-width="1.48217" stroke-linecap="round" stroke-linejoin="round"/>
<path d="M117.507 128.025C116.761 130.184 112.268 142.545 100.076 147.351C84.3818 153.536 64.0036 144.021 62.1509 132.125C60.9981 124.718 66.8642 115.336 72.5953 114.661C78.7199 113.939 81.4883 123.537 88.2898 123.368C94.1855 123.221 99.2051 115.83 102.733 108.953" fill="white"/>
</g>
<defs>
<clipPath id="clip0_1287_5770">
<rect width="187" height="139.296" fill="white" transform="translate(15 10)"/>
</clipPath>
</defs>
</svg>
