<svg width="108" height="16" viewBox="0 0 108 16" fill="none" xmlns="http://www.w3.org/2000/svg">
<path d="M0.46 15.28V0.279999H6.84C9.26 0.279999 10.96 1.96 10.96 4.36C10.96 5.32 10.42 6.46 9.66 7.22C9.78 7.28 9.9 7.36 10 7.44C11.1 8.16 11.88 9.6 11.88 10.94C11.88 13.48 10.18 15.28 7.76 15.28H0.46ZM3.18 12.96H7.32C8.46 12.96 9.18 12.16 9.18 10.94C9.18 9.62 8.46 8.76 7.32 8.76H3.18V12.96ZM3.18 6.42H6.62C7.62 6.38 8.28 5.68 8.28 4.58C8.28 3.38 7.58 2.6 6.5 2.6H3.18V6.42ZM21.0594 13.08C24.0194 13.08 25.8994 11 25.8994 7.78C25.8994 4.56 24.0194 2.48 21.0594 2.48C18.0994 2.48 16.2194 4.56 16.2194 7.78C16.2194 11 18.0994 13.08 21.0594 13.08ZM13.4994 7.78C13.4994 3.28 16.6194 0.12 21.0594 0.12C25.4994 0.12 28.6194 3.28 28.6194 7.78C28.6194 12.28 25.4994 15.44 21.0594 15.44C16.6194 15.44 13.4994 12.28 13.4994 7.78ZM37.7734 13.08C40.7334 13.08 42.6134 11 42.6134 7.78C42.6134 4.56 40.7334 2.48 37.7734 2.48C34.8134 2.48 32.9334 4.56 32.9334 7.78C32.9334 11 34.8134 13.08 37.7734 13.08ZM30.2134 7.78C30.2134 3.28 33.3334 0.12 37.7734 0.12C42.2134 0.12 45.3334 3.28 45.3334 7.78C45.3334 12.28 42.2134 15.44 37.7734 15.44C33.3334 15.44 30.2134 12.28 30.2134 7.78ZM60.5981 0.259999L54.6781 6.8L60.6781 15.28H57.3381L52.8181 8.88L50.1581 11.88V15.28H47.4381V0.3H50.1581V7.74L56.9181 0.259999H60.5981ZM72.2194 10.58C72.2194 13.42 70.1594 15.42 67.2194 15.42C65.2794 15.42 63.3794 14.26 62.5994 12.58L65.0194 11.38C65.4794 12.38 66.3994 13.06 67.2594 13.06C68.5794 13.06 69.4994 12.02 69.4994 10.54V0.279999H72.2194V10.58ZM83.5363 0.279999L89.4163 15.28H86.4963L84.9763 11.42H78.7363L77.1963 15.28H74.2763L80.2763 0.279999H83.5363ZM79.6563 9.08H84.0563L81.9163 3.56L79.6563 9.08ZM99.5884 12.62L94.1284 4.72V15.28H91.4084V0.279999H94.4484L99.5884 8.16L104.728 0.279999H107.768V15.28H105.048V4.72L99.5884 12.62Z" fill="#EE7505"/>
</svg>
