<svg width="390" height="844" viewBox="0 0 390 844" fill="none" xmlns="http://www.w3.org/2000/svg">
<rect width="390" height="844" fill="#F5980B"/>
<g clip-path="url(#clip0_1287_5728)">
<path d="M184.705 412.958C205.578 409.175 226.452 405.393 247.324 401.61C249.807 408.869 252.292 416.128 254.776 423.386C257.065 413.09 259.356 402.794 261.645 392.499C280.944 394.721 290.728 397.641 290.993 401.261C291.115 402.927 289.221 404.74 285.312 406.703C292.312 422.81 290.871 438.713 282.11 446.231C280.264 447.815 277.153 449.833 272.168 450.727C249.982 457.422 227.795 464.118 205.609 470.812C204.96 472.915 201.039 484.954 189.793 489.413C175.317 495.154 156.147 485.383 154.173 473.668C152.943 466.372 158.206 457.288 163.525 456.746C169.21 456.167 171.99 465.648 178.317 465.625C183.803 465.605 188.317 458.456 191.456 451.779" fill="white"/>
<path d="M257.342 391.943C262.969 376.919 272.861 374.608 271.363 365.284C270.459 359.656 265.701 355.106 261.238 353.243C248.335 347.861 227.833 360.738 221.336 376.825C214.462 393.838 222.418 416.497 242.042 430.887C243.556 430.038 245.761 428.612 247.918 426.36C257.025 416.868 251.762 406.84 257.342 391.943Z" fill="white"/>
<path d="M252.533 372.456C258.982 373.678 264.001 376.644 267.494 379.367C270.765 375.153 273.479 371.642 273.966 367.471C269.97 364.047 264.163 360.292 256.538 358.643C247.739 356.738 238.536 358.075 230.162 362.087C225.826 366.29 222.239 371.29 220.081 376.614C219.095 379.053 218.393 381.596 217.969 384.212C227.772 374.748 240.522 370.171 252.536 372.449L252.533 372.456Z" fill="#EE7505"/>
<path d="M258.954 392.241C260.095 389.891 261.362 387.799 262.669 385.887C259.493 384.087 255.59 382.496 250.97 381.772C239.161 379.914 226.745 384.318 217.364 393.188C217.579 396.592 218.232 400.044 219.314 403.466C227.501 396.142 237.846 392.407 247.798 393.721C251.4 394.196 254.514 395.278 257.128 396.552C257.702 394.971 258.328 393.537 258.954 392.241Z" fill="#EE7505"/>
<path d="M255.629 401.453C254.796 401.261 253.934 401.094 253.05 400.959C242.15 399.302 230.719 402.883 221.589 410.303C222.954 413.103 224.611 415.853 226.559 418.506C233.723 413.964 241.898 411.83 249.816 412.836C251.308 413.024 252.716 413.317 254.038 413.681C254.116 409.007 254.727 404.953 255.629 401.457V401.452V401.453Z" fill="#EE7505"/>
<path d="M199.386 451.309C207.704 457.282 215.576 457.754 217.756 454.892C219.564 452.521 217.87 447.325 214.4 442.528C221.211 444.01 227.81 440.107 228.764 434.26C229.694 428.561 224.953 422.871 218.232 421.901C222.838 421.379 226.715 419.108 227.726 415.98C229.217 411.379 224.601 404.607 215.946 403.02L216.009 402.931C222.358 387.379 218.438 373.72 212.587 371.408C206.795 369.119 194.827 376.243 188.64 391.414C183.991 390.299 179.342 389.189 174.693 388.074C175.725 372.406 168.502 361.145 162.488 360.62C156.365 360.086 146.996 370.275 145.797 386.62L144.934 386.477C137.742 383.725 130.934 387.328 129.729 391.971C128.907 395.126 130.631 398.911 133.772 401.541C128.316 399.181 121.959 401.798 119.785 407.112C117.558 412.566 120.472 419.04 126.249 421.006C120.445 424.178 116.844 428.055 117.565 429.992C118.316 432.006 124.016 432.617 131.339 430.591C136.311 435.619 148.274 446.332 167.078 450.834C180.998 454.167 192.744 452.679 199.386 451.312V451.309Z" fill="white"/>
<path d="M176.689 415.275C177.198 414.447 178.069 413.803 179.004 413.399C179.245 413.296 179.521 413.271 179.798 413.289C180.394 413.044 181.096 413.059 181.74 413.337C183.892 414.264 185.269 416.291 184.897 418.669C184.553 420.903 182.456 422.572 180.208 422.516C177.873 422.457 175.895 420.573 175.714 418.244C175.62 417.011 176.004 416.016 176.682 415.28L176.689 415.277V415.275Z" fill="#EE7505"/>
<path d="M152.059 409.798C152.567 408.97 153.439 408.326 154.372 407.922C154.613 407.818 154.889 407.794 155.166 407.812C155.762 407.566 156.465 407.581 157.108 407.86C159.26 408.787 160.637 410.814 160.265 413.192C159.921 415.425 157.826 417.095 155.576 417.039C153.241 416.98 151.263 415.096 151.082 412.767C150.986 411.534 151.372 410.539 152.05 409.803L152.057 409.8L152.059 409.798Z" fill="#EE7505"/>
<path d="M176.448 401.33C178.864 399.222 184.576 398.36 187.611 400.464C189.677 401.896 190.117 404.434 188.772 405.872C186.145 408.685 176.891 407.066 175.24 404.67C174.251 403.238 176.066 401.657 176.445 401.325L176.448 401.331V401.33Z" fill="#EE7505"/>
<path d="M165.115 398.552C163.82 395.618 159.013 392.419 155.372 393.036C152.892 393.458 151.419 395.571 152.029 397.442C153.216 401.103 162.284 403.556 164.795 402.087C166.297 401.21 165.322 399.008 165.121 398.547L165.115 398.55V398.552Z" fill="#EE7505"/>
<path d="M180.18 426.416C179.935 429.542 175.783 431.317 171.57 430.463C167.213 429.575 163.921 426.095 165.057 423.053C163.988 426.446 158.714 427.609 154.847 426.149C151.616 424.928 149.46 421.917 150.494 419.221" stroke="#EE7505" stroke-width="1.97622" stroke-miterlimit="10" stroke-linecap="round"/>
<path d="M184.885 428.407C185.468 426.103 186.333 422.704 188.482 422.202C192.469 421.271 200.487 430.561 198.622 438.099C198.526 438.478 197.265 443.445 193.536 444.341C191.17 444.912 189.062 443.54 188.607 443.244C184.129 440.339 183.666 433.198 184.885 428.407Z" fill="#EE7505"/>
<path d="M145.674 416.349C146.115 414.05 146.759 410.663 145.058 409.32C141.891 406.832 130.872 411.764 129.39 419.261C129.316 419.64 128.367 424.588 131.32 426.943C133.189 428.435 135.64 428.093 136.171 428.022C141.371 427.296 144.758 421.132 145.675 416.348L145.674 416.349Z" fill="#EE7505"/>
<path d="M164.1 417.533C165.484 417.77 166.857 418.06 168.224 418.401C168.768 418.538 169.163 418.81 169.433 419.162C169.983 419.539 170.378 420.107 170.406 420.833C170.512 423.454 167.891 423.607 165.951 423.846C164.976 423.964 164.049 423.915 163.288 423.188C162.631 422.561 162.162 421.667 161.754 420.873C160.874 419.169 162.118 417.189 164.102 417.533H164.1Z" fill="#EE7505"/>
<path d="M124.002 433.427C125.631 435.036 128.153 437.312 131.576 439.583C135.58 442.238 137.103 442.422 138.322 444.436C140.334 447.764 139.738 453.158 136.782 456.389C132.866 460.667 126.293 459.528 123.882 459.11C114.792 457.53 104.122 449.253 104 437.921C103.931 431.424 107.317 422.824 114.653 420.171C118.304 418.851 121.738 419.435 123.648 419.936" fill="white"/>
<path d="M148.137 434.102C140.347 428.959 132.56 423.814 124.77 418.671C122.566 418.627 120.361 418.582 118.158 418.538C117.415 431.034 116.674 443.53 115.931 456.028C123.866 461.73 131.799 467.43 139.733 473.131L177.573 479.027C180.415 467.077 183.258 455.129 186.1 443.18C184.473 442.131 182.846 441.083 181.217 440.034C170.19 438.056 159.164 436.08 148.137 434.102Z" fill="#FFDEAD"/>
<path d="M144.288 436.656L117.313 417.273L108.234 461.135L135.209 480.519L178.093 487.2L187.172 443.338L144.288 436.656Z" fill="#EE7505"/>
<path d="M109.682 461.311C118.191 467.714 126.7 474.116 135.209 480.519L178.095 487.2C181.122 472.579 184.147 457.958 187.174 443.338" stroke="#F5F4F3" stroke-width="1.48217" stroke-linecap="round" stroke-linejoin="round"/>
<path d="M206.507 470.025C205.761 472.184 201.268 484.545 189.076 489.351C173.382 495.536 153.004 486.021 151.151 474.125C149.998 466.718 155.864 457.336 161.595 456.661C167.72 455.939 170.488 465.537 177.29 465.368C183.185 465.221 188.205 457.83 191.733 450.953" fill="white"/>
</g>
<defs>
<clipPath id="clip0_1287_5728">
<rect width="187" height="139.296" fill="white" transform="translate(104 352)"/>
</clipPath>
</defs>
</svg>
