<svg width="44" height="44" viewBox="0 0 44 44" fill="none" xmlns="http://www.w3.org/2000/svg">
<rect width="44" height="44" rx="22" fill="#EE7505"/>
<path d="M13.8825 21.9978C13.8825 21.7004 13.9892 21.445 14.2026 21.2317C14.4159 21.0119 14.6713 20.9019 14.9688 20.9019H20.9138V14.9666C20.9138 14.6692 21.0205 14.4138 21.2338 14.2004C21.4472 13.9871 21.7026 13.8804 22 13.8804C22.3039 13.8804 22.5625 13.9871 22.7759 14.2004C22.9892 14.4138 23.0959 14.6692 23.0959 14.9666V20.9019H29.0312C29.3287 20.9019 29.5841 21.0119 29.7974 21.2317C30.0108 21.445 30.1175 21.7004 30.1175 21.9978C30.1175 22.3017 30.0108 22.5603 29.7974 22.7737C29.5841 22.9806 29.3287 23.0841 29.0312 23.0841H23.0959V29.0388C23.0959 29.3297 22.9892 29.5819 22.7759 29.7953C22.5625 30.0086 22.3039 30.1153 22 30.1153C21.7026 30.1153 21.4472 30.0086 21.2338 29.7953C21.0205 29.5819 20.9138 29.3297 20.9138 29.0388V23.0841H14.9688C14.6713 23.0841 14.4159 22.9806 14.2026 22.7737C13.9892 22.5603 13.8825 22.3017 13.8825 21.9978Z" fill="white"/>
</svg>
